<svg width="36" height="34" viewBox="0 0 36 34" fill="none" xmlns="http://www.w3.org/2000/svg">
<path d="M21.2245 2.01787C21.2245 2.01787 31.9593 3.69358 31.1453 18.9538C31.1424 19.0104 32.3866 19.8344 32.484 19.9225C33.3516 20.7053 34.0794 21.7078 34.3977 22.8805C35.5311 27.0564 31.4789 31.3592 28.2021 32.5012C26.9781 32.9278 25.6844 33.1349 24.3881 33.1725C15.9612 33.4173 4.80437 28.0741 4.23138 17.639C4.21098 17.265 4.20567 16.8903 4.21544 16.5159C4.26618 14.5345 4.74554 12.6049 5.46797 10.8131C5.46764 10.8132 10.1576 -0.792011 21.2245 2.01795V2.01787Z" fill="#A47539"/>
<g style="mix-blend-mode:multiply" opacity="0.1">
<path d="M31.4171 19.1148C31.3008 19.399 31.1847 19.7622 31.1523 19.9698C31.0139 20.8606 31.3194 21.7805 31.85 22.4418C32.354 23.0696 33.0736 23.4768 33.7706 23.6304C34.0059 23.6822 34.2908 23.7088 34.5399 23.7172C34.2781 21.1374 32.1727 19.5896 31.4171 19.1148ZM16.285 25.8951C18.2791 25.4671 19.5171 23.3712 19.0502 21.2137C18.5834 19.0562 16.5885 17.6541 14.5945 18.0821C12.6005 18.5101 11.3624 20.606 11.8293 22.7635C12.2962 24.921 14.291 26.3231 16.285 25.8951Z" fill="#DC2400"/>
</g>
<path opacity="0.1" d="M26.0472 19.8604C26.0472 19.8604 27.7501 18.244 29.0684 19.7637L26.0472 19.8604Z" fill="black"/>
<path d="M10.1692 27.9147C4.50057 30.7489 -0.644343 23.6416 1.00363 19.6465C2.05484 17.0981 5.11989 16.9 6.89598 19.2277C7.94416 20.6015 8.79225 22.3577 9.27382 24.0375" fill="#A47539"/>
<path opacity="0.1" d="M5.50033 21.5723C6.2297 22.3127 6.81601 23.4108 7.53665 24.0232C7.40347 22.9984 7.19087 21.9039 6.69182 20.9802C6.18518 20.0422 5.26372 19.2694 4.32551 19.3331C3.16285 19.4121 2.20553 20.763 2.0824 21.988C2.15593 21.2549 3.63396 20.7589 4.19805 20.8283C5.08143 22.4894 5.42345 25.7631 5.42345 25.7631C6.15936 23.9098 5.86138 22.4521 5.50033 21.5723Z" fill="black"/>
<path d="M21.861 22.2863C24.1116 20.9527 26.0363 20.8679 27.3925 20.7843C30.1049 20.6171 32.3691 21.5056 32.9692 24.2621C33.5225 26.804 31.5974 28.2876 30.706 28.2607C29.8146 28.2338 29.6276 27.2581 27.5055 27.2103C25.3833 27.1625 22.3484 30.7065 20.5431 29.376C18.7378 28.0455 19.0477 23.9535 21.861 22.2863Z" fill="#873C41"/>
<mask id="mask0_53_463" style="mask-type:alpha" maskUnits="userSpaceOnUse" x="19" y="20" width="15" height="10">
<path d="M21.8643 22.2838C24.1179 20.9523 26.0451 20.8676 27.403 20.7841C30.1189 20.617 32.386 21.5038 32.9867 24.2555C33.5406 26.7931 31.6129 28.2742 30.7204 28.2474C29.8278 28.2207 29.6407 27.2465 27.5158 27.199C25.3909 27.1513 22.3519 30.6894 20.5443 29.3613C18.7367 28.0333 19.0472 23.9482 21.8643 22.2838Z" fill="#873C41"/>
</mask>
<g mask="url(#mask0_53_463)">
<path d="M31.5666 27.662C29.4393 26.2963 27.02 25.7471 24.6166 25.4766C22.5608 25.2452 20.2935 25.2576 18.4113 26.1681C19.6709 27.9791 19.3802 30.0368 21.3824 30.408C24.4854 30.9829 29.689 29.7975 32.0679 28.0097C31.9013 27.8933 31.7374 27.7718 31.5666 27.662Z" fill="#EE7E8B"/>
<path d="M20.8653 23.4771C21.8619 23.6628 22.8592 23.3336 23.6584 22.7935C23.8111 22.6901 24.0006 22.7784 24.1054 22.924C25.1807 24.4205 27.9451 24.3438 28.7469 22.8033C28.8091 22.6837 28.969 22.5989 29.1045 22.6542C30.0038 23.0217 31.1219 22.781 31.7306 22.0584C32.5901 21.0379 31.9336 19.367 31.183 18.3177C30.3355 18.9861 29.7874 20.5651 29.5653 20.5312C29.5623 20.5307 21.7993 19.3572 18.9707 21.9727C19.3559 22.7529 20.002 23.316 20.8653 23.4771Z" fill="white"/>
</g>
<path d="M28.8338 16.7453C29.1879 16.6228 29.7546 16.389 30.2102 16.0869C30.4646 16.3709 30.6206 16.8275 30.6199 17.2337C30.6186 17.8821 30.3253 18.5783 29.5748 18.4983C28.9449 18.4311 28.7841 17.6037 28.7848 17.1964C28.7851 17.0421 28.802 16.8896 28.8338 16.7453ZM21.0382 15.8362C20.8106 16.1408 20.6614 16.5722 20.6604 17.0934C20.6585 18.1077 21.1609 18.6401 21.9158 18.8423C22.9643 19.0032 23.4693 18.2182 23.4711 17.2511C23.4712 17.0763 23.4495 16.9022 23.4068 16.7327C22.8709 16.7375 21.9768 16.5533 21.0382 15.8362Z" fill="#2A1200"/>
<path d="M23.5497 14.7939C22.4389 14.9945 21.2381 14.599 20.4222 13.7686C20.159 13.5009 20.0783 13.0194 20.3429 12.7073C20.5874 12.4185 21.0395 12.3236 21.3211 12.6105C21.4048 12.6965 21.4935 12.7775 21.5866 12.8532C21.6155 12.8766 21.6955 12.9177 21.7211 12.9526C21.7351 12.9615 21.7489 12.9705 21.7632 12.9791C21.8515 13.0325 21.9423 13.0815 22.0355 13.1257C22.0887 13.151 22.1425 13.1743 22.1968 13.1963C22.214 13.2032 22.2311 13.2098 22.2486 13.2163C22.2961 13.2237 22.3509 13.2484 22.3943 13.2595C22.5496 13.2988 22.7078 13.3253 22.8674 13.3386C22.8816 13.3398 22.8956 13.3407 22.9098 13.3415C22.9644 13.3402 23.0189 13.3403 23.0735 13.3372C23.1899 13.3299 23.3057 13.3157 23.4204 13.2948C23.7793 13.2298 24.1587 13.5777 24.1762 13.9669C24.195 14.3952 23.9341 14.7244 23.5497 14.7939ZM30.8423 14.0703C30.363 14.5642 29.7228 14.8416 29.0731 14.8558C28.8977 14.8596 28.7071 14.7653 28.5898 14.6318C28.4742 14.5004 28.3921 14.286 28.4071 14.099C28.4228 13.905 28.4903 13.7039 28.632 13.5698C28.7757 13.4338 28.9425 13.3582 29.1329 13.3538C29.1642 13.3532 29.1949 13.3488 29.2262 13.3466C29.3203 13.3283 29.4128 13.3028 29.5028 13.2701C29.6087 13.2184 29.7096 13.1572 29.8044 13.0873C29.8365 13.0584 29.87 13.0312 29.9004 12.9999C30.0317 12.8648 30.2231 12.7825 30.4014 12.7839C30.5719 12.7854 30.7725 12.8689 30.8845 13.0082C31.0007 13.1524 31.0833 13.341 31.0673 13.541C31.0513 13.7403 30.9812 13.9272 30.8423 14.0703Z" fill="#71472D"/>
<path d="M24.6681 6.76036C25.3195 9.76313 28.7116 11.1938 30.3264 11.5338C30.88 13.4596 31.0184 17.3955 31.0184 19.0819C32.549 19.8979 33.4745 21.1083 33.7458 21.6524C33.4948 20.6459 33.626 20.1375 33.8251 19.3659C33.9166 19.0114 34.0225 18.6013 34.1122 18.0619C34.3654 16.5392 32.7865 14.5654 31.946 13.5147C31.8529 13.3992 31.7608 13.2829 31.6697 13.1658C31.3323 12.7282 31.44 11.7766 31.5588 10.7269C31.6837 9.62375 31.8208 8.41246 31.4662 7.57613C30.7741 5.9441 28.5352 4.51608 27.3547 4.39368C26.8694 4.34333 26.5904 4.03789 26.1899 3.59929C25.616 2.97079 24.7925 2.06893 22.7547 1.25202C20.0891 0.183291 17.4863 0.971071 16.4005 1.55313C8.47717 2.2345 5.56892 10.3643 5.41904 10.7832C5.41586 10.7922 5.41391 10.7977 5.41317 10.7994C4.6933 12.5961 4.27653 14.548 4.22589 16.535C4.21628 16.9099 4.22133 17.2858 4.24177 17.6612C7.34289 18.1894 8.81154 21.5212 9.15829 23.1212C9.15829 23.1212 10.081 23.1756 10.2981 22.9988C11.4379 22.4004 13.4652 19.9469 12.4556 14.9203C11.9671 12.6354 12.2928 10.8162 16.2822 7.98414C18.7584 6.2262 22.1442 6.24195 24.6681 6.76036ZM33.298 28.2213C33.6237 27.6229 34.3401 26.0752 34.4378 24.8348C34.8856 25.2564 35.8138 26.4097 35.944 27.6501C36.0334 28.5017 35.6562 29.2548 35.3317 29.9026C35.0654 30.4343 34.8346 30.8951 34.9263 31.2813C35.0892 31.9668 35.4555 32.4101 35.6184 32.5461C34.5057 33.0494 31.5394 33.7702 29.0644 32.1381C29.8726 31.7301 31.9159 30.3103 33.298 28.2213Z" fill="#E2BA87"/>
<path d="M24.6681 6.76014C23.9761 5.16892 21.33 1.91302 16.2823 1.61926C16.3195 1.59763 16.359 1.57552 16.4007 1.55316C8.47721 2.23453 5.56904 10.3643 5.41916 10.7833C5.41598 10.7922 5.41403 10.7977 5.4133 10.7994C4.69342 12.5961 4.27665 14.548 4.22601 16.535C4.2164 16.91 4.22145 17.2858 4.24189 17.6613C7.34301 18.1894 8.81166 21.5213 9.15841 23.1212C9.15841 23.1212 10.0811 23.1756 10.2982 22.9988C11.4381 22.4004 13.4653 19.9469 12.4557 14.9203C11.9673 12.6354 12.2929 10.8162 16.2823 7.98416C18.7585 6.22631 22.1444 6.24198 24.6682 6.76039L24.6681 6.76014Z" fill="black" fill-opacity="0.3"/>
<mask id="mask1_53_463" style="mask-type:alpha" maskUnits="userSpaceOnUse" x="16" y="0" width="20" height="34">
<path d="M16.2823 1.61921C21.3301 1.91298 23.9761 5.16887 24.6682 6.7601C25.3195 9.76303 28.7118 11.1937 30.3265 11.5338C30.8802 13.4596 31.0186 17.3954 31.0186 19.0819C32.5492 19.8979 33.4746 21.1083 33.746 21.6523C33.3796 20.1835 33.8274 19.7755 34.1124 18.0619C34.3973 16.3483 32.3619 14.0634 31.6699 13.1658C30.9779 12.2682 32.1584 9.20814 31.4664 7.57611C30.7743 5.94408 28.5354 4.51606 27.3549 4.39366C26.1743 4.27125 26.2151 2.63923 22.7549 1.252C19.9868 0.142226 17.2864 1.03437 16.2823 1.61921ZM34.438 24.8348C34.3403 26.0751 33.6239 27.6229 33.2982 28.2213C31.9161 30.3102 29.8728 31.7301 29.0646 32.1381C31.5396 33.7701 34.5058 33.0494 35.6186 32.5461C35.4557 32.4101 35.0894 31.9668 34.9265 31.2813C34.723 30.4245 36.1071 29.2005 35.9442 27.65C35.814 26.4097 34.8858 25.2564 34.438 24.8348Z" fill="#238D81"/>
</mask>
<g mask="url(#mask1_53_463)">
<g style="mix-blend-mode:multiply">
<path d="M27.1105 8.84092C26.1009 8.05754 25.4415 6.71928 25.2379 6.14807C25.5229 6.68068 26.5406 7.96501 28.3317 8.84092C30.1229 9.71683 30.7878 10.7019 30.8963 11.085C30.245 9.90173 28.3724 9.82013 27.1105 8.84092ZM32.9724 18.5515C33.0375 17.8334 32.8096 16.9195 32.6874 16.5522C32.6874 16.9466 32.6467 17.8987 32.4839 18.5515C32.3211 19.2043 31.9004 19.7211 31.7105 19.8979L32.9724 20.7139C32.4432 19.9795 32.891 19.4491 32.9724 18.5515ZM34.845 28.7516C35.2032 27.9683 34.9942 27.2284 34.845 26.9564C34.845 28.5476 34.1936 28.5068 33.5423 29.8125C32.891 31.1181 33.3795 32.4237 32.9724 32.2197C32.6467 32.0565 32.511 31.6621 32.4839 31.4853C32.3211 32.4972 32.5517 33.3213 32.6874 33.6069C33.8273 33.7375 34.6007 33.0629 34.845 32.7093C33.8273 31.1997 34.3972 29.7309 34.845 28.7516Z" fill="black" fill-opacity="0.15"/>
</g>
</g>
</svg>
