<svg width="119" height="103" viewBox="0 0 119 103" fill="none" xmlns="http://www.w3.org/2000/svg">
<path d="M51.3501 3.67883C51.3501 2.60123 51.6927 1.7163 52.3813 1.03121C53.0664 0.346111 53.9014 0 54.8827 0H3.53253C2.55127 0 1.71632 0.346111 1.03122 1.03121C0.342554 1.71987 0 2.60123 0 3.67883V14.5654C0 15.5467 0.342554 16.3817 1.03122 17.0668C1.71632 17.7554 2.55127 18.098 3.53253 18.098H30.7544V99.4675C30.7544 100.449 31.097 101.284 31.7856 101.969C32.4707 102.657 33.3057 103 34.2869 103H47.8248C48.9024 103 49.7873 102.657 50.4724 101.969C50.9755 101.466 51.293 100.88 51.4286 100.217C51.3787 99.9777 51.3537 99.7279 51.3537 99.4675V3.67883H51.3501Z" fill="white"/>
<path d="M113.412 15.5146C110.272 10.6582 105.858 7.03295 100.17 4.6244C94.4792 2.223 87.8102 1.02051 80.1599 1.02051H57.9407V17.3522H79.4249C85.5051 17.3522 89.9689 18.8473 92.8128 21.841C95.6567 24.8348 97.0804 28.7812 97.0804 33.6839C97.0804 38.9827 95.5603 42.9791 92.5202 45.6767C89.4801 48.3742 85.1126 49.723 79.4249 49.723H57.9407V66.0583H58.2333V66.0547H80.1564C87.8066 66.0547 94.4756 64.8772 100.167 62.5222C105.855 60.1672 110.269 56.6132 113.409 51.8532C116.549 47.0968 118.119 41.038 118.119 33.6803C118.122 26.4297 116.549 20.3709 113.412 15.5146Z" fill="white"/>
</svg>
