<svg width="33" height="28" viewBox="0 0 33 28" fill="none" xmlns="http://www.w3.org/2000/svg">
<path d="M14.0051 1.00007C14.0051 0.707129 14.0985 0.466568 14.2864 0.280328C14.4732 0.0940884 14.7009 0 14.9686 0H0.963452C0.695826 0 0.468103 0.0940884 0.281252 0.280328C0.0934272 0.467538 0 0.707129 0 1.00007V3.95953C0 4.22628 0.0934272 4.45327 0.281252 4.63951C0.468103 4.82671 0.695826 4.91984 0.963452 4.91984H8.38788V27.0397C8.38788 27.3064 8.4813 27.5334 8.66913 27.7197C8.85598 27.9069 9.08371 28 9.35133 28H13.0436C13.3375 28 13.5788 27.9069 13.7657 27.7197C13.9029 27.5829 13.9895 27.4238 14.0265 27.2434C14.0129 27.1784 14.0061 27.1105 14.0061 27.0397V1.00007H14.0051Z" fill="#224F74"/>
<path d="M30.7695 4.27668C29.9149 2.96175 28.7137 1.98014 27.1658 1.32799C25.6169 0.677767 23.8019 0.352173 21.7199 0.352173H15.673V4.77425H21.5199C23.1746 4.77425 24.3894 5.17907 25.1634 5.98967C25.9373 6.80028 26.3248 7.86884 26.3248 9.19633C26.3248 10.6311 25.9111 11.7132 25.0838 12.4436C24.2564 13.174 23.0678 13.5392 21.5199 13.5392H15.673V17.9622H15.7526V17.9613H21.719C23.801 17.9613 25.6159 17.6424 27.1648 17.0048C28.7127 16.3671 29.9139 15.4048 30.7685 14.116C31.6231 12.8281 32.0503 11.1876 32.0503 9.19537C32.0513 7.23214 31.6231 5.59162 30.7695 4.27668Z" fill="#1E4B6C"/>
</svg>
