<svg width="32" height="36" viewBox="0 0 32 36" fill="none" xmlns="http://www.w3.org/2000/svg">
<path d="M20.0091 9.05334C20.0091 9.05334 29.2454 10.4951 28.545 23.6251C28.5425 23.6738 29.613 24.3828 29.6968 24.4586C30.4433 25.1321 31.0695 25.9947 31.3434 27.0036C32.3186 30.5967 28.8321 34.2988 26.0127 35.2814C24.9595 35.6484 23.8464 35.8266 22.731 35.8589C15.4805 36.0696 5.88113 31.4722 5.38813 22.4938C5.37058 22.172 5.36601 21.8497 5.37442 21.5275C5.41807 19.8228 5.83052 18.1625 6.4521 16.6208C6.45182 16.6209 10.4871 6.6357 20.0091 9.05341V9.05334Z" fill="#EFCC9F"/>
<g style="mix-blend-mode:multiply" opacity="0.1">
<path d="M28.7789 23.7637C28.6789 24.0082 28.579 24.3207 28.5511 24.4993C28.432 25.2658 28.6948 26.0573 29.1514 26.6262C29.585 27.1664 30.2042 27.5168 30.8039 27.6489C31.0063 27.6935 31.2515 27.7164 31.4658 27.7236C31.2406 25.504 29.429 24.1722 28.7789 23.7637ZM15.7592 29.5975C17.4749 29.2292 18.5401 27.4259 18.1384 25.5696C17.7367 23.7132 16.0203 22.5069 14.3047 22.8751C12.589 23.2434 11.5238 25.0467 11.9255 26.903C12.3272 28.7594 14.0436 29.9657 15.7592 29.5975Z" fill="#DC2400"/>
</g>
<path opacity="0.1" d="M24.1586 24.4051C24.1586 24.4051 25.6237 23.0144 26.758 24.322L24.1586 24.4051Z" fill="black"/>
<path d="M10.497 31.3351C5.61964 33.7737 1.19292 27.6586 2.61085 24.2211C3.51531 22.0285 6.1525 21.858 7.68066 23.8608C8.58252 25.0429 9.31222 26.5538 9.72657 27.9992" fill="#EFCC9F"/>
<path opacity="0.1" d="M6.47996 25.8781C7.10752 26.5152 7.61198 27.4599 8.23202 27.9869C8.11743 27.1051 7.93452 26.1634 7.50513 25.3687C7.06921 24.5616 6.27638 23.8966 5.46914 23.9515C4.46879 24.0195 3.64509 25.1818 3.53915 26.2357C3.60242 25.605 4.87413 25.1782 5.35947 25.238C6.11954 26.6672 6.41381 29.4839 6.41381 29.4839C7.04699 27.8893 6.79061 26.6351 6.47996 25.8781Z" fill="black"/>
<path d="M25.7373 27.7572C26.3925 27.7754 27.0208 27.5879 27.5619 27.0254C27.8451 26.7313 28.1322 26.5694 28.5384 26.821C29.5111 27.4235 29.7401 28.9286 29.4787 29.9378C29.1916 31.0451 28.3269 31.9379 27.3304 32.5202C24.649 34.087 22.5922 33.7344 19.8483 32.7329C17.6884 31.9447 14.7684 30.3559 15.5086 27.6215C16.4252 24.2359 20.3755 25.8614 22.6044 26.7747C23.5508 27.1629 24.6792 27.7279 25.7373 27.7572Z" fill="white"/>
<mask id="mask0_53_380" style="mask-type:alpha" maskUnits="userSpaceOnUse" x="15" y="25" width="15" height="9">
<path d="M25.7373 27.7572C26.3925 27.7754 27.0208 27.5879 27.5619 27.0254C27.8451 26.7313 28.1322 26.5694 28.5384 26.821C29.5111 27.4235 29.7401 28.9286 29.4787 29.9378C29.1916 31.0451 28.3269 31.9379 27.3304 32.5202C24.649 34.087 22.5922 33.7344 19.8483 32.7329C17.6884 31.9447 14.7684 30.3559 15.5086 27.6215C16.4252 24.2359 20.3755 25.8614 22.6044 26.7747C23.5508 27.1629 24.6792 27.7279 25.7373 27.7572Z" fill="white"/>
</mask>
<g mask="url(#mask0_53_380)">
<path fill-rule="evenodd" clip-rule="evenodd" d="M16.7912 31.5178L19.5983 24.4312L19.9891 24.5861L17.182 31.6727L16.7912 31.5178ZM22.5592 33.8076L24.4981 26.3716L24.9048 26.4777L22.9659 33.9137L22.5592 33.8076ZM28.3299 32.0121L27.2601 26.5604L27.6725 26.4795L28.7423 31.9311L28.3299 32.0121Z" fill="#D1D3D4"/>
</g>
<path d="M21.9456 22.1597C21.944 22.9919 21.5094 23.6674 20.6068 23.5289C19.9572 23.3549 19.5247 22.8969 19.5264 22.0241C19.5282 21.1098 20.0606 20.5164 20.6127 20.5153C21.3506 20.5139 21.9472 21.3275 21.9456 22.1597ZM28.0985 22.1447C28.0975 22.7025 27.845 23.3016 27.1989 23.2327C26.6568 23.175 26.5184 22.4631 26.5191 22.1126C26.5203 21.4997 26.8273 20.9206 27.2753 20.9198C27.757 20.9189 28.0996 21.5869 28.0985 22.1447Z" fill="#2A1200"/>
<path d="M22.3497 18.2162C21.4794 17.7851 20.3924 17.8252 19.5197 18.3168C19.2384 18.4753 19.0567 18.8541 19.2009 19.1752C19.3341 19.4723 19.6852 19.6587 19.9864 19.4887C20.0761 19.4377 20.1687 19.3919 20.2638 19.3516C20.2933 19.3391 20.3693 19.3243 20.3987 19.3016C20.4125 19.2975 20.4259 19.2935 20.4399 19.2897C20.5255 19.2666 20.6123 19.2479 20.6999 19.2335C20.7498 19.2255 20.7999 19.2189 20.8501 19.2137C20.8659 19.2121 20.8817 19.2108 20.8977 19.2096C20.9387 19.2148 20.9899 19.2075 21.0284 19.2087C21.1661 19.2133 21.3032 19.2292 21.4384 19.2562C21.4504 19.2587 21.4622 19.2613 21.4742 19.264C21.519 19.278 21.564 19.291 21.6085 19.3067C21.7029 19.3405 21.7952 19.3799 21.885 19.4246C22.1662 19.5639 22.5629 19.367 22.6703 19.0495C22.788 18.6999 22.6509 18.3655 22.3497 18.2162ZM28.4148 18.5192C27.8944 18.2367 27.2975 18.1732 26.7602 18.3284C26.6152 18.3703 26.4829 18.4966 26.4209 18.6364C26.3596 18.774 26.3472 18.9711 26.4075 19.1208C26.4702 19.2762 26.5772 19.424 26.728 19.4977C26.8809 19.5725 27.0373 19.5918 27.1948 19.5465C27.2206 19.539 27.247 19.5346 27.2733 19.5285C27.3552 19.5193 27.4377 19.5166 27.5201 19.5203C27.6197 19.5353 27.7178 19.5596 27.8146 19.5929C27.8484 19.6084 27.8829 19.6222 27.9159 19.64C28.0584 19.7173 28.2368 19.7358 28.3827 19.6888C28.5224 19.6438 28.6657 19.5237 28.7219 19.3806C28.7803 19.2323 28.7998 19.0562 28.7353 18.8961C28.6711 18.7365 28.5655 18.601 28.4148 18.5192Z" fill="#71472D"/>
<path d="M11.222 12.8403C8.16266 12.8403 5.68253 10.1398 5.68253 6.80852C5.68253 3.47711 8.16266 0.776611 11.222 0.776611C14.2814 0.776611 16.7615 3.47718 16.7615 6.80845C16.7615 10.1398 14.2814 12.8403 11.222 12.8403Z" fill="#238D80"/>
<path d="M11.222 12.8403C8.16266 12.8403 5.68253 10.1398 5.68253 6.80852C5.68253 6.2514 5.75188 5.71197 5.88168 5.19986C6.76922 5.86686 10.148 6.80065 16.5623 5.19986C16.6951 5.72568 16.762 6.26604 16.7615 6.80845C16.7615 10.1398 14.2814 12.8403 11.222 12.8403Z" fill="black" fill-opacity="0.15"/>
<path d="M8.26686 22.684C8.58496 19.4256 13.7999 16.6879 13.7999 16.6879C13.6747 17.267 13.4011 17.7855 13.1986 18.1115C13.096 18.2771 13.198 18.501 13.381 18.5152C18.2832 18.8985 24.6016 13.5896 24.6016 13.5896C25.9319 15.3108 27.4783 17.6961 28.2638 18.4954C28.3756 18.6093 28.5527 18.5167 28.5484 18.3502C28.2558 7.09702 17.4369 4.86201 10.1105 7.33545C3.40543 9.5991 -2.17079 18.3792 2.4793 24.7885C2.7361 23.9694 3.71218 22.3803 5.56152 22.5769C5.86504 22.6471 6.67532 22.9982 7.4879 23.8407C7.60937 23.9711 8.60871 24.3322 8.26686 22.684Z" fill="#238D80"/>
<path opacity="0.15" d="M23.6012 12.2986C23.6012 12.2986 23.0214 11.61 21.7568 11.725C21.7568 11.725 22.6526 11.2374 23.2321 11.2948C23.2321 11.2948 21.6514 10.1185 19.3329 10.8646C19.3329 10.8646 20.9663 9.71699 22.2576 9.86036C22.2576 9.86036 20.8875 9.25802 20.018 9.40146C20.018 9.40146 20.7031 8.54068 21.5987 8.5694C21.5987 8.5694 20.8872 7.30702 19.7806 6.90549C19.7806 6.90549 21.9938 7.53682 22.5733 7.99571C23.8643 8.54068 25.0499 10.1475 25.0499 10.1475C24.6548 9.91807 24.0223 9.97543 24.0223 9.97543C25.0499 10.6067 25.8404 11.7827 25.8404 11.7827C25.34 11.4385 24.7338 11.5532 24.7338 11.5532C25.7087 12.5287 26.0248 13.791 26.0248 13.791C25.8931 13.3895 24.9446 12.9016 24.9446 12.9016C25.3134 13.5616 25.3924 14.6228 25.3924 14.6228L24.6019 13.5899C24.6019 13.5899 22.9948 14.9383 22.5731 15.1104C22.5731 15.1104 23.785 13.8481 23.864 13.2745C23.864 13.2745 22.0459 13.762 20.5969 13.9631C20.5975 13.9625 22.6263 12.4133 23.6012 12.2986Z" fill="black"/>
</svg>
