<svg width="36" height="39" viewBox="0 0 36 39" fill="none" xmlns="http://www.w3.org/2000/svg">
<path d="M21.36 6.26277C21.36 6.26277 32.5272 8.00596 31.6804 23.8807C31.6773 23.9396 32.9716 24.7968 33.0729 24.8884C33.9755 25.7027 34.7326 26.7456 35.0637 27.9655C36.2428 32.3096 32.0274 36.7857 28.6186 37.9737C27.3453 38.4175 25.9995 38.6329 24.651 38.672C15.8847 38.9267 4.27865 33.3683 3.68259 22.513C3.66137 22.1239 3.65584 21.7341 3.66601 21.3446C3.71879 19.2835 4.21746 17.2761 4.96898 15.4122C4.96864 15.4123 9.84749 3.33973 21.36 6.26286V6.26277Z" fill="#F5D7B1"/>
<g style="mix-blend-mode:multiply" opacity="0.1">
<path d="M31.963 24.0483C31.8421 24.3439 31.7213 24.7217 31.6876 24.9377C31.5436 25.8643 31.8614 26.8213 32.4134 27.5092C32.9377 28.1623 33.6863 28.5859 34.4113 28.7456C34.6561 28.7996 34.9524 28.8272 35.2116 28.836C34.9393 26.1523 32.7491 24.5421 31.963 24.0483ZM16.2216 31.1016C18.296 30.6564 19.5838 28.476 19.0982 26.2316C18.6125 23.9872 16.5373 22.5287 14.463 22.974C12.3887 23.4191 11.1008 25.5995 11.5864 27.8439C12.0721 30.0883 14.1473 31.5468 16.2216 31.1016Z" fill="#DC2400"/>
</g>
<path opacity="0.1" d="M26.3767 24.8238C26.3767 24.8238 28.1482 23.1424 29.5196 24.7233L26.3767 24.8238Z" fill="black"/>
<path d="M9.85935 33.2024C3.96244 36.1508 -1.38967 28.7573 0.324671 24.6013C1.41821 21.9503 4.60669 21.7442 6.45431 24.1657C7.5447 25.5948 8.42694 27.4216 8.9279 29.1691" fill="#F5D7B1"/>
<path opacity="0.1" d="M5.00235 26.6047C5.7611 27.3749 6.37102 28.5172 7.12067 29.1543C6.98213 28.0882 6.76097 26.9496 6.24183 25.9888C5.71478 25.0129 4.75621 24.209 3.78022 24.2753C2.57074 24.3575 1.57486 25.7629 1.44678 27.0371C1.52327 26.2746 3.06082 25.7585 3.64763 25.8307C4.56659 27.5587 4.92237 30.9642 4.92237 30.9642C5.68792 29.0363 5.37794 27.5199 5.00235 26.6047Z" fill="black"/>
<path fill-rule="evenodd" clip-rule="evenodd" d="M22.5004 29.1851C22.5004 29.0952 22.5361 29.009 22.5997 28.9455C22.6632 28.8819 22.7494 28.8462 22.8392 28.8462H30.6311C30.7209 28.8462 30.8071 28.8819 30.8706 28.9455C30.9342 29.009 30.9699 29.0952 30.9699 29.1851C30.9699 29.275 30.9342 29.3612 30.8706 29.4247C30.8071 29.4883 30.7209 29.524 30.6311 29.524H22.8392C22.7494 29.524 22.6632 29.4883 22.5997 29.4247C22.5361 29.3612 22.5004 29.275 22.5004 29.1851Z" fill="#592125"/>
<path d="M24.6976 21.5954C24.6953 22.8463 23.9074 23.8619 22.2706 23.6544C21.0924 23.3932 20.4694 22.9068 20.4719 21.5949C20.4746 20.2202 21.1263 19.3083 22.2794 19.1241C24.0484 18.8416 24.7001 20.3444 24.6976 21.5954ZM31.154 21.2963C31.1524 22.2937 30.7446 23.365 29.7006 23.242C28.8245 23.1388 28.6008 21.8661 28.6018 21.2395C28.6036 20.1434 29.0995 19.1079 29.8233 19.1062C30.6018 19.1045 31.1556 20.2989 31.154 21.2963Z" fill="#2A1200"/>
<path d="M29.7146 19.8626C29.7363 19.7783 29.8527 19.7715 29.8768 19.853L30.0993 20.606C30.1047 20.6248 30.1169 20.6409 30.1334 20.6513C30.15 20.6617 30.1697 20.6658 30.189 20.6626L30.6145 20.5973C30.684 20.5867 30.7318 20.6608 30.6954 20.7227L30.3411 21.3255C30.3349 21.3357 30.331 21.3471 30.3294 21.359C30.3279 21.3708 30.3288 21.3829 30.3322 21.3943L30.5509 22.1351C30.5759 22.2195 30.4703 22.286 30.4093 22.2242L30.1001 21.9106C30.0655 21.8756 30.0074 21.88 29.975 21.92L29.5 22.5069C29.4473 22.572 29.3459 22.5346 29.3517 22.4523L29.4141 21.5788C29.415 21.5671 29.4134 21.5554 29.4094 21.5444C29.4055 21.5333 29.3992 21.5233 29.391 21.5149L28.9212 21.0385C28.873 20.9896 28.9036 20.9034 28.9731 20.8927L29.4109 20.8256C29.4456 20.8203 29.4744 20.794 29.4833 20.7594L29.7146 19.8626ZM22.5868 19.7538C22.6155 19.6836 22.7148 19.6835 22.7436 19.7536L23.1447 20.7295C23.1517 20.7468 23.1643 20.7612 23.1804 20.7706C23.1965 20.78 23.2153 20.7838 23.2338 20.7814L24.0518 20.6766C24.1293 20.6667 24.1778 20.7581 24.1261 20.8166L23.5159 21.5085C23.5054 21.5204 23.4985 21.5349 23.4959 21.5505C23.4932 21.5661 23.495 21.5821 23.5011 21.5967L23.879 22.5161C23.9108 22.5937 23.8228 22.6655 23.7533 22.6187L23.0433 22.1399C23.0281 22.1296 23.0099 22.1246 22.9915 22.1255C22.9732 22.1265 22.9557 22.1334 22.9416 22.1452L21.9651 22.9636C21.9058 23.0133 21.8163 22.9639 21.8268 22.8871L21.969 21.8418C21.9712 21.8261 21.9689 21.8101 21.9624 21.7957C21.9559 21.7812 21.9456 21.7689 21.9324 21.7601L21.1677 21.2444C21.1029 21.2007 21.1267 21.1 21.2042 21.0901L22.0378 20.9833C22.0527 20.9814 22.0667 20.9756 22.0786 20.9665C22.0905 20.9573 22.0997 20.9452 22.1054 20.9313L22.5868 19.7538Z" fill="white"/>
<path d="M23.7007 16.4383C22.5752 16.1038 21.2884 16.3752 20.3497 17.1404C20.0471 17.3872 19.9085 17.8758 20.1463 18.2288C20.366 18.5554 20.8227 18.7053 21.1467 18.4408C21.2431 18.3615 21.344 18.2879 21.4489 18.2203C21.4816 18.1994 21.569 18.166 21.5994 18.1329C21.615 18.1252 21.6303 18.1176 21.6461 18.1103C21.7434 18.0651 21.8429 18.0249 21.9443 17.9899C22.0021 17.97 22.0604 17.9518 22.1191 17.9353C22.1377 17.9302 22.1562 17.9254 22.175 17.9206C22.225 17.9184 22.2845 17.8991 22.3306 17.8927C22.4957 17.8698 22.6623 17.8605 22.8289 17.865C22.8437 17.8654 22.8582 17.8661 22.873 17.8668C22.9293 17.8744 22.9856 17.8805 23.0419 17.8901C23.1613 17.9105 23.279 17.9392 23.3956 17.9736C23.7592 18.0819 24.1913 17.7655 24.254 17.3652C24.3224 16.9245 24.0903 16.5543 23.7007 16.4383ZM31.4516 17.3016C30.9043 16.84 30.2129 16.6192 29.5389 16.6719C29.3569 16.6862 29.1694 16.8036 29.0619 16.9539C28.9558 17.1019 28.8931 17.3323 28.928 17.5243C28.9643 17.7236 29.055 17.9247 29.2157 18.0488C29.3785 18.1746 29.5589 18.2356 29.7565 18.2204C29.7889 18.2179 29.8212 18.2191 29.8538 18.2183C29.9531 18.2274 30.0514 18.2443 30.1481 18.2687C30.263 18.3112 30.3738 18.364 30.4792 18.4266C30.5154 18.4532 30.5529 18.4779 30.5876 18.5072C30.7375 18.6334 30.9442 18.6987 31.1285 18.6787C31.3049 18.6596 31.5038 18.5522 31.6054 18.3964C31.7106 18.2352 31.7766 18.0314 31.7393 17.8261C31.7021 17.6214 31.6102 17.4352 31.4516 17.3016Z" fill="#71472D"/>
<path d="M27.7263 14.6848C28.4285 15.3906 29.3885 15.8254 30.447 15.8254C30.5667 15.8254 30.6852 15.8198 30.8021 15.8089C31.2291 17.2711 31.5191 18.9535 31.6118 20.8886C32.9226 20.2971 33.8351 18.9765 33.8351 17.4423C33.8351 16.4822 33.4777 15.6058 32.8891 14.9395C33.7759 14.2038 34.3432 13.0764 34.3432 11.8124C34.3432 9.84767 32.9724 8.21265 31.1621 7.86682C31.1816 7.69473 31.1913 7.52168 31.1913 7.34849C31.1913 4.90806 29.2706 2.92976 26.9012 2.92976C26.277 2.92912 25.6607 3.06864 25.0974 3.33807C24.4589 1.72342 22.9198 0.585083 21.1225 0.585083C19.6337 0.585083 18.322 1.3663 17.5526 2.55244C16.828 1.99659 15.9267 1.66723 14.95 1.66723C13.1754 1.66723 11.65 2.75464 10.9797 4.31147C10.427 4.05413 9.8247 3.92111 9.21521 3.92176C6.87155 3.92176 4.96686 5.85736 4.92578 8.26112C2.67486 8.42113 0.897555 10.3335 0.897555 12.6691C0.897555 13.792 1.30832 14.817 1.98503 15.5965C1.15342 16.4017 0.634918 17.5397 0.634918 18.8013C0.634918 21.2417 2.57526 23.2201 4.96881 23.2201C5.12758 23.2201 5.28623 23.2113 5.44403 23.1938C7.48872 24.4187 8.52004 26.8947 8.80791 28.223C8.80791 28.223 9.76775 28.2796 9.99363 28.0957C10.9319 27.6032 12.4481 25.9024 12.5199 22.6233C13.343 21.819 13.8556 20.6868 13.8556 19.4326C13.8561 18.9811 13.7886 18.5322 13.6554 18.101C14.9743 17.7295 16.0409 16.7382 16.5348 15.4538C17.0829 15.6994 17.6767 15.8261 18.2771 15.8254C19.6838 15.8254 20.9341 15.1419 21.7259 14.083C22.4362 15.1353 23.6264 15.8254 24.9749 15.8254C26.0454 15.8254 27.0162 15.3906 27.7263 14.6848Z" fill="#71472D"/>
<path d="M11.4391 5.87901C12.3848 4.42845 16.1623 7.12788 17.9818 8.68751C15.5078 8.53217 14.1537 11.848 13.7129 13.4697C12.932 14.2369 11.6373 14.3766 11.1113 14.3775C10.8265 12.1491 10.4933 7.32957 11.4391 5.87901Z" fill="#A09B9B"/>
<mask id="mask0_53_336" style="mask-type:alpha" maskUnits="userSpaceOnUse" x="10" y="5" width="8" height="10">
<path d="M11.4391 5.87901C12.3848 4.42845 16.1623 7.12788 17.9818 8.68751C15.5078 8.53217 14.1537 11.848 13.7129 13.4697C12.932 14.2369 11.6373 14.3766 11.1113 14.3775C10.8265 12.1491 10.4933 7.32957 11.4391 5.87901Z" fill="#A09B9B"/>
</mask>
<g mask="url(#mask0_53_336)">
<path d="M10.8946 14.0271C11.5473 13.7822 12.3729 13.5104 12.7041 13.405L10.582 12.6484L10.8946 14.0271ZM10.3592 11.8318L10.3097 10.9185L11.8248 11.4466L10.3592 11.8318Z" fill="#C4C4C4"/>
<path d="M17.9819 8.68752C15.5685 9.51543 14.1326 12.1867 13.7162 13.4189C11.828 11.0557 10.8655 6.91422 11.8479 5.85363C12.6339 5.00518 16.2647 7.38942 17.9819 8.68752Z" fill="#FEB3A4"/>
<mask id="mask1_53_336" style="mask-type:alpha" maskUnits="userSpaceOnUse" x="11" y="5" width="7" height="9">
<path d="M17.9819 8.68752C15.5685 9.51543 14.1326 12.1867 13.7162 13.4189C11.828 11.0557 10.8655 6.91422 11.8479 5.85363C12.6339 5.00518 16.2647 7.38942 17.9819 8.68752Z" fill="#FEB3A4"/>
</mask>
<g mask="url(#mask1_53_336)">
<path d="M14.9275 7.88355C13.1379 7.85273 13.4376 11.6329 13.8112 13.5269L18.4858 8.7702C18.0454 8.48744 16.7172 7.91428 14.9275 7.88355Z" fill="#FFE7E2"/>
</g>
</g>
</svg>
