<svg width="36" height="34" viewBox="0 0 36 34" fill="none" xmlns="http://www.w3.org/2000/svg">
<path d="M21.2245 2.01784C21.2245 2.01784 31.9593 3.69355 31.1453 18.9538C31.1424 19.0103 32.3866 19.8344 32.484 19.9224C33.3516 20.7053 34.0794 21.7078 34.3977 22.8804C35.5311 27.0564 31.4789 31.3591 28.2021 32.5012C26.9781 32.9278 25.6844 33.1349 24.3881 33.1725C15.9612 33.4173 4.80437 28.074 4.23138 17.639C4.21098 17.265 4.20567 16.8903 4.21544 16.5159C4.26618 14.5345 4.74554 12.6048 5.46797 10.8131C5.46764 10.8132 10.1576 -0.792041 21.2245 2.01792V2.01784Z" fill="#A47539"/>
<g style="mix-blend-mode:multiply" opacity="0.1">
<path d="M31.4171 19.1148C31.3009 19.399 31.1848 19.7621 31.1523 19.9698C31.0139 20.8606 31.3194 21.7805 31.8501 22.4417C32.354 23.0696 33.0737 23.4768 33.7706 23.6304C34.0059 23.6822 34.2908 23.7088 34.5399 23.7172C34.2782 21.1374 32.1727 19.5895 31.4171 19.1148ZM16.2851 25.8951C18.2792 25.4671 19.5172 23.3712 19.0503 21.2137C18.5834 19.0561 16.5886 17.6541 14.5946 18.0821C12.6006 18.5101 11.3625 20.606 11.8294 22.7635C12.2962 24.921 14.2911 26.3231 16.2851 25.8951Z" fill="#DC2400"/>
</g>
<path opacity="0.1" d="M26.0473 19.8604C26.0473 19.8604 27.7502 18.244 29.0685 19.7637L26.0473 19.8604Z" fill="black"/>
<path d="M10.1692 27.9146C4.50051 30.7488 -0.644405 23.6416 1.00357 19.6464C2.05478 17.0981 5.11983 16.8999 6.89592 19.2277C7.9441 20.6015 8.79219 22.3576 9.27375 24.0375" fill="#A47539"/>
<path opacity="0.1" d="M5.50033 21.5723C6.2297 22.3127 6.81601 23.4107 7.53665 24.0232C7.40347 22.9983 7.19087 21.9039 6.69182 20.9802C6.18518 20.0421 5.26372 19.2693 4.32551 19.3331C3.16285 19.4121 2.20553 20.763 2.0824 21.9879C2.15593 21.2549 3.63396 20.7589 4.19805 20.8283C5.08143 22.4893 5.42345 25.763 5.42345 25.763C6.15936 23.9098 5.86138 22.4521 5.50033 21.5723Z" fill="black"/>
<path d="M21.861 22.2863C24.1116 20.9527 26.0363 20.8679 27.3925 20.7842C30.1049 20.617 32.3691 21.5055 32.9692 24.262C33.5225 26.804 31.5974 28.2875 30.706 28.2606C29.8146 28.2338 29.6276 27.258 27.5055 27.2102C25.3833 27.1624 22.3484 30.7064 20.5431 29.3759C18.7378 28.0455 19.0477 23.9534 21.861 22.2863Z" fill="#873C41"/>
<mask id="mask0_53_273" style="mask-type:alpha" maskUnits="userSpaceOnUse" x="19" y="20" width="15" height="10">
<path d="M21.8642 22.2838C24.1178 20.9523 26.045 20.8676 27.4029 20.784C30.1189 20.6169 32.386 21.5037 32.9867 24.2554C33.5405 26.7931 31.6129 28.2742 30.7203 28.2474C29.8277 28.2206 29.6406 27.2465 27.5157 27.1989C25.3908 27.1513 22.3518 30.6894 20.5442 29.3613C18.7367 28.0332 19.0472 23.9482 21.8642 22.2838Z" fill="#873C41"/>
</mask>
<g mask="url(#mask0_53_273)">
<path d="M31.5665 27.662C29.4393 26.2962 27.0199 25.7471 24.6165 25.4766C22.5608 25.2452 20.2934 25.2576 18.4112 26.168C19.6709 27.9791 19.3801 30.0368 21.3824 30.4079C24.4854 30.9829 29.689 29.7974 32.0678 28.0097C31.9012 27.8933 31.7373 27.7717 31.5665 27.662Z" fill="#EE7E8B"/>
<path d="M20.8652 23.477C21.8618 23.6628 22.8591 23.3336 23.6582 22.7935C23.811 22.69 24.0005 22.7784 24.1053 22.924C25.1806 24.4205 27.9449 24.3437 28.7468 22.8033C28.809 22.6837 28.9689 22.5988 29.1044 22.6541C30.0037 23.0217 31.1218 22.7809 31.7305 22.0584C32.5899 21.0379 31.9335 19.367 31.1828 18.3177C30.3354 18.9861 29.7873 20.5651 29.5652 20.5312C29.5622 20.5307 21.7992 19.3572 18.9706 21.9727C19.3558 22.7528 20.0019 23.316 20.8652 23.477Z" fill="white"/>
</g>
<path d="M28.8337 16.7453C29.1878 16.6228 29.7545 16.389 30.2102 16.0869C30.4646 16.3709 30.6206 16.8275 30.6198 17.2337C30.6185 17.8821 30.3253 18.5783 29.5747 18.4983C28.9448 18.4311 28.784 17.6037 28.7847 17.1964C28.7851 17.0421 28.802 16.8896 28.8337 16.7453ZM21.0381 15.8362C20.8106 16.1408 20.6613 16.5722 20.6603 17.0934C20.6584 18.1077 21.1608 18.6401 21.9157 18.8423C22.9642 19.0032 23.4693 18.2182 23.4711 17.2511C23.4711 17.0763 23.4495 16.9022 23.4067 16.7327C22.8709 16.7375 21.9768 16.5533 21.0381 15.8362Z" fill="#2A1200"/>
<path d="M23.5496 14.7939C22.4388 14.9945 21.238 14.599 20.4221 13.7686C20.159 13.5009 20.0783 13.0193 20.3429 12.7072C20.5873 12.4185 21.0394 12.3236 21.321 12.6105C21.4048 12.6964 21.4934 12.7775 21.5865 12.8532C21.6155 12.8766 21.6954 12.9177 21.721 12.9526C21.7351 12.9615 21.7488 12.9705 21.7632 12.9791C21.8514 13.0325 21.9423 13.0814 22.0354 13.1257C22.0887 13.1509 22.1424 13.1742 22.1967 13.1963C22.2139 13.2032 22.2311 13.2097 22.2485 13.2163C22.296 13.2237 22.3508 13.2484 22.3942 13.2594C22.5495 13.2988 22.7077 13.3252 22.8673 13.3386C22.8816 13.3398 22.8955 13.3406 22.9098 13.3414C22.9643 13.3402 23.0188 13.3403 23.0735 13.3372C23.1898 13.3299 23.3056 13.3157 23.4203 13.2948C23.7792 13.2298 24.1587 13.5777 24.1762 13.9668C24.1949 14.3951 23.934 14.7243 23.5496 14.7939ZM30.8422 14.0703C30.3629 14.5641 29.7228 14.8416 29.073 14.8558C28.8976 14.8596 28.707 14.7653 28.5897 14.6318C28.4742 14.5004 28.392 14.286 28.407 14.099C28.4227 13.9049 28.4902 13.7039 28.632 13.5697C28.7757 13.4338 28.9424 13.3582 29.1328 13.3538C29.1641 13.3532 29.1949 13.3488 29.2261 13.3466C29.3202 13.3283 29.4127 13.3027 29.5028 13.2701C29.6086 13.2184 29.7096 13.1572 29.8044 13.0873C29.8364 13.0583 29.8699 13.0311 29.9003 12.9999C30.0317 12.8648 30.2231 12.7824 30.4013 12.7839C30.5719 12.7854 30.7725 12.8689 30.8844 13.0082C31.0006 13.1523 31.0832 13.341 31.0672 13.541C31.0512 13.7403 30.9811 13.9272 30.8422 14.0703Z" fill="#71472D"/>
<path d="M24.6681 6.76036C25.3196 9.76313 28.7117 11.1938 30.3264 11.5338C30.88 13.4596 31.0184 17.3955 31.0184 19.0819C32.5491 19.8979 33.4745 21.1083 33.7459 21.6524C33.4949 20.6459 33.626 20.1375 33.8252 19.3659C33.9167 19.0114 34.0225 18.6013 34.1122 18.0619C34.3654 16.5392 32.7866 14.5654 31.946 13.5147C31.853 13.3992 31.7609 13.2829 31.6698 13.1658C31.3324 12.7282 31.4401 11.7766 31.5589 10.7269C31.6838 9.62375 31.8209 8.41246 31.4662 7.57613C30.7742 5.9441 28.5353 4.51608 27.3547 4.39368C26.8694 4.34333 26.5905 4.03789 26.1899 3.59929C25.616 2.97079 24.7925 2.06893 22.7548 1.25202C20.0891 0.183291 17.4864 0.971071 16.4006 1.55313C8.47723 2.2345 5.56898 10.3643 5.4191 10.7832C5.41592 10.7922 5.41397 10.7977 5.41323 10.7994C4.69336 12.5961 4.27659 14.548 4.22595 16.535C4.21634 16.9099 4.22139 17.2858 4.24183 17.6612C7.34295 18.1894 8.8116 21.5212 9.15835 23.1212C9.15835 23.1212 10.081 23.1756 10.2982 22.9988C11.438 22.4004 13.4652 19.9469 12.4557 14.9203C11.9672 12.6354 12.2929 10.8162 16.2822 7.98414C18.7585 6.2262 22.1443 6.24195 24.6681 6.76036ZM33.2981 28.2213C33.6237 27.6229 34.3402 26.0752 34.4379 24.8348C34.8857 25.2564 35.8138 26.4097 35.9441 27.6501C36.0335 28.5017 35.6563 29.2548 35.3318 29.9026C35.0655 30.4343 34.8346 30.8951 34.9264 31.2813C35.0892 31.9668 35.4556 32.4101 35.6184 32.5461C34.5057 33.0494 31.5395 33.7702 29.0645 32.1381C29.8727 31.7301 31.916 30.3103 33.2981 28.2213Z" fill="#E2BA87"/>
<path d="M24.6681 6.76011C23.9761 5.16889 21.3301 1.91299 16.2823 1.61923C16.3195 1.5976 16.359 1.57549 16.4007 1.55313C8.47727 2.2345 5.5691 10.3643 5.41922 10.7832C5.41604 10.7922 5.41409 10.7977 5.41336 10.7994C4.69348 12.5961 4.27671 14.548 4.22607 16.535C4.21647 16.9099 4.22151 17.2858 4.24195 17.6612C7.34307 18.1894 8.81173 21.5212 9.15847 23.1212C9.15847 23.1212 10.0812 23.1756 10.2983 22.9988C11.4381 22.4004 13.4654 19.9469 12.4558 14.9202C11.9673 12.6354 12.293 10.8162 16.2823 7.98413C18.7586 6.22628 22.1444 6.24195 24.6682 6.76036L24.6681 6.76011Z" fill="black" fill-opacity="0.3"/>
<mask id="mask1_53_273" style="mask-type:alpha" maskUnits="userSpaceOnUse" x="16" y="0" width="20" height="34">
<path d="M16.2825 1.61921C21.3302 1.91298 23.9762 5.16887 24.6683 6.7601C25.3196 9.76303 28.7119 11.1937 30.3267 11.5338C30.8803 13.4596 31.0187 17.3954 31.0187 19.0819C32.5493 19.8979 33.4748 21.1083 33.7461 21.6523C33.3797 20.1835 33.8275 19.7755 34.1125 18.0619C34.3974 16.3483 32.3621 14.0634 31.67 13.1658C30.978 12.2682 32.1585 9.20814 31.4665 7.57611C30.7745 5.94408 28.5355 4.51606 27.355 4.39366C26.1745 4.27125 26.2152 2.63923 22.755 1.252C19.9869 0.142226 17.2866 1.03437 16.2825 1.61921ZM34.4382 24.8348C34.3405 26.0751 33.624 27.6229 33.2983 28.2213C31.9162 30.3102 29.8729 31.7301 29.0647 32.1381C31.5398 33.7701 34.506 33.0494 35.6187 32.5461C35.4558 32.4101 35.0895 31.9668 34.9266 31.2813C34.7231 30.4245 36.1072 29.2005 35.9443 27.65C35.8141 26.4097 34.8859 25.2564 34.4382 24.8348Z" fill="#238D81"/>
</mask>
<g mask="url(#mask1_53_273)">
<g style="mix-blend-mode:multiply">
<path d="M27.1106 8.84095C26.101 8.05757 25.4416 6.71931 25.238 6.1481C25.523 6.68071 26.5407 7.96504 28.3318 8.84095C30.123 9.71686 30.7879 10.7019 30.8964 11.085C30.2451 9.90176 28.3725 9.82016 27.1106 8.84095ZM32.9725 18.5515C33.0377 17.8334 32.8097 16.9195 32.6876 16.5523C32.6876 16.9467 32.6469 17.8987 32.484 18.5515C32.3212 19.2043 31.9005 19.7211 31.7106 19.8979L32.9725 20.7139C32.4433 19.9795 32.8911 19.4491 32.9725 18.5515ZM34.8451 28.7517C35.2033 27.9683 34.9943 27.2284 34.8451 26.9564C34.8451 28.5477 34.1938 28.5069 33.5424 29.8125C32.8911 31.1181 33.3796 32.4237 32.9725 32.2197C32.6469 32.0565 32.5111 31.6622 32.484 31.4853C32.3212 32.4972 32.5518 33.3214 32.6876 33.607C33.8274 33.7375 34.6008 33.0629 34.8451 32.7093C33.8274 31.1997 34.3973 29.7309 34.8451 28.7517Z" fill="black" fill-opacity="0.15"/>
</g>
</g>
</svg>
