<svg width="35" height="32" viewBox="0 0 35 32" fill="none" xmlns="http://www.w3.org/2000/svg">
<path d="M20.299 1.46217C20.299 1.46217 30.4833 3.05194 29.7111 17.5296C29.7083 17.5832 30.8886 18.365 30.981 18.4485C31.8042 19.1912 32.4947 20.1423 32.7967 21.2548C33.8719 25.2166 30.0275 29.2987 26.9188 30.3822C25.7575 30.7869 24.5302 30.9833 23.3003 31.019C15.3056 31.2513 4.721 26.1821 4.1774 16.2822C4.15805 15.9273 4.15301 15.5719 4.16228 15.2167C4.21042 13.3369 4.66519 11.5062 5.35057 9.80636C5.35026 9.80643 9.79972 -1.20361 20.299 1.46225V1.46217Z" fill="#8C5A2B"/>
<g style="mix-blend-mode:multiply" opacity="0.1">
<path d="M29.9691 17.6823C29.8588 17.9519 29.7487 18.2965 29.7179 18.4935C29.5866 19.3386 29.8764 20.2113 30.3798 20.8386C30.858 21.4343 31.5407 21.8206 32.2019 21.9663C32.4251 22.0155 32.6954 22.0407 32.9318 22.0487C32.6834 19.6012 30.686 18.1327 29.9691 17.6823ZM15.6131 24.1149C17.5049 23.7088 18.6794 21.7204 18.2365 19.6735C17.7936 17.6267 15.901 16.2965 14.0093 16.7026C12.1176 17.1086 10.943 19.097 11.3859 21.1439C11.8288 23.1907 13.7214 24.5209 15.6131 24.1149Z" fill="#DC2400"/>
</g>
<path opacity="0.1" d="M24.8746 18.3896C24.8746 18.3896 26.4902 16.8561 27.7409 18.2979L24.8746 18.3896Z" fill="black"/>
<path d="M9.81077 26.0308C4.43285 28.7197 -0.448208 21.9769 1.11525 18.1867C2.11254 15.769 5.0204 15.581 6.7054 17.7894C7.69983 19.0928 8.50443 20.7588 8.96129 22.3525" fill="#8C5A2B"/>
<path opacity="0.1" d="M5.38138 20.0138C6.07334 20.7162 6.62958 21.7579 7.31326 22.339C7.18691 21.3667 6.98522 20.3283 6.51176 19.4521C6.0311 18.5621 5.1569 17.8289 4.2668 17.8894C3.16378 17.9643 2.25555 19.246 2.13873 20.4081C2.2085 19.7127 3.61072 19.2421 4.14588 19.3079C4.98396 20.8838 5.30844 23.9896 5.30844 23.9896C6.0066 22.2314 5.72391 20.8484 5.38138 20.0138Z" fill="black"/>
<path d="M27.2363 21.0492C27.4692 21.1829 29.0976 19.1374 30.1818 19.7597C30.5479 19.9698 30.8271 20.3281 31.0368 20.7153C31.4976 21.567 31.6552 22.6017 31.4696 23.5562C31.2069 24.9059 30.2965 26.0109 29.2256 26.7433C26.3439 28.7135 24.0578 28.3411 20.9822 27.2005C18.5613 26.3029 15.2627 24.4552 15.9461 21.1215C17.1489 15.2532 27.2333 21.0475 27.2363 21.0492Z" fill="#873C41"/>
<path d="M18.8937 20.674C19.6768 21.1603 20.6303 21.2104 21.4855 21.0165C21.6491 20.9793 21.7806 21.1166 21.8213 21.2745C22.2389 22.8974 24.6065 23.7444 25.7938 22.7038C25.886 22.623 26.0494 22.6039 26.146 22.6955C26.7868 23.3036 27.8135 23.4686 28.5675 23.0572C29.6322 22.4762 29.627 20.8438 29.337 19.707C28.3986 19.9937 27.4135 21.1508 27.2364 21.0488C27.2341 21.0473 21.0436 17.4915 17.7843 18.7743C17.8535 19.5624 18.2153 20.2527 18.8937 20.674Z" fill="white"/>
<path d="M27.7729 26.9866C26.0796 25.4322 23.9975 24.5641 21.8865 23.948C20.0808 23.421 18.0477 23.0795 16.22 23.6024C17.0669 25.4208 19.2463 26.5564 20.9823 27.2002C23.6728 28.1978 25.7591 28.6076 28.1681 27.376C28.0368 27.2458 27.9088 27.1114 27.7729 26.9866Z" fill="#EE7E8B"/>
<path d="M27.8956 14.6999C28.1967 14.8383 28.6117 15.0024 29.0199 15.0982C29.1427 15.3394 29.2128 15.6267 29.2121 15.8916C29.2105 16.5067 28.9296 17.1675 28.2118 17.092C27.6093 17.0287 27.456 16.2438 27.457 15.8574C27.4582 15.3852 27.6253 14.9311 27.8956 14.6999ZM19.7326 15.2996C19.7019 15.4527 19.6864 15.6084 19.6866 15.7645C19.684 16.7269 20.1643 17.2316 20.8861 17.423C21.889 17.5751 22.3724 16.83 22.3748 15.9123C22.3761 15.379 22.153 14.8528 21.8048 14.5059C21.3721 14.837 20.6899 15.1784 19.7326 15.2996Z" fill="#2A1200"/>
<path d="M21.9453 11.0657C20.886 11.2216 19.9259 11.9407 19.4433 12.9343C19.2878 13.2546 19.3609 13.7121 19.6932 13.9126C20.0004 14.0983 20.4356 14.0468 20.602 13.7035C20.6513 13.6009 20.7065 13.5012 20.7673 13.4049C20.7862 13.3751 20.8458 13.314 20.8582 13.2748C20.8681 13.2625 20.8778 13.2503 20.8881 13.2383C20.9513 13.1635 21.0182 13.092 21.0886 13.024C21.1287 12.9854 21.17 12.9479 21.2122 12.9117C21.2256 12.9003 21.239 12.8893 21.2528 12.8781C21.2932 12.857 21.335 12.8183 21.3707 12.7951C21.4984 12.7127 21.6326 12.641 21.7721 12.5807C21.7846 12.5754 21.7968 12.5704 21.8094 12.5653C21.8589 12.5499 21.9078 12.5333 21.958 12.5196C22.0648 12.4909 22.1732 12.4686 22.2826 12.4528C22.625 12.4025 22.8609 11.9748 22.759 11.6196C22.6462 11.2289 22.3121 11.0119 21.9453 11.0657ZM29.6971 12.82C29.4549 12.2136 28.9934 11.739 28.4284 11.4919C28.2758 11.4253 28.0746 11.4392 27.9235 11.5139C27.7747 11.5876 27.6253 11.746 27.571 11.9154C27.5147 12.0913 27.5013 12.2922 27.5773 12.461C27.6544 12.6322 27.7734 12.7587 27.9389 12.8313C27.966 12.8431 27.9915 12.8581 28.0182 12.8714C28.0941 12.9214 28.166 12.9772 28.2332 13.0384C28.3075 13.1219 28.374 13.212 28.4319 13.3077C28.4495 13.3446 28.4691 13.3806 28.4845 13.419C28.551 13.585 28.6892 13.7263 28.8461 13.7893C28.9963 13.8497 29.2024 13.8487 29.3509 13.7671C29.5048 13.6825 29.6455 13.5469 29.7035 13.3656C29.7615 13.185 29.7674 12.9957 29.6971 12.82Z" fill="#71472D"/>
<path d="M23.5661 5.96143C24.1842 8.8102 27.4023 10.1675 28.9342 10.4901C29.4595 12.3171 29.5908 16.0511 29.5908 17.6511C31.0429 18.4252 31.9209 19.5736 32.1783 20.0897C31.9402 19.1348 32.0646 18.6525 32.2535 17.9205C32.3404 17.5842 32.4408 17.1951 32.5259 16.6834C32.7661 15.2388 31.2682 13.3662 30.4708 12.3694C30.3825 12.2598 30.2951 12.1495 30.2087 12.0384C29.8886 11.6232 29.9908 10.7204 30.1035 9.72457C30.222 8.67797 30.352 7.52881 30.0156 6.73536C29.359 5.18704 27.2349 3.83225 26.115 3.71613C25.6545 3.66836 25.3899 3.37859 25.0099 2.96248C24.4654 2.36622 23.6841 1.51061 21.7509 0.735594C19.222 -0.278329 16.7527 0.469049 15.7226 1.02126C8.20558 1.66769 5.44649 9.38053 5.30429 9.77798C5.30128 9.7865 5.29942 9.79169 5.29873 9.79331C4.61577 11.4979 4.22038 13.3497 4.17233 15.2348C4.16322 15.5905 4.16801 15.9471 4.1874 16.3033C7.12947 16.8043 8.52281 19.9653 8.85178 21.4832C8.85178 21.4832 9.72714 21.5348 9.93314 21.3671C11.0145 20.7994 12.9378 18.4717 11.98 13.7028C11.5166 11.5352 11.8255 9.80926 15.6103 7.12245C17.9596 5.45467 21.1717 5.46961 23.5661 5.96143ZM31.7535 26.3217C32.0625 25.754 32.7422 24.2857 32.8349 23.1089C33.2597 23.5089 34.1402 24.6031 34.2638 25.7798C34.3486 26.5877 33.9908 27.3022 33.6829 27.9168C33.4302 28.4212 33.2112 28.8584 33.2983 29.2248C33.4528 29.8751 33.8004 30.2957 33.9548 30.4248C32.8992 30.9022 30.0851 31.586 27.737 30.0377C28.5038 29.6506 30.4423 28.3036 31.7535 26.3217Z" fill="#238D80"/>
<path d="M23.566 5.96121C22.9095 4.45159 20.3992 1.36268 15.6103 1.08398C15.6456 1.06346 15.683 1.04248 15.7226 1.02127C8.20548 1.6677 5.44646 9.38054 5.30426 9.77799C5.30125 9.78651 5.29939 9.7917 5.2987 9.79332C4.61574 11.4979 4.22035 13.3497 4.1723 15.2348C4.16319 15.5905 4.16798 15.9471 4.18737 16.3033C7.12944 16.8043 8.52278 19.9653 8.85175 21.4832C8.85175 21.4832 9.72711 21.5348 9.93311 21.3671C11.0145 20.7994 12.9378 18.4717 11.98 13.7029C11.5165 11.5352 11.8255 9.80927 15.6103 7.12246C17.9595 5.45475 21.1717 5.46962 23.5661 5.96144L23.566 5.96121Z" fill="black" fill-opacity="0.3"/>
<mask id="mask0_53_206" style="mask-type:alpha" maskUnits="userSpaceOnUse" x="15" y="0" width="20" height="31">
<path d="M15.6104 1.08398C20.3992 1.36268 22.9095 4.45159 23.5661 5.96121C24.184 8.81014 27.4024 10.1675 28.9343 10.4901C29.4595 12.3171 29.5908 16.0511 29.5908 17.6511C31.0429 18.4253 31.9209 19.5736 32.1784 20.0897C31.8308 18.6962 32.2556 18.3091 32.526 16.6834C32.7963 15.0576 30.8653 12.89 30.2087 12.0384C29.5522 11.1868 30.6722 8.2837 30.0156 6.73538C29.3591 5.18705 27.235 3.83226 26.115 3.71614C24.995 3.60001 25.0337 2.05168 21.7509 0.735605C19.1248 -0.317258 16.563 0.529136 15.6104 1.08398ZM32.8349 23.1089C32.7422 24.2857 32.0625 25.754 31.7535 26.3217C30.4423 28.3036 28.5038 29.6506 27.7371 30.0377C30.0852 31.586 32.8993 30.9022 33.9549 30.4248C33.8004 30.2957 33.4528 29.8751 33.2984 29.2248C33.1053 28.412 34.4183 27.2507 34.2639 25.7798C34.1403 24.6031 33.2597 23.509 32.8349 23.1089Z" fill="#238D81"/>
</mask>
<g mask="url(#mask0_53_206)">
<g style="mix-blend-mode:multiply">
<path d="M25.8832 7.93533C24.9255 7.19213 24.2998 5.9225 24.1067 5.38058C24.3771 5.88588 25.3426 7.10434 27.0418 7.93533C28.7411 8.76631 29.372 9.70088 29.4749 10.0643C28.857 8.94174 27.0805 8.86432 25.8832 7.93533ZM31.4445 17.1479C31.5063 16.4666 31.2901 15.5996 31.1742 15.2512C31.1742 15.6253 31.1356 16.5285 30.9811 17.1479C30.8266 17.7672 30.4275 18.2575 30.2473 18.4252L31.4445 19.1994C30.9425 18.5027 31.3673 17.9995 31.4445 17.1479ZM33.2211 26.8249C33.5609 26.0817 33.3626 25.3798 33.2211 25.1218C33.2211 26.6314 32.6031 26.5927 31.9852 27.8313C31.3673 29.07 31.8307 30.3087 31.4445 30.1151C31.1356 29.9603 31.0068 29.5861 30.9811 29.4184C30.8266 30.3783 31.0454 31.1602 31.1742 31.4312C32.2556 31.5551 32.9893 30.9151 33.2211 30.5796C32.2556 29.1474 32.7962 27.7539 33.2211 26.8249Z" fill="black" fill-opacity="0.15"/>
</g>
</g>
</svg>
