<svg width="31" height="30" viewBox="0 0 31 30" fill="none" xmlns="http://www.w3.org/2000/svg">
<path d="M19.1175 0.783316C19.1175 0.783316 28.3522 2.22485 27.6519 15.3525C27.6494 15.4012 28.7197 16.1101 28.8035 16.1858C29.5499 16.8592 30.176 17.7216 30.4498 18.7304C31.4248 22.3228 27.9389 26.0243 25.12 27.0067C24.0671 27.3737 22.9541 27.5518 21.839 27.5842C14.5897 27.7948 4.99203 23.1983 4.49912 14.2214C4.48157 13.8997 4.477 13.5774 4.48541 13.2553C4.52906 11.5508 4.94143 9.89082 5.5629 8.34947C5.56262 8.34954 9.5972 -1.6339 19.1175 0.783385V0.783316Z" fill="#FFE4C0"/>
<g style="mix-blend-mode:multiply" opacity="0.1">
<path d="M27.8858 15.4911C27.7858 15.7355 27.6859 16.0479 27.658 16.2266C27.5389 16.9929 27.8017 17.7842 28.2582 18.3531C28.6918 18.8932 29.3108 19.2435 29.9104 19.3756C30.1128 19.4202 30.3579 19.4431 30.5722 19.4503C30.347 17.231 28.5358 15.8995 27.8858 15.4911ZM14.8684 21.3238C16.5838 20.9556 17.6488 19.1526 17.2472 17.2966C16.8456 15.4406 15.1294 14.2345 13.4141 14.6027C11.6988 14.9708 10.6337 16.7738 11.0353 18.6298C11.4369 20.4859 13.1531 21.692 14.8684 21.3238Z" fill="#DC2400"/>
</g>
<path opacity="0.1" d="M23.2662 16.1324C23.2662 16.1324 24.7311 14.7419 25.8652 16.0493L23.2662 16.1324Z" fill="black"/>
<path d="M9.60719 23.0611C4.73072 25.4993 0.304791 19.3852 1.72247 15.9484C2.62677 13.7561 5.26349 13.5857 6.79138 15.5881C7.69308 16.77 8.42266 18.2807 8.83692 19.7258" fill="#FFE4C0"/>
<path opacity="0.1" d="M5.59062 17.6051C6.21807 18.242 6.72244 19.1866 7.34237 19.7135C7.2278 18.8319 7.04491 17.8903 6.61561 17.0958C6.17976 16.2888 5.38707 15.624 4.57997 15.6788C3.5798 15.7468 2.75625 16.9089 2.65033 17.9627C2.71359 17.3321 3.98507 16.9054 4.47032 16.9651C5.23026 18.394 5.52448 21.2102 5.52448 21.2102C6.15755 19.6159 5.90121 18.3619 5.59062 17.6051Z" fill="black"/>
<path d="M25.4079 18.544C25.6191 18.6653 27.0956 16.8105 28.0787 17.3748C28.4106 17.5653 28.6638 17.8901 28.854 18.2412C29.2718 19.0135 29.4148 19.9517 29.2465 20.8173C29.0083 22.0411 28.1827 23.0431 27.2117 23.7072C24.5987 25.4937 22.5258 25.156 19.7369 24.1218C17.5417 23.3079 14.5507 21.6324 15.1704 18.6096C16.2611 13.2885 25.4051 18.5425 25.4079 18.544Z" fill="#873C41"/>
<path d="M17.8429 18.2038C18.553 18.6448 19.4176 18.6902 20.1931 18.5144C20.3414 18.4806 20.4606 18.6052 20.4975 18.7483C20.8761 20.2199 23.023 20.988 24.0996 20.0444C24.1832 19.9711 24.3314 19.9538 24.4189 20.0368C25 20.5883 25.931 20.7378 26.6147 20.3648C27.5801 19.838 27.5754 18.3578 27.3124 17.327C26.4615 17.587 25.5683 18.6361 25.4077 18.5437C25.4056 18.5423 19.7923 15.3181 16.837 16.4812C16.8997 17.1958 17.2277 17.8218 17.8429 18.2038Z" fill="white"/>
<path d="M25.8942 23.9278C24.3587 22.5184 22.4709 21.7312 20.5567 21.1726C18.9193 20.6947 17.0758 20.385 15.4185 20.8592C16.1865 22.508 18.1626 23.5377 19.7367 24.1215C22.1764 25.0261 24.0682 25.3977 26.2525 24.2809C26.1335 24.1628 26.0175 24.041 25.8942 23.9278Z" fill="#EE7E8B"/>
<mask id="mask0_53_232" style="mask-type:alpha" maskUnits="userSpaceOnUse" x="15" y="16" width="15" height="9">
<path d="M25.4079 18.544C25.619 18.6653 27.0956 16.8105 28.0787 17.3748C28.4106 17.5653 28.6638 17.8901 28.8539 18.2412C29.2718 19.0135 29.4147 19.9517 29.2464 20.8173C29.0082 22.0411 28.1827 23.0431 27.2116 23.7072C24.5986 25.4937 22.5257 25.156 19.7369 24.1218C17.5416 23.3079 14.5506 21.6324 15.1703 18.6096C16.261 13.2885 25.4051 18.5425 25.4079 18.544Z" fill="#873C41"/>
</mask>
<g mask="url(#mask0_53_232)">
<path fill-rule="evenodd" clip-rule="evenodd" d="M16.9679 16.0989C16.9767 16.0882 16.9875 16.0794 16.9997 16.073C17.0119 16.0665 17.0252 16.0625 17.0389 16.0612C17.0527 16.0599 17.0665 16.0613 17.0797 16.0654C17.0929 16.0695 17.1052 16.0761 17.1158 16.0849C17.2758 16.2174 17.5818 16.3966 17.9258 16.5812C18.2354 16.7473 18.568 16.9134 18.8366 17.0476L18.9168 17.0877C19.9986 17.6288 21.6655 18.2024 22.5356 18.5018L22.6861 18.5537C23.6992 18.9031 24.9447 19.283 26.2908 19.2836C26.4845 19.2721 26.624 19.2551 26.7731 19.2131C26.9242 19.1705 27.0894 19.101 27.3325 18.9794C27.3573 18.9678 27.3856 18.9664 27.4115 18.9754C27.4373 18.9845 27.4586 19.0032 27.4708 19.0277C27.4831 19.0522 27.4853 19.0805 27.477 19.1066C27.4687 19.1327 27.4506 19.1545 27.4265 19.1674C27.1793 19.291 27.0001 19.3674 26.8302 19.4154C26.6591 19.4636 26.5017 19.4817 26.3 19.4935C26.298 19.4937 26.2959 19.4938 26.2939 19.4938C24.9096 19.4938 23.635 19.1033 22.6176 18.7524L22.4651 18.6998C21.5972 18.4012 19.9179 17.8234 18.8228 17.2758L18.7426 17.2356C18.4743 17.1015 18.1391 16.934 17.8266 16.7664C17.4848 16.5831 17.1604 16.3946 16.9819 16.2469C16.9713 16.2381 16.9625 16.2273 16.956 16.2151C16.9495 16.2029 16.9456 16.1895 16.9443 16.1758C16.943 16.162 16.9444 16.1482 16.9484 16.135C16.9525 16.1218 16.9591 16.1095 16.9679 16.0989Z" fill="#C4C4C4"/>
<path d="M26.5495 18.937L25.9901 18.906C25.9128 18.9017 25.8468 18.9609 25.8425 19.0382L25.8115 19.5978C25.8072 19.6751 25.8664 19.7412 25.9436 19.7454L26.5031 19.7764C26.5803 19.7807 26.6464 19.7216 26.6507 19.6443L26.6816 19.0847C26.6859 19.0074 26.6268 18.9413 26.5495 18.937Z" fill="#A09E9E"/>
<path d="M22.9859 18.3089L22.4447 18.1638C22.37 18.1438 22.2932 18.1882 22.2731 18.2629L22.1281 18.8043C22.1081 18.8791 22.1524 18.9559 22.2272 18.9759L22.7684 19.121C22.8431 19.141 22.9199 19.0966 22.9399 19.0219L23.085 18.4805C23.105 18.4058 23.0606 18.3289 22.9859 18.3089Z" fill="#A09E9E"/>
<path d="M19.3105 16.9673L18.8084 16.7185C18.7391 16.6841 18.655 16.7125 18.6207 16.7818L18.372 17.2841C18.3376 17.3534 18.366 17.4375 18.4353 17.4718L18.9374 17.7206C19.0067 17.755 19.0908 17.7266 19.1251 17.6573L19.3738 17.155C19.4081 17.0857 19.3798 17.0016 19.3105 16.9673Z" fill="#A09E9E"/>
</g>
<path d="M20.9835 13.8874C20.9819 14.7195 20.5473 15.3948 19.645 15.2563C18.9954 15.0824 18.563 14.6245 18.5647 13.7518C18.5665 12.8376 19.0989 12.2443 19.6509 12.2433C20.3886 12.2419 20.9851 13.0554 20.9835 13.8874ZM25.6205 13.3629C26.0168 13.3862 26.5624 13.3448 26.9287 13.0908C27.0598 13.3212 27.1358 13.6091 27.1353 13.8723C27.1343 14.4301 26.8819 15.029 26.2359 14.9602C25.6939 14.9024 25.5555 14.1907 25.5562 13.8403C25.5565 13.6751 25.579 13.5124 25.6205 13.3629Z" fill="#2A1200"/>
<path d="M21.1116 9.51876C20.1486 9.39524 19.1342 9.7878 18.4697 10.537C18.2555 10.7786 18.2073 11.196 18.4483 11.4524C18.671 11.6897 19.0636 11.7514 19.2929 11.4925C19.3611 11.415 19.4337 11.3415 19.5103 11.2724C19.5342 11.2509 19.6011 11.2121 19.6216 11.181C19.6332 11.1728 19.6447 11.1644 19.6566 11.1564C19.7301 11.1067 19.806 11.0606 19.8841 11.0185C19.9286 10.9946 19.9738 10.972 20.0196 10.9507C20.034 10.9441 20.0484 10.9377 20.0631 10.9313C20.1036 10.9229 20.1496 10.8992 20.1864 10.8878C20.3181 10.8472 20.4529 10.8175 20.5895 10.799C20.6016 10.7974 20.6136 10.796 20.6258 10.7946C20.6727 10.7933 20.7195 10.7909 20.7666 10.7911C20.8668 10.7919 20.9668 10.7998 21.0664 10.8123C21.3776 10.8524 21.6884 10.5367 21.6863 10.2017C21.6835 9.83291 21.445 9.56157 21.1116 9.51876ZM27.2391 12.1776C26.7189 12.4601 26.1221 12.5235 25.5849 12.3684C25.4399 12.3265 25.3076 12.2001 25.2455 12.0604C25.1844 11.9228 25.1719 11.7257 25.2322 11.576C25.2948 11.4207 25.4019 11.2729 25.5527 11.1992C25.7055 11.1244 25.8619 11.1052 26.0194 11.1505C26.0452 11.158 26.0716 11.1623 26.0978 11.1685C26.1796 11.1777 26.2617 11.1802 26.3446 11.1767C26.4447 11.1615 26.5433 11.1371 26.6391 11.104C26.6728 11.0885 26.7073 11.0747 26.7404 11.0569C26.8828 10.9797 27.0611 10.9612 27.207 11.0082C27.3467 11.0531 27.49 11.1733 27.5462 11.3164C27.6046 11.4645 27.6241 11.6406 27.5596 11.8007C27.4954 11.9603 27.3898 12.0957 27.2391 12.1776Z" fill="#71472D"/>
<path d="M16.967 0.300006C23.1864 0.468481 26.247 4.89797 26.8424 7.2145C22.9903 6.60609 13.4269 4.79555 12.1344 8.30256C9.26281 16.0945 11.0838 25.3606 12.1344 29.1513C8.26827 29.4321 3.47298 28.0515 1.55862 27.3262C1.17341 26.8699 1.43788 28.6573 0.858244 20.0256C-0.122289 5.42445 8.00213 2.44104 10.6636 1.24768C12.7927 0.292987 15.7764 0.112789 16.967 0.300006ZM28.4883 27.1507C28.2922 26.7857 28.2898 25.501 28.3132 24.9044C26.5762 26.4768 24.7645 27.1975 24.0759 27.3613C25.4206 27.5298 27.5778 27.2911 28.4883 27.1507Z" fill="#E2BA87"/>
<mask id="mask1_53_232" style="mask-type:alpha" maskUnits="userSpaceOnUse" x="0" y="0" width="29" height="30">
<path d="M16.967 0.300006C23.1864 0.468481 25.7218 4.30128 26.212 6.19663C22.3599 5.58822 13.4269 4.79555 12.1344 8.30256C9.26281 16.0945 11.0838 25.3606 12.1344 29.1513C8.26827 29.4321 3.47298 28.0515 1.55862 27.3262C1.17341 26.8699 1.43788 28.6573 0.858244 20.0256C-0.122289 5.42445 8.00213 2.44104 10.6636 1.24768C12.7927 0.292987 15.7764 0.112789 16.967 0.300006ZM28.4883 27.1507C28.2922 26.7857 28.2898 25.501 28.3132 24.9044C26.5762 26.4768 24.7645 27.1975 24.0759 27.3613C25.4206 27.5298 27.5778 27.2911 28.4883 27.1507Z" fill="#2A1200"/>
</mask>
<g mask="url(#mask1_53_232)">
<path d="M19.0003 3.2642C19.0003 3.2642 18.1392 3.0058 17.1436 3.79545C17.1436 3.79545 17.6272 2.89622 18.1435 2.62645C18.1435 2.62645 16.1786 2.5088 14.6454 4.40442C14.6454 4.40442 15.3861 2.54846 16.5449 1.96041C16.5449 1.96041 15.0696 2.20758 14.4203 2.80433C14.4203 2.80433 14.5238 1.70833 15.2889 1.24123C15.2889 1.24123 14.0045 0.574986 12.8593 0.845669C12.8593 0.845669 15.0561 0.160468 15.7915 0.226805C17.1693 -0.0249952 19.0386 0.669613 19.0386 0.669613C18.5827 0.694252 18.0847 1.08904 18.0847 1.08904C19.2892 1.05395 20.5926 1.60458 20.5926 1.60458C19.986 1.59096 19.5413 2.01931 19.5413 2.01931C20.8897 2.30115 21.8432 3.18424 21.8432 3.18424C21.5138 2.92044 20.4536 3.03219 20.4536 3.03219C21.1225 3.38234 21.7679 4.2271 21.7679 4.2271L20.5426 3.79622C20.5426 3.79622 19.9336 5.80578 19.6746 6.18106C19.6746 6.18106 19.9998 4.46009 19.7529 3.93669C19.7529 3.93669 18.4975 5.34163 17.3946 6.30446C17.3948 6.30362 18.2471 3.89478 19.0003 3.2642Z" fill="black" fill-opacity="0.15"/>
<path d="M17.8607 12.017C23.0539 12.0994 26.7128 11.3299 27.8931 10.9349C27.7245 8.25534 25.9424 3.06224 19.8387 2.89735C13.735 2.73245 10.4981 8.11796 9.68317 10.9349C11.4367 11.883 15.3176 11.9654 17.0599 12.017L17.5657 9.74971L17.8607 12.017Z" fill="#E2BA87"/>
<path d="M11.2938 5.07345C9.89309 9.1683 7.69389 19.3938 10.1032 27.5368C8.16546 23.0207 5.6908 12.2056 11.2938 5.07345ZM5.34061 14.1992C5.34061 10.1558 8.14213 5.68186 9.5429 3.95029C2.2029 7.31978 2.79592 16.3519 4.00989 20.4468C2.94531 14.2132 4.73359 10.1745 5.76084 8.93434C5.20053 10.6752 5.24725 13.1696 5.34061 14.1992ZM22.0797 4.51187C23.2937 5.12027 25.7497 7.12323 25.8618 10.2681C26.0952 8.53652 25.6657 4.96114 22.0797 4.51187ZM17.6673 5.07345C17.2471 5.79881 16.4206 7.65673 16.4767 9.28532C16.1032 8.48977 15.8183 6.53357 17.6673 5.07345Z" fill="black" fill-opacity="0.15"/>
</g>
<path fill-rule="evenodd" clip-rule="evenodd" d="M8.57374 14.5913C10.1598 15.2368 11.7568 16.1663 12.7442 16.8261L12.5499 17.1181C11.5763 16.4676 10.0006 15.5508 8.44193 14.9164C7.66247 14.5992 6.89367 14.3552 6.21038 14.2485C5.52288 14.1413 4.94647 14.1768 4.53282 14.3904L4.37244 14.0784C4.88329 13.8146 5.54831 13.79 6.26423 13.9017C6.9843 14.0141 7.78084 14.2686 8.57374 14.5913ZM12.5692 23.1774C12.7792 23.1209 12.9897 23.0665 13.2008 23.0142L13.284 23.3551C13.076 23.406 12.8781 23.4587 12.6873 23.5094C12.173 23.6463 11.7098 23.7695 11.2375 23.8097C10.5737 23.8661 9.88716 23.762 8.96784 23.3445L9.1124 23.0248C9.98606 23.4216 10.6128 23.5105 11.2079 23.4599C11.6474 23.4225 12.0677 23.3108 12.5692 23.1774Z" fill="white"/>
<path d="M24.5187 15.0768C19.5881 15.0487 14.55 16.1649 12.6473 16.7264C13.6278 18.4112 13.978 20.9032 12.9975 23.4303C16.2121 25.2555 23.771 28.1055 28.2901 24.9045C29.1005 24.075 30.0277 22.7399 30.472 20.9032C31.1443 18.1234 28.8611 16.0713 27.6354 15.3927C26.9631 15.2804 25.6393 15.0832 24.5187 15.0768Z" fill="#F7F7F7"/>
<path d="M12.262 17.0072C12.4301 16.7264 13.1725 16.5041 13.5927 16.4807C13.8029 16.6913 14.2371 17.6811 14.2931 19.9555C14.3632 22.7985 13.8029 23.6058 13.7328 23.7813C13.6808 23.9116 12.7523 23.4303 12.5422 23.325C12.3321 23.2197 12.3321 23.0091 12.5422 22.5528C12.9943 21.5711 12.7523 18.727 12.5422 18.0953C12.3741 17.5898 12.3321 17.1944 12.262 17.0072Z" fill="#EDEDED"/>
<path d="M26.0944 17.3933C23.6291 17.0563 18.6704 18.6568 16.4992 19.4992C24.5116 17.4775 29.2228 18.6568 30.5769 19.4992C30.1099 18.9376 28.5598 17.7302 26.0944 17.3933ZM19.3007 21.535C21.1217 22.4007 25.7022 23.7251 29.4563 22.0965C27.7053 23.5005 23.2229 25.3537 19.3007 21.535Z" fill="#EDEDED"/>
</svg>
