<svg width="34" height="37" viewBox="0 0 34 37" fill="none" xmlns="http://www.w3.org/2000/svg">
<path d="M20.7981 6.22781C20.7981 6.22781 31.271 7.86263 30.4769 22.7505C30.474 22.8057 31.6878 23.6097 31.7829 23.6956C32.6293 24.4593 33.3394 25.4373 33.6499 26.5814C34.7557 30.6555 30.8023 34.8532 27.6055 35.9674C26.4113 36.3836 25.1492 36.5856 23.8845 36.6223C15.6632 36.8612 4.77859 31.6483 4.21958 21.4678C4.19968 21.1029 4.1945 20.7374 4.20404 20.3721C4.25354 18.4391 4.7212 16.5565 5.426 14.8085C5.42568 14.8086 10.0012 3.48648 20.7981 6.22789V6.22781Z" fill="#8C5A2B"/>
<g style="mix-blend-mode:multiply" opacity="0.1">
<path d="M30.742 22.9077C30.6286 23.1849 30.5153 23.5392 30.4837 23.7418C30.3487 24.6108 30.6467 25.5083 31.1644 26.1534C31.6561 26.766 32.3582 27.1632 33.0381 27.313C33.2677 27.3636 33.5456 27.3896 33.7887 27.3977C33.5333 24.8809 31.4792 23.3708 30.742 22.9077ZM15.9792 29.5225C17.9246 29.105 19.1324 27.0602 18.6769 24.9553C18.2215 22.8504 16.2752 21.4826 14.3299 21.9002C12.3846 22.3176 11.1767 24.3624 11.6322 26.4673C12.0876 28.5722 14.0339 29.94 15.9792 29.5225Z" fill="#DC2400"/>
</g>
<path opacity="0.1" d="M25.5031 23.635C25.5031 23.635 27.1644 22.0581 28.4505 23.5407L25.5031 23.635Z" fill="black"/>
<path d="M10.0124 31.4928C4.48207 34.2578 -0.537318 27.324 1.07045 23.4263C2.09601 20.9401 5.08628 20.7468 6.81903 23.0178C7.84164 24.3581 8.66904 26.0713 9.13886 27.7102" fill="#8C5A2B"/>
<path opacity="0.1" d="M5.45741 25.3051C6.16898 26.0275 6.74099 27.0987 7.44404 27.6963C7.31411 26.6964 7.1067 25.6286 6.61983 24.7275C6.12554 23.8123 5.22656 23.0584 4.31124 23.1206C3.17696 23.1976 2.24299 24.5156 2.12286 25.7107C2.1946 24.9955 3.63657 24.5116 4.1869 24.5793C5.04873 26.1998 5.3824 29.3937 5.3824 29.3937C6.10035 27.5856 5.80965 26.1635 5.45741 25.3051Z" fill="black"/>
<path d="M27.932 26.37C28.1715 26.5075 29.846 24.404 30.9609 25.044C31.3373 25.26 31.6245 25.6284 31.8401 26.0266C32.314 26.9024 32.4761 27.9665 32.2852 28.9481C32.0151 30.336 31.0789 31.4723 29.9776 32.2254C27.0142 34.2516 24.6634 33.8686 21.5006 32.6957C19.011 31.7726 15.619 29.8725 16.3217 26.4444C17.5587 20.4097 27.9289 26.3682 27.932 26.37Z" fill="#873C41"/>
<path d="M22.0181 26.3364C21.1387 26.5358 20.1581 26.4842 19.3528 25.9842C18.6551 25.551 18.2831 24.841 18.212 24.0306C20.3006 23.2085 23.5598 24.3188 25.7201 25.2726L24.6876 28.3608C23.6671 28.1932 22.6245 27.6166 22.3634 26.6017C22.3215 26.4393 22.1863 26.2981 22.0181 26.3364ZM30.0921 24.9898C30.3903 26.1588 29.6347 27.7633 28.5399 28.3608C27.4329 29.0557 26.0508 28.9148 25.5613 28.5041L26.4485 25.6066C27.3508 26.0357 27.9313 26.3691 27.932 26.3696C28.114 26.4744 29.1271 25.2846 30.0921 24.9898Z" fill="white"/>
<path d="M28.4836 32.4756C26.7423 30.8772 24.6013 29.9845 22.4304 29.351C20.5735 28.809 18.4828 28.4578 16.6033 28.9956C17.4742 30.8655 19.7153 32.0332 21.5006 32.6953C24.2673 33.7212 26.4127 34.1426 28.89 32.8761C28.755 32.7422 28.6234 32.604 28.4836 32.4756Z" fill="#EE7E8B"/>
<path d="M22.9939 21.089C22.992 22.0326 22.4992 22.7985 21.4758 22.6415C20.7392 22.4442 20.2488 21.9249 20.2507 20.9353C20.2528 19.8984 20.8565 19.2256 21.4825 19.2244C22.3192 19.2228 22.9957 20.1454 22.9939 21.089ZM29.9705 21.072C29.9693 21.7045 29.6831 22.3837 28.9505 22.3056C28.3358 22.2402 28.1789 21.433 28.1797 21.0356C28.181 20.3406 28.5291 19.684 29.0371 19.683C29.5833 19.682 29.9718 20.4395 29.9705 21.072Z" fill="#2A1200"/>
<path d="M23.4521 16.6175C22.4654 16.1287 21.2328 16.1741 20.2433 16.7315C19.9243 16.9112 19.7182 17.3408 19.8818 17.7049C20.0328 18.0417 20.4309 18.2532 20.7724 18.0604C20.8742 18.0026 20.9792 17.9506 21.087 17.9049C21.1205 17.8908 21.2066 17.8739 21.2399 17.8482C21.2556 17.8436 21.2708 17.839 21.2866 17.8348C21.3838 17.8085 21.4822 17.7873 21.5815 17.771C21.638 17.7619 21.6948 17.7544 21.7518 17.7485C21.7697 17.7467 21.7876 17.7453 21.8057 17.7439C21.8523 17.7497 21.9103 17.7415 21.9539 17.7429C22.1101 17.7481 22.2656 17.7661 22.4188 17.7968C22.4325 17.7996 22.4458 17.8025 22.4594 17.8056C22.5103 17.8215 22.5613 17.8362 22.6117 17.854C22.7187 17.8923 22.8235 17.9369 22.9253 17.9876C23.2441 18.1457 23.6939 17.9223 23.8157 17.5624C23.9491 17.166 23.7937 16.7868 23.4521 16.6175ZM30.3293 16.9611C29.7393 16.6407 29.0624 16.5687 28.4532 16.7447C28.2888 16.7922 28.1388 16.9355 28.0684 17.0939C27.999 17.25 27.9849 17.4735 28.0532 17.6432C28.1243 17.8194 28.2457 17.987 28.4167 18.0706C28.5901 18.1554 28.7674 18.1772 28.946 18.1259C28.9752 18.1174 29.0052 18.1124 29.035 18.1055C29.1279 18.095 29.2214 18.0919 29.3148 18.0962C29.4277 18.1132 29.5389 18.1407 29.6488 18.1786C29.6871 18.1961 29.7262 18.2118 29.7636 18.2319C29.9252 18.3196 30.1274 18.3405 30.2929 18.2872C30.4513 18.2362 30.6138 18.1001 30.6776 17.9377C30.7437 17.7697 30.7659 17.5699 30.6927 17.3885C30.6199 17.2075 30.5002 17.0538 30.3293 16.9611Z" fill="#71472D"/>
<path d="M26.7688 14.1263C27.4273 14.7882 28.3276 15.1959 29.3204 15.1959C29.4326 15.1959 29.5437 15.1908 29.6533 15.1805C30.0538 16.5518 30.3258 18.1296 30.4127 19.9444C31.642 19.3897 32.4978 18.1512 32.4978 16.7124C32.4978 15.812 32.1627 14.9901 31.6106 14.3651C32.4422 13.6752 32.9743 12.6178 32.9743 11.4324C32.9743 9.58985 31.6887 8.05647 29.991 7.73214C30.0092 7.57075 30.0183 7.40846 30.0183 7.24604C30.0183 4.95732 28.217 3.102 25.9949 3.102C25.4096 3.1014 24.8315 3.23224 24.3033 3.48492C23.7045 1.97065 22.261 0.903076 20.5755 0.903076C19.1792 0.903076 17.949 1.63573 17.2275 2.74813C16.5479 2.22684 15.7027 1.91795 14.7867 1.91795C13.1224 1.91795 11.6918 2.93776 11.0632 4.39781C10.5448 4.15647 9.98001 4.03172 9.40841 4.03232C7.21044 4.03232 5.42416 5.8476 5.38563 8.10193C3.27464 8.25199 1.60782 10.0455 1.60782 12.2359C1.60782 13.2889 1.99305 14.2502 2.62769 14.9813C1.84778 15.7364 1.36151 16.8037 1.36151 17.9868C1.36151 20.2756 3.18123 22.131 5.42598 22.131C5.57488 22.131 5.72367 22.1228 5.87166 22.1063C7.78924 23.2551 8.75645 25.5771 9.02643 26.8229C9.02643 26.8229 9.9266 26.876 10.1384 26.7035C11.0184 26.2416 12.4403 24.6465 12.5077 21.5713C13.2796 20.817 13.7603 19.7551 13.7603 18.5789C13.7608 18.1555 13.6975 17.7345 13.5726 17.3301C14.8094 16.9817 15.8098 16.052 16.273 14.8475C16.787 15.0778 17.3439 15.1966 17.9069 15.1959C19.2263 15.1959 20.3988 14.555 21.1414 13.5619C21.8075 14.5488 22.9238 15.1959 24.1884 15.1959C25.1923 15.1959 26.1028 14.7882 26.7688 14.1263Z" fill="#605DE4"/>
</svg>
