<svg width="30" height="31" viewBox="0 0 30 31" fill="none" xmlns="http://www.w3.org/2000/svg">
<path d="M18.4623 0.601242C18.4623 0.601242 27.608 2.02889 26.9145 15.0301C26.912 15.0782 27.972 15.7803 28.055 15.8553C28.7941 16.5222 29.4142 17.3763 29.6854 18.3754C30.651 21.9332 27.1987 25.599 24.407 26.572C23.3642 26.9354 22.262 27.1118 21.1575 27.1438C13.9781 27.3524 4.47295 22.8002 3.98478 13.9099C3.96741 13.5912 3.96288 13.272 3.97121 12.953C4.01444 11.265 4.42283 9.62098 5.03832 8.09448C5.03804 8.09455 9.03374 -1.79268 18.4623 0.601312V0.601242Z" fill="#E2BA87"/>
<g style="mix-blend-mode:multiply" opacity="0.1">
<path d="M27.146 15.1673C27.0469 15.4093 26.948 15.7188 26.9204 15.8957C26.8024 16.6546 27.0627 17.4383 27.5148 18.0017C27.9442 18.5366 28.5573 18.8835 29.151 19.0143C29.3515 19.0585 29.5942 19.0812 29.8065 19.0883C29.5835 16.8904 27.7897 15.5717 27.146 15.1673ZM14.254 20.9438C15.9529 20.5792 17.0076 18.7935 16.6099 16.9554C16.2121 15.1173 14.5125 13.9228 12.8137 14.2874C11.1149 14.652 10.0601 16.4377 10.4579 18.2758C10.8556 20.1139 12.5552 21.3084 14.254 20.9438Z" fill="#DC2400"/>
</g>
<path opacity="0.1" d="M22.5711 15.8024C22.5711 15.8024 24.0219 14.4253 25.145 15.7201L22.5711 15.8024Z" fill="black"/>
<path d="M9.04361 22.6644C4.21413 25.079 -0.169151 19.0239 1.23486 15.6202C2.13045 13.4491 4.74177 13.2803 6.25493 15.2634C7.14794 16.4339 7.87049 17.93 8.28076 19.3612" fill="#E2BA87"/>
<path opacity="0.1" d="M5.06576 17.2609C5.68716 17.8917 6.18668 18.8272 6.80063 19.349C6.68717 18.4758 6.50604 17.5434 6.08087 16.7565C5.64923 15.9573 4.86418 15.2989 4.06486 15.3532C3.07432 15.4205 2.25871 16.5714 2.15381 17.615C2.21646 16.9905 3.47568 16.5679 3.95627 16.627C4.70888 18.0422 5.00026 20.8313 5.00026 20.8313C5.62723 19.2524 5.37337 18.0105 5.06576 17.2609Z" fill="black"/>
<path d="M19.0046 17.8692C20.922 16.733 22.5618 16.6608 23.7172 16.5895C26.0281 16.4471 27.9571 17.204 28.4683 19.5524C28.9397 21.7181 27.2996 22.982 26.5402 22.9592C25.7807 22.9363 25.6215 22.1049 23.8134 22.0642C22.0054 22.0235 19.4198 25.0429 17.8818 23.9093C16.3437 22.7758 16.6077 19.2895 19.0046 17.8692Z" fill="#873C41"/>
<mask id="mask0_53_404" style="mask-type:alpha" maskUnits="userSpaceOnUse" x="16" y="16" width="13" height="9">
<path d="M19.0074 17.8671C20.9274 16.7327 22.5693 16.6605 23.7262 16.5893C26.0401 16.4469 27.9716 17.2025 28.4833 19.5468C28.9552 21.7088 27.3129 22.9707 26.5525 22.9478C25.792 22.925 25.6327 22.0951 23.8223 22.0546C22.012 22.014 19.4228 25.0283 17.8828 23.8968C16.3428 22.7654 16.6074 19.285 19.0074 17.8671Z" fill="#873C41"/>
</mask>
<g mask="url(#mask0_53_404)">
<path d="M27.2734 22.4491C25.4611 21.2855 23.3999 20.8176 21.3523 20.5872C19.6009 20.3901 17.6692 20.4006 16.0656 21.1763C17.1388 22.7192 16.8911 24.4723 18.5969 24.7885C21.2406 25.2784 25.6738 24.2684 27.7006 22.7453C27.5586 22.6462 27.4189 22.5426 27.2734 22.4491Z" fill="#EE7E8B"/>
<path d="M18.1561 18.8836C19.0052 19.0419 19.8548 18.7614 20.5357 18.3013C20.6658 18.2132 20.8273 18.2884 20.9166 18.4124C21.8327 19.6874 24.1878 19.622 24.871 18.3096C24.924 18.2077 25.0602 18.1354 25.1756 18.1826C25.9418 18.4957 26.8944 18.2906 27.413 17.675C28.1452 16.8056 27.5859 15.382 26.9464 14.488C26.2244 15.0575 25.7574 16.4027 25.5682 16.3739C25.5657 16.3735 18.9519 15.3737 16.542 17.602C16.8701 18.2667 17.4206 18.7465 18.1561 18.8836Z" fill="white"/>
</g>
<path d="M20.3104 13.579C20.3088 14.4031 19.8784 15.0719 18.9847 14.9348C18.3415 14.7625 17.9132 14.309 17.9149 13.4448C17.9167 12.5393 18.4439 11.9518 18.9906 11.9507C19.7212 11.9494 20.312 12.755 20.3104 13.579ZM24.9027 13.0595C25.2951 13.0826 25.8355 13.0416 26.1982 12.7901C26.3281 13.0183 26.4034 13.3034 26.4029 13.5641C26.4019 14.1165 26.1519 14.7096 25.5122 14.6415C24.9754 14.5842 24.8383 13.8794 24.839 13.5324C24.8393 13.3688 24.8616 13.2077 24.9027 13.0595Z" fill="#2A1200"/>
<path d="M20.4372 9.25249C19.4834 9.13016 18.4788 9.51893 17.8207 10.2609C17.6085 10.5002 17.5608 10.9135 17.7996 11.1675C18.0201 11.4026 18.4089 11.4636 18.636 11.2072C18.7035 11.1305 18.7754 11.0577 18.8513 10.9892C18.875 10.968 18.9412 10.9295 18.9615 10.8987C18.9731 10.8906 18.9844 10.8823 18.9962 10.8744C19.069 10.8251 19.1441 10.7795 19.2215 10.7378C19.2655 10.7141 19.3103 10.6917 19.3557 10.6707C19.37 10.6641 19.3842 10.6578 19.3988 10.6514C19.4389 10.6431 19.4845 10.6197 19.5209 10.6084C19.6513 10.5681 19.7848 10.5387 19.9201 10.5204C19.9321 10.5188 19.9439 10.5175 19.956 10.5161C20.0025 10.5148 20.0489 10.5123 20.0955 10.5126C20.1948 10.5134 20.2937 10.5211 20.3924 10.5336C20.7006 10.5733 21.0084 10.2607 21.0063 9.92887C21.0036 9.56362 20.7673 9.29489 20.4372 9.25249ZM26.5056 11.8857C25.9904 12.1655 25.3993 12.2283 24.8673 12.0746C24.7238 12.0331 24.5927 11.908 24.5313 11.7696C24.4707 11.6333 24.4584 11.4381 24.5181 11.2899C24.5801 11.1361 24.6861 10.9898 24.8354 10.9168C24.9868 10.8427 25.1417 10.8237 25.2977 10.8685C25.3232 10.8759 25.3493 10.8802 25.3753 10.8863C25.4563 10.8955 25.5376 10.8979 25.6197 10.8944C25.7189 10.8794 25.8166 10.8553 25.9114 10.8225C25.9448 10.8072 25.9789 10.7935 26.0117 10.7758C26.1528 10.6993 26.3294 10.6811 26.4739 10.7276C26.6122 10.772 26.7541 10.891 26.8098 11.0328C26.8676 11.1795 26.8869 11.3539 26.823 11.5125C26.7594 11.6705 26.6549 11.8046 26.5056 11.8857Z" fill="#71472D"/>
<path d="M21.6736 4.50245C19.4193 7.63091 14.3211 14.0616 7.31546 16.3558C6.8415 15.5447 5.99756 14.6943 4.47157 14.7221C2.56409 14.7569 1.87045 16.1473 1.87045 16.1473C1.87045 16.1473 -0.349167 19.8667 4.78371 22.2304C6.20565 22.5085 6.65651 22.5085 7.801 22.0218C8.57558 22.6244 11.0333 24.6776 11.8934 25.0113C11.6738 26.1815 11.2859 29.0991 11.8131 30.4339C10.8073 30.5266 8.35591 31.0388 6.41374 29.982C6.21821 28.7916 6.04619 27.2327 6.35235 26.6384C5.98688 27.237 5.32765 28.6034 5.32765 29.3911C4.21784 29.0087 1.74851 27.9451 0.749684 26.7493C-0.799334 19.4495 -1.35493 1.75635 14.3211 0.261642C15.6968 0.0994491 19.2043 0.240786 21.5349 1.82587C24.4482 3.80723 25.9048 6.44905 26.4597 9.09086C25.2689 8.53469 22.6447 6.83837 21.6736 4.50245ZM27.3961 29.3911C26.9244 28.7237 27.1996 25.6949 27.3961 24.6637C25.4539 26.2974 24.3094 27.0969 20.3211 27.2012C21.0147 28.244 23.7198 28.6264 24.032 28.7654L24.5869 28.383V28.9392C25.336 29.1895 26.7718 29.3447 27.3961 29.3911Z" fill="#E9B729"/>
<mask id="mask1_53_404" style="mask-type:alpha" maskUnits="userSpaceOnUse" x="14" y="0" width="13" height="10">
<path d="M21.3615 1.75632C19.0309 0.171229 15.6969 0.0994135 14.3211 0.261607C14.701 2.3241 15.8729 6.71319 19.1072 7.76992C20.0555 6.53814 21.1875 5.39166 21.6736 4.50241C22.6447 6.83833 25.269 8.53465 26.4597 9.09083C25.9048 6.44901 24.2748 3.73768 21.3615 1.75632Z" fill="#E2BA87"/>
</mask>
<g mask="url(#mask1_53_404)">
<path d="M20.8364 4.14185C20.8364 4.14185 20.2624 3.45992 19.0101 3.57386C19.0101 3.57386 19.8972 3.09104 20.471 3.14784C20.471 3.14784 18.9058 1.98307 16.61 2.72181C16.61 2.72181 18.2274 1.58548 19.506 1.72751C19.506 1.72751 18.1494 1.13109 17.2884 1.27312C17.2884 1.27312 17.9668 0.420789 18.8536 0.449154C18.8536 0.449154 18.1492 -0.800771 17.0534 -1.19836C17.0534 -1.19836 19.2449 -0.573228 19.8187 -0.118836C21.097 0.420789 22.271 2.01179 22.271 2.01179C21.8797 1.78459 21.2535 1.84139 21.2535 1.84139C22.271 2.46653 23.0538 3.63094 23.0538 3.63094C22.5582 3.29015 21.958 3.40374 21.958 3.40374C22.9233 4.36968 23.2363 5.6196 23.2363 5.6196C23.1059 5.22201 22.1667 4.7389 22.1667 4.7389C22.5318 5.3924 22.61 6.44322 22.61 6.44322L21.8273 5.42049C21.8273 5.42049 20.236 6.75565 19.8184 6.92605C19.8184 6.92605 21.0184 5.67612 21.0967 5.10806C21.0967 5.10806 19.2965 5.59089 17.8616 5.79C17.8622 5.78937 19.8711 4.25545 20.8364 4.14185Z" fill="black" fill-opacity="0.15"/>
<path d="M16.8182 7.56136C15.8471 8.78959 12.6842 11.7744 7.80099 13.8878C9.35007 12.9145 13.3223 10.2866 16.8182 7.56136ZM3.91665 13.8878C6.74667 7.88115 12.4946 4.47926 15.0148 3.52911C8.52236 4.64146 4.1941 11.0606 2.84152 14.1311C3.09123 14.0199 3.6623 13.9226 3.91665 13.8878ZM2.46002 21.1528C2.59875 21.3266 3.00106 21.5977 3.22302 21.709C3.13354 23.2332 2.99794 26.1914 3.06751 27.5034C3.08589 27.6888 3.1033 27.8563 3.11897 28.0006C3.0956 27.8876 3.07881 27.7174 3.06751 27.5034C2.93697 26.1868 2.75815 23.9706 2.80684 22.7518C2.55249 23.6787 2.12014 23.9893 2.42534 27.8268C2.10162 25.3472 1.59992 22.6545 2.46002 21.1528ZM25.662 26.0193C25.8562 25.9359 26.1822 25.7064 26.3209 25.6022C26.0712 26.0193 26.1706 28.1165 26.2516 29.113C26.0851 28.9739 25.9741 28.4525 25.9395 28.2092C25.8285 28.5707 25.6157 28.5916 25.662 29.113C25.3568 28.4178 25.6273 27.1316 25.662 26.0193ZM10.0553 25.4631C9.72235 28.4942 9.88188 29.3216 10.1593 30.6077H8.77207C8.27266 28.1605 9.54665 26.9926 10.0553 25.4631Z" fill="black" fill-opacity="0.15"/>
</g>
</svg>
