<svg width="30" height="29" viewBox="0 0 30 29" fill="none" xmlns="http://www.w3.org/2000/svg">
<path d="M18.3435 0.607473C18.3435 0.607473 26.7045 1.91262 26.0705 13.7983C26.0682 13.8423 27.0372 14.4842 27.1131 14.5527C27.7889 15.1624 28.3557 15.9433 28.6037 16.8566C29.4864 20.1091 26.3303 23.4604 23.7781 24.3499C22.8248 24.6821 21.8171 24.8434 20.8075 24.8727C14.2441 25.0634 5.55443 20.9017 5.10815 12.7742C5.09227 12.4829 5.08813 12.1911 5.09574 11.8995C5.13526 10.3563 5.50861 8.85331 6.07129 7.45779C6.07103 7.45785 9.7239 -1.58105 18.3435 0.607536V0.607473Z" fill="#F5D7B1"/>
<g style="mix-blend-mode:multiply" opacity="0.1">
<path d="M26.2821 13.9237C26.1915 14.145 26.1011 14.4279 26.0758 14.5896C25.968 15.2834 26.206 15.9999 26.6193 16.5149C27.0118 17.004 27.5723 17.3211 28.1151 17.4407C28.2984 17.4811 28.5203 17.5018 28.7143 17.5083C28.5104 15.499 26.8706 14.2935 26.2821 13.9237ZM14.4963 19.2046C16.0494 18.8713 17.0136 17.2388 16.65 15.5584C16.2864 13.878 14.7326 12.786 13.1796 13.1194C11.6265 13.4527 10.6622 15.0851 11.0258 16.7655C11.3895 18.4459 12.9432 19.5379 14.4963 19.2046Z" fill="#DC2400"/>
</g>
<path opacity="0.1" d="M22.0998 14.5044C22.0998 14.5044 23.4261 13.2454 24.4529 14.4291L22.0998 14.5044Z" fill="black"/>
<path d="M9.73285 20.7776C5.31774 22.985 1.31055 17.4495 2.5941 14.3378C3.41285 12.3529 5.80011 12.1986 7.18344 14.0116C7.99983 15.0816 8.66038 16.4494 9.03545 17.7578" fill="#F5D7B1"/>
<path opacity="0.1" d="M6.09656 15.8378C6.66464 16.4144 7.1213 17.2697 7.68257 17.7467C7.57884 16.9485 7.41326 16.096 7.02457 15.3766C6.62996 14.646 5.91226 14.0441 5.18153 14.0937C4.27598 14.1553 3.53035 15.2075 3.43445 16.1615C3.49172 15.5906 4.64291 15.2042 5.08225 15.2583C5.77029 16.552 6.03667 19.1018 6.03667 19.1018C6.60985 17.6584 6.37777 16.523 6.09656 15.8378Z" fill="black"/>
<path d="M24.0387 16.6878C24.2299 16.7976 25.5667 15.1183 26.4568 15.6292C26.7573 15.8017 26.9866 16.0958 27.1587 16.4137C27.537 17.1129 27.6665 17.9624 27.5141 18.746C27.2984 19.8541 26.551 20.7612 25.6718 21.3625C23.306 22.98 21.4292 22.6743 18.9042 21.7379C16.9167 21.001 14.2087 19.4841 14.7697 16.7472C15.7572 11.9295 24.0362 16.6864 24.0387 16.6878Z" fill="#873C41"/>
<path d="M19.3173 16.661C18.6152 16.8202 17.8324 16.7791 17.1895 16.3798C16.6325 16.034 16.3355 15.4672 16.2787 14.8202C17.9462 14.1639 20.5481 15.0503 22.2728 15.8118L21.4485 18.2772C20.6338 18.1434 19.8015 17.6831 19.593 16.8728C19.5595 16.7432 19.4516 16.6304 19.3173 16.661ZM25.7631 15.5859C26.0012 16.5192 25.398 17.8002 24.5239 18.2772C23.6402 18.832 22.5368 18.7195 22.146 18.3916L22.8543 16.0784C23.5747 16.421 24.0381 16.6871 24.0386 16.6875C24.184 16.7712 24.9927 15.8213 25.7631 15.5859Z" fill="white"/>
<path d="M24.4791 21.5622C23.089 20.2862 21.3797 19.5734 19.6466 19.0677C18.1641 18.635 16.495 18.3547 14.9946 18.784C15.6899 20.2768 17.479 21.2091 18.9043 21.7376C21.113 22.5566 22.8259 22.8931 24.8035 21.8819C24.6958 21.7751 24.5907 21.6648 24.4791 21.5622Z" fill="#EE7E8B"/>
<path d="M24.2698 12.0782C24.5456 11.9827 24.987 11.8007 25.3419 11.5653C25.54 11.7866 25.6615 12.1422 25.661 12.4586C25.66 12.9636 25.4315 13.5058 24.847 13.4435C24.3563 13.3912 24.2311 12.7468 24.2317 12.4295C24.2319 12.3093 24.2451 12.1905 24.2698 12.0782ZM18.1981 11.3701C18.0209 11.6073 17.9046 11.9433 17.9039 12.3493C17.9024 13.1393 18.2937 13.5539 18.8816 13.7114C19.6983 13.8368 20.0916 13.2254 20.093 12.4721C20.0931 12.336 20.0762 12.2003 20.0429 12.0684C19.6256 12.0721 18.9292 11.9286 18.1981 11.3701Z" fill="#2A1200"/>
<path d="M20.1544 10.5583C19.2893 10.7145 18.354 10.4065 17.7185 9.75975C17.5136 9.55124 17.4507 9.17617 17.6568 8.93309C17.8472 8.70816 18.1993 8.63426 18.4186 8.85774C18.4839 8.92468 18.5529 8.9878 18.6254 9.04676C18.648 9.06497 18.7103 9.097 18.7302 9.12415C18.7411 9.13113 18.7519 9.13811 18.763 9.14483C18.8317 9.18643 18.9025 9.22454 18.9751 9.25901C19.0165 9.27867 19.0584 9.29682 19.1007 9.31401C19.1141 9.31934 19.1274 9.32447 19.141 9.32955C19.1781 9.33532 19.2207 9.35454 19.2545 9.36317C19.3755 9.39381 19.4987 9.41443 19.623 9.42482C19.6341 9.42577 19.645 9.42641 19.656 9.42704C19.6985 9.42609 19.741 9.42616 19.7836 9.42374C19.8742 9.41802 19.9644 9.40698 20.0537 9.3907C20.3332 9.34008 20.6288 9.61106 20.6424 9.91414C20.657 10.2477 20.4538 10.5041 20.1544 10.5583ZM25.8344 9.9947C25.4611 10.3794 24.9625 10.5955 24.4564 10.6065C24.3198 10.6095 24.1713 10.536 24.08 10.4321C23.99 10.3297 23.926 10.1627 23.9377 10.0171C23.9499 9.86593 24.0025 9.70932 24.1129 9.60484C24.2248 9.49898 24.3547 9.44011 24.503 9.43668C24.5273 9.43618 24.5513 9.43275 24.5757 9.43104C24.6489 9.41681 24.721 9.39689 24.7911 9.37148C24.8736 9.33122 24.9522 9.28356 25.026 9.22907C25.051 9.20655 25.0771 9.18537 25.1008 9.16101C25.2031 9.05577 25.3521 8.99164 25.4909 8.99278C25.6238 8.99393 25.78 9.05901 25.8672 9.16748C25.9577 9.27975 26.0221 9.42666 26.0096 9.58245C25.9972 9.73767 25.9426 9.88325 25.8344 9.9947Z" fill="#71472D"/>
<path d="M8.15297 15.0103C14.5576 12.9129 19.2183 7.03397 21.2792 4.17393C22.167 6.30943 24.566 7.86021 25.6546 8.36866C25.1473 5.95351 23.8157 3.53837 21.1524 1.72701C19.0217 0.277926 15.8152 0.148716 14.5576 0.296993C0.226503 1.66346 0.734368 17.8386 2.15054 24.512C3.92277 25.7831 8.42666 28.2364 12.2647 27.8805C11.7828 26.6602 12.1373 23.9929 12.3381 22.9231C11.5518 22.618 9.30497 20.741 8.59685 20.1902C7.55056 20.635 7.13838 20.635 5.83844 20.3808C1.14597 18.2199 3.17515 14.8196 3.17515 14.8196C3.17515 14.8196 3.80927 13.5485 5.55309 13.5167C6.94815 13.4913 7.71968 14.2688 8.15297 15.0103ZM26.5107 26.9271C26.0795 26.317 26.331 23.548 26.5107 22.6053C24.7351 24.0989 23.6889 24.8298 20.0427 24.9251C21.2158 25.5924 24.1518 26.9271 26.5107 26.9271Z" fill="#220F01"/>
<path fill-rule="evenodd" clip-rule="evenodd" d="M15.3624 0.930664C14.2244 2.16849 12.2523 4.11243 10.0091 5.94978C7.82118 7.74188 5.31065 9.48688 3.03188 10.3404C2.94913 10.4259 2.77976 10.6479 2.58515 11.124C2.35262 11.6929 2.1178 12.5419 1.94723 13.7409C1.60626 16.1379 1.50607 18.4279 2.16048 23.94C2.21222 24.3757 1.87513 24.6293 1.36783 24.512C0.955657 24.4167 0.690343 24.0579 0.638599 23.6222C-0.0259565 18.0247 0.0112662 16.0934 0.377849 13.5166C0.561109 12.2287 0.822556 11.2448 1.11818 10.5216C1.40176 9.82793 1.75693 9.27403 2.19472 8.97989L2.27564 8.92555L2.36727 8.89244C4.41775 8.15163 6.8111 6.51727 9.00597 4.71945C10.9057 3.16346 12.6064 1.52708 13.735 0.345881C13.8424 0.23345 14.6209 0.0110025 15.5561 0.23345C15.5813 0.356734 15.5769 0.48426 15.5432 0.605494C15.5095 0.726727 15.4475 0.838186 15.3624 0.930664ZM12.0444 0.95221C10.4864 2.5244 6.93 5.96688 3.40995 7.47888C3.25567 7.54517 4.20259 7.36772 3.27019 7.54244C3.49644 6.61445 4.08274 5.51245 4.4674 5.1273C6.45308 3.98347 7.93621 2.56476 9.41276 1.25035C9.96032 1.00769 11.2947 0.53458 12.2516 0.58301C12.2173 0.722662 12.1457 0.850299 12.0444 0.95221ZM4.80881 12.2307C11.9745 8.40153 17.0607 2.87301 18.5207 0.58301C18.0388 0.176249 17.156 0.191884 16.7748 0.282325C15.4763 2.31905 10.9677 7.17241 3.91451 10.9076L3.86968 10.9313L3.82827 10.9606C3.59562 11.1249 3.46036 11.3688 3.37995 11.5418C3.28731 11.7411 3.20601 11.9849 3.13347 12.2678C2.98781 12.8355 2.85782 13.6391 2.7627 14.7307C2.57228 16.9177 2.4828 19.5662 2.76289 24.7345C2.78661 25.1725 3.30189 25.5289 3.55554 25.6242H3.5648C3.68579 25.6246 4.28769 25.6263 4.34819 25.3065C4.2187 22.9169 4.19302 21.0311 4.18826 19.3639C4.17304 19.338 4.12555 19.2968 4.05675 19.2371C3.70405 18.9309 2.7894 18.137 2.7627 16.4086C2.92098 15.0614 3.27634 14.6364 3.40995 14.4766C3.43709 14.4442 3.45509 14.4226 3.46042 14.4065C4.09454 13.771 4.4674 13.7392 4.4674 13.7392C4.53151 13.2818 4.60088 12.9284 4.66886 12.6634C4.72301 12.4522 4.77216 12.3137 4.80881 12.2307ZM6.90431 23.7754C6.91325 24.2401 6.91611 24.6225 6.91858 24.9564C6.92372 25.6472 6.92733 26.1302 6.97977 26.7047C7.01966 27.1417 6.53589 27.1496 6.28224 27.1496C5.96519 27.086 5.49778 26.8556 5.45789 26.4187L5.45383 26.3744L5.4454 26.2824C5.374 25.5028 5.34597 25.1972 5.31934 23.8059C5.29524 22.5457 5.31959 21.2119 5.46303 20.1902C5.67717 20.3173 6.28656 20.5397 7.01148 20.5397C6.90622 21.3993 6.88155 22.5868 6.90431 23.7754ZM5.75339 12.6236C12.7972 8.89346 17.9463 2.85007 19.2499 0.805458C19.641 0.857002 20.5055 1.06858 20.8352 1.50248C19.3699 3.80087 14.1149 9.89345 6.85295 13.7392C6.80114 13.7666 6.67914 13.7225 6.52999 13.6685C6.4052 13.6233 6.26138 13.5713 6.12371 13.5485C5.87058 13.5066 5.42619 13.5167 5.42619 13.5167C5.22168 13.1288 5.36639 12.8286 5.75339 12.6236ZM21.3636 4.64763C19.509 7.20368 14.6843 12.4681 8.53336 14.9785C8.18663 15.1622 8.16722 15.1241 8.01998 14.8353L8.01979 14.835C8.00273 14.8015 7.9839 14.7646 7.96266 14.7243C7.88796 14.5826 7.78371 14.4823 7.70032 14.4021C7.55543 14.2626 7.4735 14.1838 7.71915 14.0537C14.7435 10.3338 19.2009 5.14166 20.5161 3.07881C20.6239 2.90925 20.792 2.78713 20.9863 2.73726C21.3349 2.51869 21.798 2.60372 22.0451 2.94146C22.4304 3.46809 23.1257 4.32019 23.936 5.13181C24.2518 5.44813 24.5753 5.7483 24.8964 6.01709C25.1796 6.66028 25.7457 8.04917 25.7457 8.45949C24.72 8.00418 23.6912 7.35368 22.8327 6.49376C22.4732 6.13358 22.1274 5.66479 21.8189 5.24621L21.8188 5.24615C21.6555 5.02471 21.5026 4.81733 21.3636 4.64763ZM9.27147 23.7017C9.25594 22.8368 9.25949 22.0025 9.29265 21.2899C9.30255 21.0769 9.3113 20.943 9.32601 20.7622L8.59677 20.1902C8.39386 20.2919 7.94154 20.4232 7.74071 20.4762C7.72581 20.6372 7.72226 20.7788 7.71846 20.9309C7.71617 21.0203 7.71383 21.1133 7.70907 21.2159C7.67375 21.9753 7.67058 22.8468 7.68643 23.7303C7.71725 25.4425 7.77312 26.1602 7.8591 27.2638L7.86754 27.372C7.90159 27.8095 8.69189 28.0076 8.69189 28.0076C8.69189 28.0076 9.38942 27.9758 9.42113 27.7534C9.33222 26.6108 9.30255 25.4307 9.27147 23.7017ZM10.2863 23.7303C10.297 24.321 10.2999 24.8146 10.3026 25.2536C10.3079 26.1282 10.3119 26.786 10.3723 27.5627C10.4064 28.0002 10.8553 28.2006 11.2918 28.1665C11.7282 28.1324 12.0234 28.0637 11.9893 27.6263C11.703 26.2496 11.7223 25.7801 11.7738 24.5252C11.7818 24.3301 11.7905 24.1159 11.7991 23.8764C11.7958 23.6946 11.814 23.4552 11.8317 23.222C11.8472 23.0188 11.8623 22.8203 11.8625 22.6689C11.6405 22.5418 10.7154 21.8744 10.2772 21.5249C10.2574 22.1433 10.2707 22.8749 10.2834 23.5706V23.5707L10.2863 23.7303ZM25.9424 23.082C26.2742 22.8094 26.5524 22.5325 26.5423 22.6053C26.5322 22.6781 26.5202 22.7606 26.5071 22.8508C26.4292 23.3881 26.3112 24.2024 26.2899 24.9078C26.2639 25.7693 26.4164 26.4941 26.5423 26.8636C26.5965 27.0225 26.0984 26.9907 25.6862 26.9907C25.2424 26.9907 24.8309 26.8318 24.7985 26.7365C24.5692 26.0637 24.6795 25.7133 24.7053 24.8598C24.715 24.537 24.7333 24.2146 24.7563 23.9082C24.7563 23.9082 25.4009 23.5269 25.9424 23.082ZM24.3229 24.1307C24.3229 24.0989 24.0058 24.2896 23.4668 24.4484C22.8961 24.6391 22.5791 24.6709 22.5791 24.6709C22.5791 25.0311 22.5671 24.8666 22.5365 25.4677C22.5271 25.6524 22.5266 25.5395 22.5365 25.7514V26.1327C22.7432 26.5194 22.9278 26.4884 23.3717 26.5838C23.8156 26.6217 24.1961 26.6729 24.1644 26.4187C24.1327 26.1645 24.0928 26.0775 24.1197 25.5488C24.1446 25.062 24.3229 24.4276 24.3229 24.1307Z" fill="#220F00"/>
<mask id="mask0_53_302" style="mask-type:alpha" maskUnits="userSpaceOnUse" x="0" y="0" width="27" height="29">
<path fill-rule="evenodd" clip-rule="evenodd" d="M15.3624 0.930664C14.2244 2.16849 12.2523 4.11243 10.0091 5.94978C7.82118 7.74188 5.31065 9.48688 3.03188 10.3404C2.94913 10.4259 2.77976 10.6479 2.58515 11.124C2.35262 11.6929 2.1178 12.5419 1.94723 13.7409C1.60626 16.1379 1.50607 18.4279 2.16048 23.94C2.21222 24.3757 1.87513 24.6293 1.36783 24.512C0.955657 24.4167 0.690343 24.0579 0.638599 23.6222C-0.0259565 18.0247 0.0112662 16.0934 0.377849 13.5166C0.561109 12.2287 0.822556 11.2448 1.11818 10.5216C1.40176 9.82793 1.75693 9.27403 2.19472 8.97989L2.27564 8.92555L2.36727 8.89244C4.41775 8.15163 6.8111 6.51727 9.00597 4.71945C10.9057 3.16346 12.6064 1.52708 13.735 0.345881C13.8424 0.23345 14.6209 0.0110025 15.5561 0.23345C15.5813 0.356734 15.5769 0.48426 15.5432 0.605494C15.5095 0.726727 15.4475 0.838186 15.3624 0.930664ZM12.0444 0.95221C10.4864 2.5244 6.89994 5.96688 3.37995 7.47888C3.22567 7.54517 3.42307 7.44672 3.27019 7.41533C3.49644 6.48734 4.08274 5.48067 4.4674 5.09552C6.45308 3.95169 7.93621 2.56476 9.41276 1.25035C9.96032 1.00769 11.2947 0.53458 12.2516 0.58301C12.2173 0.722662 12.1457 0.850299 12.0444 0.95221ZM4.80881 12.2307C11.9745 8.40153 17.0607 2.87301 18.5207 0.58301C18.0388 0.176249 17.156 0.191884 16.7748 0.282325C15.4763 2.31905 10.9677 7.17241 3.91451 10.9076L3.86968 10.9313L3.82827 10.9606C3.59562 11.1249 3.46036 11.3688 3.37995 11.5418C3.28731 11.7411 3.20601 11.9849 3.13347 12.2678C2.98781 12.8355 2.85782 13.6391 2.7627 14.7307C2.57228 16.9177 2.4828 19.5662 2.76289 24.7345C2.78661 25.1725 3.30189 25.5289 3.55554 25.6242H3.5648C3.68579 25.6246 4.28769 25.6263 4.34819 25.3065C4.2187 22.9169 4.19302 21.0311 4.18826 19.3639C4.17304 19.338 4.12555 19.2968 4.05675 19.2371C3.70405 18.9309 2.7894 18.137 2.7627 16.4086C2.92098 15.0614 3.27634 14.6364 3.40995 14.4766C3.43709 14.4442 3.45509 14.4226 3.46042 14.4065C4.09454 13.771 4.4674 13.7392 4.4674 13.7392C4.53151 13.2818 4.60088 12.9284 4.66886 12.6634C4.72301 12.4522 4.77216 12.3137 4.80881 12.2307ZM6.90431 23.7754C6.91325 24.2401 6.91611 24.6225 6.91858 24.9564C6.92372 25.6472 6.92733 26.1302 6.97977 26.7047C7.01966 27.1417 6.53589 27.1496 6.28224 27.1496C5.96519 27.086 5.49778 26.8556 5.45789 26.4187L5.45383 26.3744L5.4454 26.2824C5.374 25.5028 5.34597 25.1972 5.31934 23.8059C5.29524 22.5457 5.31959 21.2119 5.46303 20.1902C5.67717 20.3173 6.28656 20.5397 7.01148 20.5397C6.90622 21.3993 6.88155 22.5868 6.90431 23.7754ZM5.75339 12.6236C12.7972 8.89346 17.9463 2.85007 19.2499 0.805458C19.641 0.857002 20.5055 1.06858 20.8352 1.50248C19.3699 3.80087 14.1149 9.89345 6.85295 13.7392C6.80114 13.7666 6.67914 13.7225 6.52999 13.6685C6.4052 13.6233 6.26138 13.5713 6.12371 13.5485C5.87058 13.5066 5.42619 13.5167 5.42619 13.5167C5.22168 13.1288 5.36639 12.8286 5.75339 12.6236ZM21.3636 4.64763C19.509 7.20368 14.6843 12.4681 8.53336 14.9785C8.18663 15.1622 8.16722 15.1241 8.01998 14.8353L8.01979 14.835C8.00273 14.8015 7.9839 14.7646 7.96266 14.7243C7.88796 14.5826 7.78371 14.4823 7.70032 14.4021C7.55543 14.2626 7.4735 14.1838 7.71915 14.0537C14.7435 10.3338 19.2009 5.14166 20.5161 3.07881C20.6239 2.90925 20.792 2.78713 20.9863 2.73726C21.3349 2.51869 21.798 2.60372 22.0451 2.94146C22.4304 3.46809 23.1257 4.32019 23.936 5.13181C24.2518 5.44813 24.5753 5.7483 24.8964 6.01709C25.1796 6.66028 25.7457 8.04917 25.7457 8.45949C24.72 8.00418 23.6912 7.35368 22.8327 6.49376C22.4732 6.13358 22.1274 5.66479 21.8189 5.24621L21.8188 5.24615C21.6555 5.02471 21.5026 4.81733 21.3636 4.64763ZM9.27147 23.7017C9.25594 22.8368 9.25949 22.0025 9.29265 21.2899C9.30255 21.0769 9.3113 20.943 9.32601 20.7622L8.59677 20.1902C8.39386 20.2919 7.94154 20.4232 7.74071 20.4762C7.72581 20.6372 7.72226 20.7788 7.71846 20.9309C7.71617 21.0203 7.71383 21.1133 7.70907 21.2159C7.67375 21.9753 7.67058 22.8468 7.68643 23.7303C7.71725 25.4425 7.77312 26.1602 7.8591 27.2638L7.86754 27.372C7.90159 27.8095 8.69189 28.0076 8.69189 28.0076C8.69189 28.0076 9.38942 27.9758 9.42113 27.7534C9.33222 26.6108 9.30255 25.4307 9.27147 23.7017ZM10.2863 23.7303C10.297 24.321 10.2999 24.8146 10.3026 25.2536C10.3079 26.1282 10.3119 26.786 10.3723 27.5627C10.4064 28.0002 10.8553 28.2006 11.2918 28.1665C11.7282 28.1324 12.0234 28.0637 11.9893 27.6263C11.703 26.2496 11.7223 25.7801 11.7738 24.5252C11.7818 24.3301 11.7905 24.1159 11.7991 23.8764C11.7958 23.6946 11.814 23.4552 11.8317 23.222C11.8472 23.0188 11.8623 22.8203 11.8625 22.6689C11.6405 22.5418 10.7154 21.8744 10.2772 21.5249C10.2574 22.1433 10.2707 22.8749 10.2834 23.5706V23.5707L10.2863 23.7303ZM25.9424 23.082C26.2742 22.8094 26.5524 22.5325 26.5423 22.6053C26.5322 22.6781 26.5202 22.7606 26.5071 22.8508C26.4292 23.3881 26.3112 24.2024 26.2899 24.9078C26.2639 25.7693 26.4164 26.4941 26.5423 26.8636C26.5965 27.0225 26.0984 26.9907 25.6862 26.9907C25.2424 26.9907 24.8309 26.8318 24.7985 26.7365C24.5692 26.0637 24.6795 25.7133 24.7053 24.8598C24.715 24.537 24.7333 24.2146 24.7563 23.9082C24.7563 23.9082 25.4009 23.5269 25.9424 23.082ZM24.3229 24.1307C24.3229 24.0989 24.0058 24.2896 23.4668 24.4484C22.8961 24.6391 22.5791 24.6709 22.5791 24.6709C22.5791 25.0311 22.5671 24.8666 22.5365 25.4677C22.5271 25.6524 22.5266 25.5395 22.5365 25.7514V26.1327C22.7432 26.5194 22.9278 26.4884 23.3717 26.5838C23.8156 26.6217 24.1961 26.6729 24.1644 26.4187C24.1327 26.1645 24.0928 26.0775 24.1197 25.5488C24.1446 25.062 24.3229 24.4276 24.3229 24.1307Z" fill="black"/>
</mask>
<g mask="url(#mask0_53_302)">
<path d="M9.79072 0.482725C9.85312 0.0638244 9.97918 -0.329907 10.0801 -0.543457L10.4812 -0.353042C10.4014 -0.184236 10.2866 0.166595 10.2297 0.548442C10.1808 0.876838 10.1804 1.19138 10.2535 1.42558C10.3289 1.42622 10.4051 1.42762 10.4803 1.42908H10.4813C10.6092 1.4315 10.7349 1.43391 10.8571 1.43264C11.1056 1.43003 11.3163 1.41217 11.4732 1.36057L11.6117 1.78328C11.3857 1.85758 11.1167 1.87487 10.8616 1.87747C10.7328 1.87881 10.6014 1.87633 10.4755 1.87397L10.4729 1.87391C10.3448 1.8715 10.2225 1.86921 10.1069 1.87061C9.48616 1.87817 8.63644 1.77063 8.30086 1.71833L8.36903 1.27877C8.64335 1.32148 9.25914 1.40003 9.79415 1.42088C9.72972 1.11772 9.74633 0.78036 9.79072 0.482725ZM13.1457 0.738539C13.2082 0.319639 13.3342 -0.0740292 13.4351 -0.287642L13.8363 -0.0972276C13.7565 0.0716418 13.6417 0.42241 13.5848 0.804321C13.5358 1.13265 13.5354 1.44719 13.6086 1.6814C13.6839 1.68203 13.76 1.6835 13.8353 1.68489H13.8363C13.9643 1.68737 14.09 1.68972 14.2121 1.68845C14.4607 1.68591 14.6714 1.66799 14.8283 1.61638L14.9666 2.03909C14.8283 2.0846 14.6737 2.10875 14.516 2.12121C14.8169 2.16525 15.3753 2.23288 15.8657 2.25201C15.8013 1.94884 15.8179 1.61142 15.8622 1.31379C15.9247 0.894888 16.0507 0.50122 16.1516 0.287607L16.5528 0.478022C16.473 0.646891 16.3581 0.997659 16.3012 1.37957C16.2523 1.7079 16.2519 2.02244 16.325 2.25665C16.4004 2.25728 16.4765 2.25875 16.5516 2.26014H16.5519L16.5528 2.26021C16.6808 2.26262 16.8065 2.26497 16.9286 2.2637C17.1772 2.26116 17.3879 2.24324 17.5448 2.19163L17.6831 2.61434C17.6723 2.61797 17.6613 2.6214 17.6503 2.6247C17.913 2.64994 18.213 2.67218 18.4911 2.67911C18.4225 2.3769 18.4344 2.03928 18.4746 1.74108C18.5313 1.32135 18.6519 0.925967 18.7499 0.71102L19.1536 0.895841C19.0762 1.06573 18.9661 1.41809 18.9145 1.80076C18.8701 2.12973 18.8741 2.44427 18.9504 2.67746C19.0255 2.67701 19.1013 2.67739 19.1763 2.67777H19.1783C19.3062 2.67841 19.4319 2.67904 19.554 2.67612C19.8025 2.67008 20.013 2.6493 20.1691 2.59553L20.3134 3.01627C20.0885 3.09369 19.8198 3.11472 19.5647 3.12089C19.4359 3.124 19.3046 3.1233 19.1786 3.12267H19.176C19.0479 3.12203 18.9256 3.12146 18.81 3.12445C18.1894 3.14059 17.3383 3.04487 17.002 2.99727L17.043 2.70644C17.0062 2.70752 16.9696 2.70822 16.9332 2.7086C16.8043 2.70993 16.673 2.70745 16.5471 2.70504L16.5444 2.70497C16.4164 2.70256 16.294 2.70027 16.1784 2.70167C15.5576 2.70923 14.708 2.60176 14.3723 2.54945L14.438 2.12649C14.3643 2.13044 14.2905 2.13273 14.2167 2.13335C14.0878 2.13468 13.9565 2.13221 13.8306 2.12979L13.828 2.12973C13.6999 2.12731 13.5775 2.12502 13.4619 2.12642C12.8411 2.13398 11.9915 2.02651 11.6559 1.9742L11.7241 1.53458C11.9984 1.57736 12.6142 1.65591 13.1492 1.67676C13.0848 1.3736 13.1014 1.03617 13.1457 0.738539ZM19.5059 4.41204C19.533 3.98932 19.6256 3.58638 19.7082 3.36507L20.1239 3.52104C20.0586 3.69595 19.9736 4.05523 19.9489 4.44051C19.9277 4.77189 19.9537 5.08529 20.0462 5.31257C20.1213 5.30678 20.1973 5.30183 20.2724 5.29693H20.2726L20.2734 5.29687C20.4012 5.28848 20.5266 5.28028 20.6481 5.26871C20.8956 5.2452 21.1041 5.20961 21.2561 5.14497L21.4295 5.55453C21.2107 5.64757 20.944 5.68749 20.6901 5.71164C20.5618 5.72378 20.4307 5.73236 20.305 5.74062L20.3024 5.74081C20.1746 5.74914 20.0525 5.75721 19.9374 5.76833C19.3195 5.8282 18.4638 5.79267 18.125 5.76884L18.1561 5.32503C18.433 5.34447 19.0532 5.37091 19.5881 5.34657C19.4984 5.04995 19.4867 4.71234 19.5059 4.41204ZM17.1917 6.96879C17.1959 6.57747 17.267 6.20007 17.3387 5.98944L17.7589 6.13308C17.7043 6.2935 17.6393 6.62329 17.6356 6.97362C17.6323 7.2729 17.6744 7.54893 17.7739 7.74436C17.8505 7.73432 17.9281 7.72504 18.0049 7.71583H18.0052L18.0059 7.7157C18.1329 7.70051 18.258 7.68551 18.379 7.66772C18.6253 7.63142 18.8335 7.58624 18.9837 7.51721L19.1687 7.92162C18.9572 8.0188 18.6953 8.07079 18.4435 8.10784C18.3164 8.12659 18.1863 8.14216 18.0611 8.15716L18.0587 8.15748C17.9316 8.17267 17.8098 8.18729 17.6952 8.20439C17.0852 8.29521 16.009 8.33855 15.6664 8.3369L15.6685 7.89201C15.9448 7.89334 16.728 7.86341 17.3157 7.8029C17.2169 7.53812 17.1888 7.23693 17.1917 6.96879ZM14.5083 8.72707C14.432 8.93605 14.3527 9.31179 14.3399 9.70292C14.3313 9.96859 14.3523 10.2674 14.4433 10.5325C14.1857 10.544 13.8717 10.5435 13.5649 10.5379C13.2575 10.5321 12.9711 10.5217 12.7644 10.5141H12.7642L12.7638 10.514H12.7637C12.6725 10.5107 12.5968 10.5079 12.5418 10.5064C12.5522 10.503 12.5626 10.4995 12.5728 10.4958L12.4259 10.0761C12.2699 10.1309 12.0585 10.1567 11.8099 10.1701C11.6877 10.1767 11.5618 10.18 11.434 10.1835L11.4332 10.1835H11.433C11.3557 10.1856 11.2775 10.1877 11.2003 10.1906C11.1192 9.98682 11.1026 9.70807 11.1334 9.41037C11.1693 9.06189 11.2642 8.73947 11.3333 8.58477L10.9282 8.403C10.8375 8.60613 10.732 8.97532 10.6919 9.36461C10.6646 9.62894 10.6646 9.92854 10.7368 10.1994C10.479 10.1927 10.1658 10.1702 9.86022 10.1429C9.64671 10.1239 9.44361 10.1031 9.27049 10.0849C9.46992 10.0708 9.66872 10.0435 9.84012 9.98594L9.6989 9.56411C9.54227 9.6168 9.33048 9.63968 9.08172 9.6496C8.95946 9.65449 8.83358 9.65608 8.70568 9.65779H8.70429C8.62705 9.65881 8.54899 9.65983 8.47195 9.66161C8.39363 9.4567 8.38095 9.17782 8.41577 8.8805C8.45654 8.53259 8.5559 8.2115 8.62712 8.05782L8.22451 7.8704C8.13098 8.07225 8.02046 8.43999 7.97493 8.82864C7.94404 9.09265 7.93986 9.39219 8.00828 9.66402C7.7507 9.65379 7.43783 9.62684 7.13263 9.59532C6.82648 9.56373 6.54169 9.52909 6.3363 9.50412C6.24163 9.49261 6.16382 9.48314 6.10853 9.47698L6.05938 9.91914C6.1077 9.92454 6.18069 9.93337 6.27137 9.94437L6.27162 9.94443H6.27181L6.27207 9.9445H6.27213C6.47911 9.96967 6.77803 10.006 7.0871 10.0379C7.53155 10.0837 8.02629 10.124 8.34512 10.1107C8.46091 10.1059 8.58343 10.1043 8.71145 10.1026L8.71393 10.1026L8.82851 10.101L8.79154 10.4815C8.83999 10.4863 8.91317 10.4941 9.0041 10.5039C9.21146 10.5262 9.51108 10.5584 9.82084 10.586C10.2659 10.6258 10.7611 10.6591 11.0797 10.6414C11.1954 10.635 11.3179 10.6317 11.4459 10.6282L11.4484 10.6282H11.4485C11.5744 10.6247 11.7054 10.6212 11.8337 10.6144C12.0731 10.6015 12.3228 10.5762 12.5345 10.5088L12.5226 10.9509C12.5713 10.9522 12.6449 10.9549 12.7363 10.9583H12.737C12.9453 10.9659 13.2461 10.9769 13.5567 10.9827C14.0034 10.991 14.4998 10.9893 14.8164 10.9493C14.9313 10.9347 15.0533 10.9228 15.1807 10.9103L15.1832 10.91H15.1833C15.3087 10.8978 15.4391 10.8851 15.5666 10.8692C15.8191 10.8377 16.0821 10.7914 16.2956 10.6989L16.1195 10.2905C15.9679 10.3562 15.7587 10.3968 15.5117 10.4277C15.3903 10.4428 15.265 10.4551 15.1377 10.4675L15.1369 10.4676C15.0599 10.4751 14.9819 10.4828 14.9051 10.491C14.8098 10.2935 14.7739 10.0166 14.7836 9.71747C14.795 9.36734 14.8671 9.03901 14.9252 8.87986L14.5083 8.72707ZM11.1736 12.1816C11.1817 11.7903 11.2565 11.4137 11.3303 11.2038L11.7489 11.3516C11.6928 11.5114 11.6247 11.8406 11.6174 12.1908C11.6112 12.4901 11.6505 12.7665 11.7481 12.9629C11.8248 12.9536 11.9026 12.9451 11.9796 12.9367L11.9804 12.9366C12.1075 12.9226 12.2326 12.9089 12.3539 12.8923C12.6006 12.8585 12.8092 12.8153 12.9601 12.7478L13.141 13.1541C12.9286 13.2491 12.6661 13.2986 12.414 13.3331C12.2867 13.3505 12.1565 13.3648 12.0312 13.3786L12.0287 13.3788C11.9014 13.3928 11.7796 13.4062 11.6649 13.4221C11.3463 13.4663 10.7074 13.4667 10.1257 13.4571C9.83067 13.4522 9.54405 13.4446 9.31057 13.4379L9.1282 13.4325H9.12775C9.02375 13.4292 8.91973 13.4264 8.8157 13.4242L8.8223 12.9794C8.88495 12.9803 8.99928 12.9836 9.14589 12.988L9.32331 12.9932C9.55616 12.9998 9.84069 13.0074 10.133 13.0122C10.5524 13.0192 10.9756 13.0201 11.2856 13.0065C11.1924 12.7433 11.1682 12.4462 11.1736 12.1816ZM7.34398 21.6022C7.46199 21.7879 7.64011 22.0185 7.85077 22.227C8.03625 22.4106 8.26465 22.595 8.51551 22.7086C8.33396 22.8966 8.08755 23.1175 7.83504 23.3342C7.70967 23.4415 7.58371 23.5482 7.45717 23.6541L7.45635 23.6548C7.40961 23.694 7.36459 23.7319 7.32179 23.768C7.17562 23.8913 7.04785 24.0008 6.97974 24.0706L7.29744 24.3814C7.34677 24.3307 7.45495 24.2371 7.60758 24.1084L7.74043 23.9966C7.86881 23.8892 7.99661 23.781 8.12382 23.6721C8.48748 23.3599 8.89338 22.9942 9.08704 22.7229C9.15445 22.6285 9.22858 22.5306 9.306 22.4284L9.30746 22.4264C9.38368 22.3258 9.46295 22.2212 9.53784 22.1166C9.68628 21.9094 9.83099 21.6845 9.90829 21.4645L9.48958 21.3168C9.43473 21.473 9.32243 21.6545 9.17728 21.8571C9.10594 21.9568 9.02978 22.0573 8.95242 22.1593L8.95197 22.16C8.90518 22.2218 8.85781 22.2843 8.81171 22.3465C8.60239 22.2824 8.37512 22.1208 8.16269 21.9105C7.91399 21.6643 7.72248 21.3883 7.64538 21.2375L7.54125 21.291C7.56338 21.2488 7.58342 21.2066 7.60086 21.1644L7.19078 20.9941C7.12755 21.1471 7.00568 21.3222 6.84975 21.5168C6.77315 21.6124 6.69173 21.7086 6.60897 21.8064L6.60777 21.8078C6.55793 21.8667 6.50751 21.9263 6.45837 21.9856C6.25279 21.9103 6.03459 21.7367 5.83376 21.5151C5.59876 21.2558 5.42235 20.9699 5.35348 20.8151L4.94816 20.9964C5.03858 21.1996 5.24264 21.5247 5.50523 21.8143C5.68278 22.0102 5.90434 22.2092 6.15254 22.336C5.93681 22.5596 5.62888 22.8506 5.31962 23.1346C5.10402 23.3326 4.89229 23.5232 4.71867 23.6788C4.67174 23.7209 4.62736 23.7606 4.58633 23.7973L4.58443 23.799L4.58392 23.7995C4.51949 23.8571 4.46344 23.9073 4.41905 23.9473C4.53547 23.7665 4.64175 23.5763 4.70104 23.3908L4.2784 23.255C4.22793 23.4127 4.12082 23.5973 3.98144 23.804C3.91296 23.9056 3.83966 24.0083 3.76521 24.1125L3.76483 24.1131C3.71981 24.1762 3.67415 24.2401 3.62989 24.3035C3.41879 24.2454 3.18709 24.0904 2.96876 23.8862C2.71321 23.6471 2.51397 23.3767 2.43268 23.2282L2.04352 23.4422C2.15037 23.6373 2.38042 23.9444 2.6659 24.2114C2.86032 24.3933 3.09945 24.5746 3.35938 24.6802C2.95944 25.1952 2.28543 25.9336 2.08854 26.1476L2.41479 26.4493C2.63756 26.2072 3.56806 25.1896 3.91575 24.672C3.98043 24.5756 4.05177 24.4757 4.12628 24.3714L4.12774 24.3693V24.3693C4.2011 24.2666 4.27732 24.1598 4.34923 24.0531L4.36274 24.0329L4.64587 24.3416C4.68944 24.3015 4.77067 24.2288 4.87834 24.1324L4.87853 24.1323L4.95488 24.0639L5.01455 24.0104C5.18868 23.8544 5.40199 23.6624 5.61956 23.4626C6.04848 23.0686 6.51208 22.628 6.71303 22.3764C6.78545 22.2857 6.86471 22.192 6.94747 22.0942L6.94911 22.0923C7.03267 21.9944 7.11492 21.8954 7.19585 21.7954C7.24676 21.7322 7.29615 21.6678 7.34398 21.6022Z" fill="black" fill-opacity="0.5"/>
<path d="M7.82772 25.7862C7.61833 25.5789 7.4411 25.3498 7.32309 25.1647C7.26236 25.2513 7.1987 25.3358 7.13222 25.4181C7.05129 25.5181 6.96904 25.6171 6.88548 25.715L6.88383 25.7169C6.80108 25.8147 6.72182 25.9084 6.6494 25.9991C6.44845 26.2507 5.98485 26.6914 5.55593 27.0853C5.35537 27.2691 5.15372 27.4517 4.95098 27.6331L4.81636 27.7536L4.8149 27.755L4.81471 27.7551C4.70704 27.8515 4.62574 27.9242 4.58224 27.9643L4.28186 27.6368C4.32796 27.5943 4.41325 27.518 4.5227 27.42L4.52606 27.417L4.65504 27.3016C4.82872 27.1459 5.04045 26.9553 5.25599 26.7573C5.56525 26.4733 5.87318 26.1823 6.0889 25.9587C5.84071 25.8319 5.61915 25.6329 5.4416 25.437C5.17907 25.1474 4.97489 24.8223 4.88453 24.6191L5.28985 24.4378C5.35878 24.5926 5.53513 24.8786 5.77013 25.1378C5.97096 25.3594 6.18916 25.533 6.39474 25.6084C6.44388 25.549 6.4943 25.4894 6.54414 25.4305L6.54534 25.4291C6.62809 25.3314 6.70952 25.2351 6.78612 25.1395C6.94205 24.945 7.06392 24.7699 7.12714 24.6168L7.53723 24.7871C7.52772 24.8101 7.51744 24.8332 7.50641 24.8562L7.62233 24.7967C7.69944 24.9475 7.89094 25.2235 8.13964 25.4696C8.35207 25.68 8.57927 25.8415 8.78866 25.9056C8.83476 25.8434 8.88213 25.7809 8.92893 25.7191L8.92937 25.7185C9.00673 25.6164 9.08289 25.5159 9.15423 25.4163C9.29938 25.2136 9.41168 25.0322 9.46653 24.8759L9.88524 25.0237C9.80794 25.2437 9.66323 25.4685 9.51479 25.6757C9.4399 25.7803 9.36063 25.885 9.28441 25.9856L9.28289 25.9875C9.20553 26.0897 9.1314 26.1876 9.06399 26.2821C8.87033 26.5534 8.46444 26.9191 8.10071 27.2313C7.96767 27.3455 7.83583 27.4563 7.71738 27.5558C7.67077 27.5949 7.62632 27.6323 7.58453 27.6675C7.43184 27.7963 7.32372 27.8898 7.27432 27.9406L6.95669 27.6298C7.0248 27.5599 7.15257 27.4504 7.29874 27.3271L7.43412 27.2132C7.552 27.1142 7.68079 27.006 7.81199 26.8934C8.0645 26.6766 8.31092 26.4558 8.49246 26.2678C8.24161 26.1541 8.01313 25.9698 7.82772 25.7862Z" fill="black" fill-opacity="0.5"/>
<path d="M9.764 23.4107C9.86526 23.6088 10.0866 23.9223 10.3644 24.1973C10.5498 24.3809 10.7783 24.5652 11.0291 24.6789C10.8476 24.8669 10.6012 25.0877 10.3487 25.3045C10.2175 25.4171 10.0887 25.5253 9.97078 25.6243L9.8354 25.7382C9.68923 25.8615 9.56146 25.971 9.49335 26.0409L9.81098 26.3517C9.86038 26.301 9.9685 26.2074 10.1212 26.0786C10.163 26.0434 10.2074 26.006 10.254 25.9669C10.3725 25.8674 10.5043 25.7567 10.6374 25.6424C11.0011 25.3301 11.407 24.9645 11.6007 24.6932C11.6681 24.5987 11.7422 24.5008 11.8196 24.3986L11.8211 24.3967C11.8973 24.2961 11.9766 24.1914 12.0514 24.0868C12.1999 23.8796 12.3446 23.6548 12.4219 23.4348L12.0032 23.287C11.9483 23.4433 11.836 23.6247 11.6909 23.8274C11.6195 23.927 11.5434 24.0275 11.466 24.1296L11.4656 24.1302C11.4188 24.192 11.3714 24.2546 11.3253 24.3167C11.1159 24.2527 10.8887 24.0911 10.6763 23.8807C10.4276 23.6346 10.2361 23.3586 10.159 23.2078L9.764 23.4107ZM22.7512 5.285C22.3299 5.25176 21.9188 5.28634 21.6884 5.3368L21.7834 5.77146C21.9654 5.73148 22.3323 5.69825 22.7164 5.72856C23.0466 5.75456 23.3524 5.82498 23.5637 5.9491C23.5473 6.02283 23.5316 6.09757 23.516 6.17136L23.5158 6.17231C23.4894 6.29784 23.4635 6.42107 23.4348 6.54005C23.3764 6.78226 23.3116 6.98399 23.2261 7.1256L23.606 7.35586C23.729 7.15197 23.8063 6.89317 23.8663 6.64454C23.8965 6.51908 23.9236 6.39031 23.9496 6.26676L23.9502 6.26415C23.9766 6.1385 24.0019 6.01857 24.0293 5.90595C24.1762 5.3014 24.2628 4.44745 24.2875 4.10794L23.8448 4.07565C23.8246 4.3532 23.7625 4.97224 23.6625 5.49944C23.3822 5.36832 23.0505 5.30864 22.7512 5.285ZM25.6928 6.15712C25.7645 6.36769 25.8356 6.74508 25.8398 7.13646C25.8427 7.40454 25.8147 7.7058 25.7159 7.97051C26.3036 8.03108 27.0867 8.06102 27.363 8.05962L27.3651 8.50452C27.0225 8.50623 25.9464 8.46289 25.3363 8.372C25.2217 8.35497 25.1 8.34035 24.9729 8.3251L24.9704 8.32478C24.8453 8.30978 24.7152 8.29421 24.588 8.27552C24.3363 8.2384 24.0744 8.18642 23.8628 8.0893L24.0478 7.68483C24.198 7.75385 24.4063 7.79904 24.6525 7.83533C24.7736 7.85313 24.8986 7.86812 25.0256 7.88338L25.0263 7.88344C25.1032 7.89266 25.181 7.902 25.2576 7.91198C25.3571 7.71654 25.3992 7.44052 25.3959 7.14123C25.3922 6.79097 25.3273 6.46111 25.2727 6.3007L25.6928 6.15712ZM26.5663 24.5151C26.8441 24.2401 27.0654 23.9265 27.1667 23.7285L26.7717 23.5256C26.6946 23.6764 26.503 23.9523 26.2543 24.1985C26.0419 24.4089 25.8147 24.5704 25.6053 24.6345C25.5589 24.5721 25.5121 24.5099 25.4651 24.448L25.4646 24.4474C25.3873 24.3453 25.3111 24.2448 25.2398 24.1452C25.0946 23.9425 24.9823 23.761 24.9274 23.6048L24.5087 23.7526C24.586 23.9726 24.7308 24.1974 24.8791 24.4046C24.9541 24.5092 25.0334 24.6138 25.1096 24.7145L25.111 24.7164C25.1885 24.8186 25.2625 24.9165 25.33 25.0109C25.5237 25.2823 25.9296 25.6479 26.2932 25.9602C26.4204 26.069 26.5482 26.1772 26.6766 26.2847L26.7318 26.3311L26.8094 26.3964C26.9621 26.5252 27.0703 26.6187 27.1196 26.6695L27.4372 26.3587C27.3692 26.2888 27.2414 26.1793 27.0953 26.056L26.9599 25.9421C26.8419 25.8431 26.7132 25.7349 26.582 25.6223C26.3295 25.4055 26.0831 25.1846 25.9015 24.9966C26.1524 24.883 26.3808 24.6987 26.5663 24.5151ZM24.6936 24.6183C24.5923 24.8163 24.371 25.1299 24.0932 25.4049C23.9077 25.5885 23.6793 25.7728 23.4285 25.8864C23.61 26.0744 23.8564 26.2953 24.1089 26.5121C24.2343 26.6194 24.3603 26.726 24.4868 26.8319L24.4921 26.8364L24.5735 26.9047L24.6222 26.9458C24.7684 27.0691 24.8961 27.1786 24.9642 27.2484L24.6465 27.5592C24.5972 27.5085 24.489 27.415 24.3363 27.2862C24.2946 27.251 24.2501 27.2136 24.2036 27.1745C24.0752 27.067 23.9474 26.9588 23.8202 26.8499C23.4565 26.5377 23.0506 26.1721 22.8569 25.9007C22.7895 25.8063 22.7154 25.7084 22.638 25.6062L22.6365 25.6042C22.5603 25.5036 22.481 25.399 22.4061 25.2944C22.2577 25.0872 22.113 24.8624 22.0357 24.6424L22.4543 24.4946C22.5092 24.6508 22.6216 24.8323 22.7667 25.035C22.838 25.1346 22.9142 25.2351 22.9916 25.3372L22.992 25.3378C23.0388 25.3996 23.0862 25.4621 23.1323 25.5243C23.3416 25.4602 23.5688 25.2987 23.7813 25.0883C24.03 24.8421 24.2215 24.5662 24.2986 24.4154L24.6936 24.6183ZM16.216 4.45063C16.2726 4.03091 16.3932 3.63552 16.4912 3.42057L16.8949 3.6054C16.8175 3.77528 16.7075 4.12764 16.6558 4.51031C16.6115 4.83934 16.6154 5.15382 16.6918 5.38701C16.7671 5.38656 16.8433 5.38695 16.9185 5.38733H16.9196C17.0476 5.38803 17.1732 5.38866 17.2953 5.38567C17.5439 5.37964 17.7543 5.35885 17.9105 5.30508L18.0547 5.72583C17.8298 5.80324 17.5611 5.82428 17.3061 5.83044C17.1772 5.83356 17.0459 5.83292 16.9199 5.83222H16.9173C16.7893 5.83159 16.6669 5.83101 16.5513 5.834C15.9307 5.85015 15.0796 5.75449 14.7433 5.70683L14.789 5.38301C14.7382 5.38498 14.6875 5.38606 14.6373 5.38656C14.5085 5.3879 14.3773 5.38542 14.2514 5.38301H14.2485C14.1205 5.38053 13.9982 5.37824 13.8825 5.3797C13.2618 5.3872 12.4121 5.27973 12.0765 5.22742L12.1447 4.7878C12.419 4.83057 13.0348 4.90913 13.5698 4.92998C13.5054 4.62681 13.522 4.28945 13.5664 3.99176C13.6288 3.57292 13.7548 3.17919 13.8558 2.96564L14.2569 3.15605C14.1771 3.32486 14.0623 3.67569 14.0054 4.05754C13.9564 4.38593 13.9561 4.70041 14.0292 4.93468C14.1046 4.93525 14.1808 4.93671 14.256 4.93811L14.257 4.93817C14.3849 4.94059 14.5106 4.94294 14.6327 4.94167C14.8813 4.93913 15.092 4.9212 15.2489 4.8696L15.3873 5.29237C15.3522 5.30388 15.316 5.31405 15.279 5.32301C15.5661 5.35263 15.9137 5.38072 16.2324 5.38866C16.1638 5.08645 16.1757 4.7489 16.216 4.45063ZM13.7282 6.83813C13.7599 6.44802 13.8573 6.0766 13.9435 5.87156L14.3525 6.04444C14.2868 6.20053 14.1989 6.52499 14.1707 6.87417C14.1464 7.1725 14.169 7.45081 14.2546 7.65273C14.3321 7.64827 14.4096 7.64422 14.4871 7.64059H14.4873L14.488 7.64053C14.6158 7.6343 14.7416 7.62814 14.8636 7.61892C15.1118 7.60011 15.3227 7.56966 15.4773 7.51138L15.6335 7.92787C15.4157 8.00986 15.1508 8.04329 14.897 8.06254C14.769 8.0722 14.6381 8.07862 14.5121 8.08479L14.5097 8.08492C14.3818 8.09115 14.2594 8.09718 14.1438 8.10608C13.5289 8.15375 12.4524 8.12121 12.1107 8.0954L12.1441 7.65178C12.4196 7.67256 13.2029 7.69786 13.7934 7.67892C13.7134 7.40785 13.7066 7.10538 13.7282 6.83813ZM7.35948 11.6141C7.395 11.2244 7.49607 10.8539 7.58434 10.6498L7.99164 10.8267C7.92442 10.9822 7.8333 11.3058 7.80153 11.6546C7.77439 11.9527 7.79424 12.2312 7.87775 12.434C7.95473 12.4302 8.03273 12.4272 8.10984 12.4242H8.11028L8.11047 12.4241H8.11136C8.23913 12.4191 8.36494 12.4143 8.48707 12.4062C8.73546 12.3898 8.94662 12.3615 9.10185 12.3048L9.25385 12.7228C9.03527 12.8026 8.77002 12.8335 8.51612 12.8501C8.38796 12.8586 8.25708 12.8637 8.13121 12.8686H8.13102L8.12854 12.8687C8.00064 12.8736 7.87819 12.8784 7.76253 12.8862C7.44173 12.9079 6.80438 12.8632 6.22473 12.8127C5.93082 12.787 5.6454 12.7592 5.413 12.7361L5.2421 12.719L5.23145 12.7179C5.12779 12.7072 5.02407 12.6971 4.92029 12.6876L4.95237 12.3114C4.31192 12.3365 2.99707 12.2097 2.6778 12.1779L2.72168 11.7352C3.01071 11.764 4.00469 11.859 4.65573 11.869C4.58345 11.5974 4.58402 11.2969 4.61185 11.0318C4.65275 10.6426 4.75891 10.2735 4.84996 10.0706L5.25479 10.2531C5.18541 10.4077 5.08991 10.7299 5.05326 11.0784C5.022 11.3761 5.03804 11.6548 5.1187 11.8587C5.19594 11.856 5.27406 11.854 5.35143 11.8521H5.35244C5.48028 11.8489 5.60615 11.8457 5.72834 11.8394C5.97692 11.8265 6.18846 11.8011 6.34452 11.7465L6.49068 12.1666C6.27102 12.2434 6.00539 12.2705 5.7513 12.2837C5.65637 12.2886 5.56005 12.2917 5.46531 12.2942C5.69556 12.3171 5.97546 12.3443 6.26322 12.3694C6.68111 12.4059 7.10324 12.4367 7.41338 12.4449C7.33894 12.1758 7.33552 11.8777 7.35948 11.6141Z" fill="black" fill-opacity="0.5"/>
<path d="M11.2744 5.38103C11.1853 5.58486 11.0828 5.95495 11.0458 6.34455C11.0205 6.61142 11.0231 6.91395 11.0994 7.1861C10.5086 7.1969 9.72579 7.16074 9.45058 7.13614L9.41114 7.57926C9.75242 7.60983 10.8284 7.65731 11.4439 7.61816C11.5595 7.61078 11.682 7.60652 11.8099 7.60201L11.8125 7.60195C11.9384 7.59756 12.0694 7.59299 12.1976 7.58504C12.4516 7.56934 12.7169 7.5396 12.9358 7.4606L12.7855 7.04202C12.63 7.09807 12.4187 7.12559 12.1702 7.14097C12.0481 7.14854 11.9223 7.15292 11.7945 7.15744H11.7937C11.7163 7.1601 11.6381 7.1629 11.5609 7.1664C11.4781 6.96327 11.4593 6.6847 11.4877 6.38669C11.5209 6.03795 11.6132 5.71477 11.681 5.55956L11.2744 5.38103ZM2.91943 14.6144C2.63395 14.3474 2.40389 14.0403 2.29704 13.8452L2.68613 13.6312C2.76749 13.7797 2.96673 14.0501 3.22228 14.2892C3.44061 14.4934 3.67231 14.6484 3.88341 14.7065C3.92774 14.643 3.97327 14.5792 4.01835 14.5161L4.0188 14.5155C4.09318 14.4113 4.16648 14.3086 4.23503 14.207C4.37435 14.0003 4.48145 13.8157 4.53192 13.658L4.95456 13.7938C4.88354 14.0159 4.74524 14.2448 4.60275 14.4561C4.53078 14.5628 4.45456 14.6696 4.38126 14.7723L4.3798 14.7744C4.30529 14.8787 4.23395 14.9786 4.16927 15.075C3.82159 15.5926 2.89108 16.6102 2.66832 16.8523L2.34206 16.5506C2.53896 16.3366 3.21296 15.5982 3.6129 15.0832C3.35297 14.9776 3.11385 14.7963 2.91943 14.6144ZM2.04339 19.3111C2.15024 19.5061 2.3803 19.8132 2.66578 20.0802C2.8602 20.2621 3.09939 20.4435 3.35931 20.5491C2.95931 21.0641 2.28531 21.8025 2.08842 22.0165L2.41467 22.3181C2.63743 22.076 3.56794 21.0584 3.91563 20.5408C3.98031 20.4445 4.05164 20.3446 4.12615 20.2402L4.12761 20.2382L4.12774 20.238C4.20104 20.1353 4.2772 20.0286 4.34911 19.922C4.49159 19.7107 4.6299 19.4817 4.70092 19.2597L4.27828 19.1238C4.2278 19.2815 4.1207 19.4662 3.98132 19.6728C3.91283 19.7745 3.83953 19.8771 3.76509 19.9813L3.7647 19.982C3.71939 20.0452 3.67441 20.1087 3.62977 20.1724C3.41867 20.1142 3.18696 19.9592 2.96863 19.755C2.71308 19.516 2.51391 19.2455 2.43255 19.097L2.04339 19.3111ZM10.9155 2.13101C10.8145 2.34456 10.6885 2.73829 10.626 3.15719C10.5817 3.45483 10.5651 3.79219 10.6295 4.09535C10.0945 4.0745 9.47874 3.99595 9.20442 3.95324L9.13625 4.39286C9.47183 4.4451 10.3215 4.55264 10.9423 4.54508C11.0579 4.54368 11.1802 4.54597 11.3083 4.54838L11.3109 4.54844C11.4368 4.5508 11.5682 4.55327 11.697 4.55194C11.9521 4.54933 12.2211 4.53205 12.447 4.45775L12.3086 4.03503C12.1517 4.08664 11.941 4.1045 11.6924 4.10711C11.5703 4.10838 11.4446 4.10596 11.3167 4.10355H11.3156C11.2401 4.10197 11.1645 4.1008 11.0889 4.10005C11.0158 3.86585 11.0162 3.55131 11.0651 3.22291C11.122 2.84106 11.2368 2.49023 11.3166 2.32143L10.9155 2.13101ZM8.28508 4.38885C8.19598 4.59268 8.09344 4.9627 8.05641 5.35231C8.03105 5.61924 8.03371 5.92177 8.11 6.19392C7.58438 6.20352 6.90669 6.17593 6.56985 6.15242L6.44106 5.79396C6.28558 5.85008 6.07429 5.8776 5.82584 5.89292C5.70371 5.90048 5.5779 5.90493 5.45006 5.90938H5.44924C5.37188 5.91211 5.29369 5.91484 5.21652 5.91834C5.1337 5.71521 5.11493 5.43665 5.14328 5.13869C5.17644 4.78996 5.26877 4.46671 5.33662 4.31151L4.93002 4.13298C4.84093 4.3368 4.73839 4.70689 4.70136 5.09649C4.676 5.36343 4.67872 5.66596 4.75501 5.93811C4.16426 5.94885 3.38138 5.91275 3.10617 5.88809L3.06673 6.3312C3.40801 6.36177 4.48398 6.40925 5.09946 6.3701C5.21512 6.36279 5.33763 6.35847 5.46554 6.35402L5.46807 6.35389C5.59401 6.34951 5.72495 6.34493 5.85317 6.33699C6.05507 6.32453 6.26414 6.30317 6.45133 6.25525L6.42172 6.58708C6.763 6.61759 7.83904 6.66506 8.45451 6.62598C8.57017 6.6186 8.69269 6.61428 8.82059 6.60983L8.82306 6.60977C8.94906 6.60532 9.08 6.60074 9.20822 6.59286C9.46225 6.5771 9.72757 6.54736 9.94646 6.46836L9.79611 6.04977C9.64063 6.10589 9.42934 6.13341 9.18089 6.1488C9.05876 6.15636 8.93295 6.16074 8.80512 6.16519L8.80435 6.16526C8.72699 6.16792 8.64874 6.17066 8.57151 6.17415C8.48875 5.97109 8.46999 5.69252 8.49833 5.39451C8.53143 5.04577 8.62382 4.72259 8.69161 4.56738L8.28508 4.38885ZM5.26864 7.60443C5.34968 7.24101 5.49394 6.90391 5.6065 6.7215L5.98399 6.95558C5.90048 7.09089 5.7734 7.38058 5.70181 7.70148C5.64093 7.97452 5.62876 8.23237 5.6857 8.42812C5.76401 8.43435 5.84328 8.44147 5.92178 8.44852L5.92248 8.44858C6.04981 8.46002 6.17537 8.47134 6.29762 8.47916C6.5462 8.49517 6.76028 8.49523 6.92217 8.4613L7.01297 8.89678C6.78818 8.94388 6.5228 8.93943 6.26922 8.92316C6.14119 8.9149 6.01081 8.9032 5.88526 8.89195L5.88285 8.8917C5.75545 8.88026 5.6332 8.86933 5.51741 8.86208C4.99014 8.82903 3.95913 8.60226 3.46813 8.49428L3.46718 8.49409C3.38005 8.47496 3.31004 8.45952 3.26293 8.44966L3.35392 8.01418C3.40884 8.02574 3.48703 8.0429 3.58195 8.06369C3.9895 8.15311 4.70643 8.31035 5.22261 8.38299C5.18329 8.1221 5.215 7.84512 5.26864 7.60443ZM1.25436 9.26897C1.27909 9.49015 1.37516 9.86189 1.53768 10.2177C1.6484 10.4601 1.80072 10.719 2.00091 10.9159C1.43546 11.2395 0.531721 11.6651 0.268372 11.7878L0.4555 12.1912C0.753408 12.0524 2.0004 11.4664 2.51847 11.1205C2.61492 11.0561 2.71886 10.9909 2.82729 10.9228L2.82945 10.9215C2.93629 10.8545 3.04739 10.7849 3.15443 10.7136C3.36642 10.5726 3.58125 10.4137 3.73129 10.2355L3.39203 9.94858C3.2855 10.0751 3.11632 10.205 2.90896 10.3429C2.807 10.4108 2.70028 10.4777 2.59184 10.5458L2.59121 10.5461L2.59102 10.5463L2.59064 10.5465L2.59045 10.5466C2.52507 10.5876 2.45899 10.6291 2.39412 10.6707C2.22101 10.5364 2.06565 10.3047 1.9413 10.0325C1.79577 9.71399 1.71429 9.38788 1.69545 9.21952L1.25436 9.26897Z" fill="black" fill-opacity="0.5"/>
<path d="M0.44646 15.4406C0.160981 15.1736 -0.0690772 14.8665 -0.175926 14.6714L0.213232 14.4574C0.294526 14.6059 0.493765 14.8763 0.749315 15.1154C0.967641 15.3196 1.19935 15.4746 1.41045 15.5328C1.45471 15.4693 1.50024 15.4056 1.54526 15.3425L1.54539 15.3423L1.54583 15.3417C1.62021 15.2375 1.69352 15.1348 1.76206 15.0332C1.90138 14.8265 2.00848 14.6419 2.05896 14.4842L2.4816 14.62C2.41058 14.8421 2.27227 15.071 2.12979 15.2823C2.05788 15.389 1.98166 15.4958 1.90835 15.5985L1.90829 15.5985L1.90683 15.6006C1.83232 15.7049 1.76099 15.8048 1.69631 15.9012C1.34862 16.4188 0.418115 17.4364 0.19535 17.6785L-0.130967 17.3768C0.0659898 17.1629 0.739993 16.4245 1.13999 15.9095C0.880006 15.8038 0.640944 15.6225 0.44646 15.4406ZM-0.556396 18.7391C-0.449548 18.9341 -0.21949 19.2412 0.0659898 19.5082C0.26041 19.6901 0.499536 19.8714 0.759461 19.9771C0.359523 20.4921 -0.314481 21.2305 -0.511438 21.4445L-0.185121 21.7461C0.0376447 21.504 0.968149 20.4864 1.31584 19.9688C1.38052 19.8725 1.45185 19.7725 1.52636 19.6682L1.52782 19.6662V19.6661C1.60119 19.5634 1.67741 19.4566 1.74932 19.35C1.8918 19.1386 2.03011 18.9097 2.10113 18.6876L1.67849 18.5518C1.62801 18.7095 1.52091 18.8941 1.38153 19.1008C1.31305 19.2024 1.23974 19.3051 1.1653 19.4093L1.16492 19.41C1.11989 19.4731 1.07424 19.5369 1.02998 19.6004C0.818877 19.5422 0.587171 19.3872 0.368844 19.183C0.113295 18.944 -0.0859447 18.6735 -0.167302 18.525L-0.556396 18.7391ZM0.319637 23.3216C0.0341571 23.0546 -0.195901 22.7475 -0.302749 22.5524L0.0864084 22.3384C0.167702 22.4869 0.366942 22.7573 0.622491 22.9964C0.840818 23.2006 1.07252 23.3556 1.28362 23.4138C1.32795 23.3503 1.37348 23.2865 1.41856 23.2233L1.41901 23.2227C1.49339 23.1185 1.56669 23.0158 1.63524 22.9142C1.77456 22.7075 1.88166 22.5229 1.93213 22.3652L2.35477 22.501C2.28375 22.7231 2.14545 22.952 2.00297 23.1633C1.93106 23.27 1.85484 23.3768 1.78153 23.4795L1.78147 23.4795L1.78001 23.4816C1.7055 23.5859 1.63416 23.6858 1.56948 23.7822C1.2218 24.2998 0.291292 25.3174 0.0685263 25.5595L-0.257791 25.2578C-0.0608337 25.0438 0.61317 24.3055 1.01317 23.7905C0.753183 23.6848 0.514121 23.5035 0.319637 23.3216ZM7.5605 1.87518C7.45961 2.08873 7.33355 2.48246 7.27115 2.9013C7.22676 3.199 7.21015 3.53636 7.27457 3.83952C6.73957 3.81868 6.12378 3.74012 5.84946 3.69735L5.78129 4.13697C6.11687 4.18927 6.96658 4.29675 7.58732 4.28918C7.70292 4.28779 7.82524 4.29007 7.95333 4.29249L7.95593 4.29255C8.08187 4.29497 8.21319 4.29745 8.34205 4.29611C8.59715 4.2935 8.86615 4.27615 9.09208 4.20186L8.95365 3.77914C8.79677 3.83075 8.58606 3.84867 8.33748 3.85122C8.21535 3.85249 8.08967 3.85014 7.9617 3.84772L7.96069 3.84766C7.88548 3.84626 7.80933 3.8448 7.73393 3.84422C7.66082 3.60996 7.6612 3.29548 7.71015 2.96708C7.76703 2.58517 7.88187 2.2344 7.96164 2.0656L7.5605 1.87518Z" fill="black" fill-opacity="0.5"/>
</g>
<path fill-rule="evenodd" clip-rule="evenodd" d="M29.103 11.7858L25.9918 11.6737L25.9601 11.0064L29.1171 11.1503L29.103 11.7858Z" fill="#896307"/>
<path fill-rule="evenodd" clip-rule="evenodd" d="M18.0052 7.81139C16.28 8.08373 15.0816 9.85524 15.3896 11.8149C15.6976 13.7746 17.3812 15.0911 19.1065 14.8188C20.8317 14.5464 22.03 12.7749 21.7221 10.8152C21.4141 8.8555 19.7305 7.53899 18.0052 7.81139ZM14.7143 11.1275C14.7472 9.17964 16.0395 7.47829 17.9065 7.18352C20.0213 6.84972 21.9878 8.46011 22.3425 10.7173C22.3426 10.7177 22.3427 10.7182 22.3427 10.7187C22.4122 10.6905 22.4831 10.6658 22.5551 10.6448C22.7858 10.5776 23.0765 10.5363 23.379 10.5996C23.4177 9.80529 23.6482 9.07585 24.0232 8.49984C24.4894 7.78381 25.1915 7.29074 26.0262 7.24695C26.8596 7.20329 27.6211 7.61818 28.1801 8.27688C28.7394 8.93577 29.1121 9.85346 29.1829 10.8728C29.2538 11.8921 29.011 12.8442 28.5451 13.5596C28.0789 14.2757 27.3768 14.7687 26.5422 14.8125C25.7087 14.8562 24.9472 14.4413 24.3882 13.7826C23.8432 13.1406 23.4754 12.2528 23.3914 11.2647C23.174 11.1756 22.9434 11.1934 22.7307 11.2555C22.5981 11.2941 22.4823 11.3476 22.3979 11.3929C22.4127 13.3862 21.1072 15.1463 19.2052 15.4466C17.0904 15.7805 15.1239 14.17 14.7692 11.9129C14.7621 11.8675 14.7556 11.822 14.7498 11.7764L9.26841 10.8915C8.24012 10.7489 7.21368 10.7962 6.45565 11.0512C5.69528 11.3071 5.29401 12.2483 5.28196 12.8329L4.65387 12.8177C4.67391 11.8459 5.3781 10.7436 6.25578 10.4483C7.13505 10.1524 8.26675 10.1111 9.35547 10.2624L9.3589 10.2629L14.7143 11.1275ZM24.5482 8.85041C24.1654 9.43831 23.9499 10.2493 24.012 11.144C24.0742 12.0385 24.4006 12.8233 24.8643 13.3695C25.3281 13.9161 25.9133 14.2091 26.5078 14.178C27.101 14.1468 27.6378 13.7964 28.0201 13.2091C28.4029 12.6212 28.6184 11.8102 28.5563 10.9155C28.4942 10.0209 28.1677 9.23626 27.704 8.68993C27.2401 8.14341 26.655 7.85035 26.0605 7.8815C25.4673 7.91264 24.9305 8.26315 24.5482 8.85041Z" fill="#C5900F"/>
</svg>
