<svg width="36" height="40" viewBox="0 0 36 40" fill="none" xmlns="http://www.w3.org/2000/svg">
<path d="M21.8194 9.38488C21.8194 9.38488 32.2924 11.0197 31.4982 25.9076C31.4953 25.9628 32.7092 26.7668 32.8042 26.8527C33.6506 27.6164 34.3607 28.5944 34.6713 29.7385C35.777 33.8125 31.8237 38.0103 28.6268 39.1245C27.4326 39.5407 26.1705 39.7427 24.9058 39.7794C16.6845 40.0183 5.79992 34.8054 5.24091 24.6249C5.22102 24.26 5.21583 23.8945 5.22537 23.5292C5.27487 21.5962 5.74253 19.7136 6.44733 17.9655C6.44702 17.9656 11.0226 6.64356 21.8194 9.38496V9.38488Z" fill="#A47539"/>
<g style="mix-blend-mode:multiply" opacity="0.1">
<path d="M31.7634 26.0647C31.6499 26.342 31.5367 26.6963 31.505 26.8989C31.37 27.7679 31.668 28.6654 32.1858 29.3105C32.6774 29.923 33.3795 30.3203 34.0594 30.4701C34.289 30.5207 34.5669 30.5466 34.81 30.5548C34.5546 28.038 32.5005 26.5279 31.7634 26.0647ZM17.0005 32.6796C18.9459 32.262 20.1537 30.2172 19.6983 28.1124C19.2428 26.0075 17.2966 24.6396 15.3512 25.0572C13.4059 25.4747 12.198 27.5195 12.6535 29.6244C13.109 31.7293 15.0552 33.0971 17.0005 32.6796Z" fill="#DC2400"/>
</g>
<path opacity="0.1" d="M26.5244 26.7921C26.5244 26.7921 28.1857 25.2151 29.4718 26.6978L26.5244 26.7921Z" fill="black"/>
<path d="M11.0337 34.6498C5.5034 37.4149 0.484013 30.481 2.09178 26.5834C3.11734 24.0972 6.10761 23.9039 7.84036 26.1748C8.86297 27.5151 9.69037 29.2284 10.1602 30.8673" fill="#A47539"/>
<path opacity="0.1" d="M6.47874 28.4622C7.19032 29.1846 7.76232 30.2558 8.46537 30.8534C8.33544 29.8535 8.12803 28.7857 7.64116 27.8846C7.14687 26.9694 6.24789 26.2155 5.33258 26.2776C4.19829 26.3547 3.26432 27.6727 3.1442 28.8677C3.21594 28.1526 4.6579 27.6687 5.20823 27.7364C6.07006 29.3569 6.40373 32.5507 6.40373 32.5507C7.12168 30.7427 6.83098 29.3206 6.47874 28.4622Z" fill="black"/>
<path d="M25.647 28.8C28.483 28.9814 30.2362 28.8 30.8018 28.8C33.1836 28.4432 34.2016 32.6484 31.2117 34.855C30.3191 35.5138 29.8788 35.4112 27.9725 35.4112C26.0643 35.4112 24.0016 36.1223 22.8493 35.7976C19.583 34.8771 19.0095 32.5117 19.3026 31.2099C19.6991 29.4489 20.5062 28.4713 25.647 28.8Z" fill="white"/>
<mask id="mask0_53_158" style="mask-type:alpha" maskUnits="userSpaceOnUse" x="19" y="28" width="15" height="8">
<path d="M25.647 28.8C28.483 28.9814 30.2362 28.8 30.8018 28.8C33.1836 28.4432 34.2016 32.6484 31.2117 34.855C30.3191 35.5138 29.8788 35.4112 27.9725 35.4112C26.0643 35.4112 24.0016 36.1223 22.8493 35.7976C19.583 34.8771 19.0095 32.5117 19.3026 31.2099C19.6991 29.4489 20.5062 28.4713 25.647 28.8Z" fill="white"/>
</mask>
<g mask="url(#mask0_53_158)">
<path fill-rule="evenodd" clip-rule="evenodd" d="M20.4126 36.1264L21.7988 27.5952L22.2691 27.6716L20.883 36.2029L20.4126 36.1264ZM26.5606 37.2592L26.9003 28.5522L27.3765 28.5708L27.0368 37.2778L26.5606 37.2592ZM31.8674 34.8922L30.7849 28.0317L31.2557 27.9574L32.3381 34.8178L31.8674 34.8922Z" fill="#D1D3D4"/>
</g>
<path d="M24.9497 23.7643C24.9475 24.9375 24.2086 25.89 22.6736 25.6953C21.5686 25.4504 20.9843 24.9942 20.9867 23.7639C20.9892 22.4747 21.6004 21.6194 22.6819 21.4467C24.3408 21.1818 24.952 22.5911 24.9497 23.7643ZM31.0047 23.4838C31.0032 24.4193 30.6207 25.4239 29.6417 25.3086C28.8201 25.2118 28.6102 24.0182 28.6112 23.4305C28.6128 22.4026 29.078 21.4315 29.7568 21.4299C30.4868 21.4283 31.0062 22.5484 31.0047 23.4838Z" fill="#2A1200"/>
<path d="M29.6547 22.1393C29.6752 22.0603 29.7843 22.0538 29.8068 22.1303L30.0155 22.8365C30.0206 22.8541 30.032 22.8692 30.0475 22.879C30.0631 22.8887 30.0816 22.8925 30.0997 22.8895L30.4988 22.8283C30.5639 22.8183 30.6087 22.8879 30.5746 22.9459L30.2423 23.5112C30.2365 23.5208 30.2328 23.5315 30.2314 23.5426C30.2299 23.5537 30.2308 23.565 30.2339 23.5758L30.4391 24.2705C30.4625 24.3497 30.3635 24.4121 30.3063 24.3541L30.0163 24.06C29.9839 24.0272 29.9293 24.0312 29.899 24.0687L29.4535 24.6192C29.4041 24.6802 29.309 24.6452 29.3145 24.5679L29.3729 23.7488C29.3738 23.7378 29.3723 23.7268 29.3686 23.7165C29.3649 23.7061 29.359 23.6967 29.3513 23.6889L28.9106 23.2421C28.8655 23.1962 28.8942 23.1153 28.9593 23.1053L29.3699 23.0424C29.4025 23.0374 29.4295 23.0128 29.4378 22.9804L29.6547 22.1393ZM22.9701 22.0372C22.997 21.9714 23.0901 21.9713 23.1171 22.0371L23.4933 22.9523C23.4999 22.9685 23.5117 22.982 23.5268 22.9908C23.5419 22.9996 23.5595 23.0032 23.5768 23.0009L24.344 22.9026C24.4167 22.8933 24.4621 22.9791 24.4137 23.034L23.8414 23.6829C23.8316 23.694 23.8251 23.7076 23.8226 23.7223C23.8202 23.7369 23.8218 23.7519 23.8275 23.7656L24.1819 24.6279C24.2118 24.7006 24.1292 24.7679 24.064 24.724L23.3982 24.275C23.3839 24.2654 23.3669 24.2606 23.3496 24.2615C23.3324 24.2624 23.316 24.2689 23.3028 24.28L22.387 25.0475C22.3314 25.0941 22.2475 25.0478 22.2573 24.9758L22.3907 23.9954C22.3927 23.9807 22.3906 23.9657 22.3845 23.9522C22.3784 23.9386 22.3687 23.9271 22.3564 23.9188L21.6391 23.4352C21.5784 23.3942 21.6008 23.2998 21.6735 23.2905L22.4552 23.1903C22.4691 23.1886 22.4823 23.1831 22.4935 23.1745C22.5046 23.166 22.5133 23.1546 22.5186 23.1416L22.9701 22.0372Z" fill="white"/>
<path d="M24.0148 18.9279C22.9593 18.6141 21.7524 18.8687 20.8721 19.5863C20.5883 19.8177 20.4584 20.276 20.6814 20.607C20.8874 20.9133 21.3157 21.0539 21.6195 20.8058C21.71 20.7315 21.8046 20.6625 21.903 20.5991C21.9336 20.5794 22.0156 20.5481 22.0442 20.5171C22.0588 20.5099 22.0731 20.5028 22.0879 20.4959C22.1792 20.4535 22.2725 20.4158 22.3676 20.3829C22.4218 20.3643 22.4764 20.3473 22.5315 20.3318C22.5489 20.327 22.5663 20.3225 22.584 20.318C22.6308 20.3159 22.6866 20.2978 22.7299 20.2918C22.8847 20.2703 23.0409 20.2616 23.1972 20.2658C23.2111 20.2662 23.2246 20.2669 23.2385 20.2676C23.2914 20.2746 23.3442 20.2804 23.3969 20.2893C23.5089 20.3085 23.6193 20.3354 23.7286 20.3677C24.0697 20.4692 24.4749 20.1725 24.5337 19.7971C24.5978 19.3838 24.3802 19.0367 24.0148 18.9279ZM31.2838 19.7374C30.7706 19.3046 30.1222 19.0975 29.49 19.1469C29.3194 19.1603 29.1435 19.2704 29.0427 19.4114C28.9432 19.5502 28.8844 19.7663 28.9171 19.9463C28.9512 20.1332 29.0362 20.3218 29.1869 20.4382C29.3397 20.5562 29.5088 20.6134 29.6942 20.5991C29.7245 20.5968 29.7548 20.5979 29.7854 20.5972C29.8785 20.6057 29.9707 20.6215 30.0614 20.6444C30.1691 20.6843 30.2731 20.7339 30.3719 20.7925C30.4058 20.8175 30.441 20.8407 30.4736 20.8681C30.6142 20.9865 30.808 21.0477 30.9808 21.029C31.1463 21.011 31.3329 20.9104 31.4281 20.7642C31.5267 20.613 31.5887 20.4219 31.5537 20.2294C31.5188 20.0374 31.4326 19.8627 31.2838 19.7374Z" fill="#71472D"/>
<path d="M11.8559 13.6788C8.38696 13.6788 5.57477 10.6168 5.57477 6.83949C5.57477 3.06206 8.38696 0 11.8559 0C15.3249 0 18.1371 3.06214 18.1371 6.83941C18.1371 10.6168 15.3249 13.6788 11.8559 13.6788Z" fill="#E9B729"/>
<path d="M11.8559 13.6788C8.38696 13.6788 5.57477 10.6168 5.57477 6.83951C5.57477 6.2078 5.6534 5.59615 5.80059 5.01547C6.80695 5.77177 10.6381 6.83059 17.9112 5.01547C18.0618 5.61169 18.1377 6.2244 18.1371 6.83943C18.1371 10.6168 15.3249 13.6788 11.8559 13.6788Z" fill="black" fill-opacity="0.15"/>
<path d="M8.50517 24.8405C8.86586 21.1458 14.779 18.0416 14.779 18.0416C14.637 18.6983 14.3268 19.2861 14.0971 19.6557C13.9809 19.8435 14.0965 20.0974 14.304 20.1135C19.8625 20.5482 27.0269 14.5285 27.0269 14.5285C28.5353 16.4802 30.2888 19.1848 31.1793 20.0911C31.3062 20.2202 31.507 20.1153 31.5021 19.9264C31.1704 7.16662 18.9029 4.63238 10.5956 7.43698C2.99286 10.0037 -3.32994 19.9593 1.94273 27.2268C2.23391 26.298 3.34068 24.4961 5.43761 24.7191C5.78178 24.7987 6.70054 25.1967 7.62191 26.152C7.75964 26.3 8.89278 26.7093 8.50517 24.8405Z" fill="#E9B729"/>
<path opacity="0.15" d="M25.8925 13.0646C25.8925 13.0646 25.2351 12.2838 23.8011 12.4142C23.8011 12.4142 24.817 11.8613 25.474 11.9264C25.474 11.9264 23.6817 10.5926 21.0527 11.4386C21.0527 11.4386 22.9048 10.1374 24.369 10.2999C24.369 10.2999 22.8155 9.61694 21.8296 9.77958C21.8296 9.77958 22.6064 8.80356 23.622 8.83612C23.622 8.83612 22.8152 7.40472 21.5604 6.94943C21.5604 6.94943 24.0699 7.66529 24.7271 8.18562C26.1909 8.80356 27.5352 10.6255 27.5352 10.6255C27.0872 10.3654 26.37 10.4304 26.37 10.4304C27.5352 11.1462 28.4316 12.4797 28.4316 12.4797C27.8641 12.0893 27.1768 12.2194 27.1768 12.2194C28.2822 13.3255 28.6406 14.7568 28.6406 14.7568C28.4913 14.3015 27.4157 13.7483 27.4157 13.7483C27.8339 14.4967 27.9235 15.7 27.9235 15.7L27.0272 14.5288C27.0272 14.5288 25.2049 16.0577 24.7267 16.2529C24.7267 16.2529 26.1009 14.8216 26.1905 14.1711C26.1905 14.1711 24.129 14.7239 22.486 14.952C22.4867 14.9513 24.7871 13.1947 25.8925 13.0646Z" fill="black"/>
<path fill-rule="evenodd" clip-rule="evenodd" d="M35.297 23.3868L31.3999 23.2464L31.3602 22.4105L35.3147 22.5908L35.297 23.3868Z" fill="#896307"/>
<path fill-rule="evenodd" clip-rule="evenodd" d="M21.3958 18.4085C19.2347 18.7496 17.7337 20.9686 18.1195 23.4233C18.5052 25.878 20.6141 27.5271 22.7752 27.1859C24.9362 26.8447 26.4372 24.6258 26.0515 22.171C25.6657 19.7163 23.5569 18.0673 21.3958 18.4085ZM17.2735 22.5622C17.3148 20.1223 18.9335 17.9913 21.2722 17.622C23.9211 17.2039 26.3843 19.2211 26.8286 22.0484C26.8287 22.0489 26.8288 22.0495 26.8289 22.0501C26.9159 22.0148 27.0047 21.984 27.0949 21.9576C27.3839 21.8734 27.748 21.8217 28.127 21.901C28.1754 20.906 28.4641 19.9923 28.9338 19.2708C29.5179 18.3739 30.3972 17.7563 31.4428 17.7015C32.4867 17.6468 33.4406 18.1665 34.1408 18.9916C34.8413 19.8169 35.3082 20.9664 35.3969 22.2432C35.4856 23.52 35.1815 24.7125 34.5979 25.6087C34.014 26.5056 33.1346 27.1232 32.0891 27.1781C31.0451 27.2328 30.0913 26.7131 29.391 25.8881C28.7084 25.0838 28.2476 23.9718 28.1425 22.7341C27.8701 22.6224 27.5813 22.6448 27.3148 22.7225C27.1487 22.7709 27.0037 22.8379 26.8981 22.8946C26.9166 25.3915 25.2813 27.5962 22.8988 27.9723C20.2499 28.3905 17.7867 26.3733 17.3423 23.546C17.3334 23.4891 17.3253 23.4322 17.3181 23.3751L10.4521 22.2666C9.16406 22.088 7.87833 22.1472 6.92884 22.4667C5.9764 22.7872 5.47377 23.9662 5.45868 24.6984L4.67194 24.6794C4.69704 23.4621 5.5791 22.0814 6.67848 21.7115C7.77984 21.3409 9.19742 21.289 10.5611 21.4787L10.5654 21.4792L17.2735 22.5622ZM29.5914 19.71C29.112 20.4464 28.842 21.4622 28.9199 22.5829C28.9977 23.7034 29.4066 24.6863 29.9874 25.3706C30.5684 26.0552 31.3014 26.4222 32.046 26.3832C32.7891 26.3442 33.4615 25.9053 33.9404 25.1696C34.4198 24.4333 34.6898 23.4173 34.612 22.2967C34.5341 21.1762 34.1252 20.1933 33.5444 19.5089C32.9634 18.8244 32.2305 18.4573 31.4858 18.4963C30.7428 18.5353 30.0704 18.9744 29.5914 19.71Z" fill="#C5900F"/>
</svg>
