<svg width="31" height="35" viewBox="0 0 31 35" fill="none" xmlns="http://www.w3.org/2000/svg">
<path d="M19.1951 8.30726C19.1951 8.30726 28.2399 9.71916 27.554 22.5769C27.5516 22.6246 28.5999 23.3189 28.6819 23.3931C29.413 24.0526 30.0262 24.8973 30.2944 25.8854C31.2494 29.4039 27.8351 33.0292 25.0742 33.9915C24.0429 34.3509 22.9528 34.5254 21.8606 34.5571C14.7604 34.7634 5.36007 30.2613 4.87729 21.4691C4.86011 21.154 4.85563 20.8383 4.86387 20.5228C4.90662 18.8534 5.31051 17.2275 5.9192 15.7178C5.91892 15.7179 9.87055 5.93975 19.1951 8.30733V8.30726Z" fill="#643D19"/>
<g style="mix-blend-mode:multiply" opacity="0.1">
<path d="M27.7827 22.7126C27.6848 22.952 27.587 23.258 27.5596 23.433C27.443 24.1835 27.7004 24.9586 28.1475 25.5157C28.5721 26.0448 29.1785 26.3878 29.7657 26.5172C29.964 26.5609 30.204 26.5833 30.4139 26.5904C30.1934 24.4168 28.4194 23.1126 27.7827 22.7126ZM15.033 28.4254C16.7132 28.0648 17.7562 26.2988 17.3629 24.481C16.9695 22.6632 15.2887 21.4818 13.6086 21.8425C11.9286 22.203 10.8854 23.969 11.2788 25.7868C11.6721 27.6047 13.3529 28.786 15.033 28.4254Z" fill="#DC2400"/>
</g>
<path opacity="0.1" d="M23.2582 23.3407C23.2582 23.3407 24.693 21.9788 25.8038 23.2593L23.2582 23.3407Z" fill="black"/>
<path d="M9.8801 30.127C5.1039 32.515 0.768972 26.5267 2.1575 23.1605C3.04321 21.0133 5.62572 20.8464 7.12218 22.8077C8.00535 23.9652 8.71992 25.4448 9.12567 26.8602" fill="#643D19"/>
<path opacity="0.1" d="M5.94605 24.7831C6.5606 25.407 7.0546 26.3321 7.66178 26.8482C7.54957 25.9847 7.37045 25.0625 6.94997 24.2843C6.52308 23.4939 5.74669 22.8428 4.95619 22.8964C3.97658 22.963 3.16997 24.1013 3.06622 25.1333C3.12818 24.5157 4.37352 24.0978 4.8488 24.1563C5.59311 25.5558 5.88128 28.3141 5.88128 28.3141C6.50133 26.7526 6.25026 25.5244 5.94605 24.7831Z" fill="black"/>
<path d="M24.8045 26.6233C25.4462 26.6411 26.0614 26.4575 26.5914 25.9066C26.8686 25.6186 27.1498 25.4601 27.5476 25.7065C28.5001 26.2965 28.7243 27.7704 28.4683 28.7586C28.1872 29.8431 27.3404 30.7173 26.3646 31.2875C23.7388 32.8219 21.7247 32.4766 19.0376 31.4958C16.9225 30.7239 14.0631 29.1681 14.7879 26.4904C15.6855 23.175 19.5539 24.7668 21.7366 25.6612C22.6634 26.0413 23.7683 26.5946 24.8045 26.6233Z" fill="white"/>
<mask id="mask0_53_433" style="mask-type:alpha" maskUnits="userSpaceOnUse" x="14" y="24" width="15" height="9">
<path d="M24.8045 26.6233C25.4462 26.6411 26.0614 26.4575 26.5914 25.9066C26.8686 25.6186 27.1498 25.4601 27.5476 25.7065C28.5001 26.2965 28.7243 27.7704 28.4683 28.7586C28.1872 29.8431 27.3404 30.7173 26.3646 31.2875C23.7388 32.8219 21.7247 32.4766 19.0376 31.4958C16.9225 30.7239 14.0631 29.1681 14.7879 26.4904C15.6855 23.175 19.5539 24.7668 21.7366 25.6612C22.6634 26.0413 23.7683 26.5946 24.8045 26.6233Z" fill="white"/>
</mask>
<g mask="url(#mask0_53_433)">
<path fill-rule="evenodd" clip-rule="evenodd" d="M16.0437 30.3059L18.7926 23.3662L19.1753 23.518L16.4263 30.4576L16.0437 30.3059ZM21.6921 32.5482L23.5908 25.2664L23.989 25.3703L22.0903 32.6521L21.6921 32.5482ZM27.3432 30.79L26.2955 25.4513L26.6994 25.3721L27.747 30.7107L27.3432 30.79Z" fill="#D1D3D4"/>
</g>
<path d="M18.9767 21.7378C19.5826 21.7268 20.1891 21.9452 20.7257 22.2712C21.0475 21.9423 21.2022 21.3803 21.0812 20.7932C20.9116 19.9693 20.2701 19.4169 19.6484 19.5595C19.0266 19.7021 18.6605 20.4857 18.8303 21.3096C18.8619 21.4642 18.9148 21.6054 18.9767 21.7378ZM26.9177 21.8383C27.007 21.6409 27.0595 21.3997 27.0544 21.1363C27.042 20.4817 26.6916 19.9537 26.2716 19.9573C25.8515 19.9606 25.5211 20.4942 25.5334 21.149C25.5403 21.509 25.6516 21.827 25.8181 22.043C26.1687 21.907 26.5411 21.8421 26.9177 21.8383Z" fill="#2A1200"/>
<path d="M21.2503 16.901C20.3117 16.7483 19.3058 17.0991 18.6306 17.8106C18.413 18.04 18.3521 18.4469 18.5795 18.706C18.7896 18.9456 19.1719 19.0189 19.405 18.7731C19.4742 18.6994 19.5477 18.6299 19.625 18.5647C19.6491 18.5446 19.7159 18.5087 19.7369 18.479C19.7486 18.4713 19.7601 18.4635 19.7721 18.456C19.8456 18.4097 19.9214 18.3672 19.9992 18.3285C20.0436 18.3067 20.0886 18.286 20.1341 18.2666C20.1484 18.2607 20.1628 18.2549 20.1775 18.2491C20.2174 18.2421 20.2631 18.2205 20.2996 18.2106C20.4413 18.1721 20.5863 18.1464 20.7327 18.1339C20.7786 18.1341 20.8245 18.1333 20.8707 18.1351C20.9687 18.1392 21.0663 18.1501 21.1635 18.1658C21.4667 18.2152 21.7813 17.9165 21.7903 17.5885C21.7999 17.2274 21.5753 16.9539 21.2503 16.901ZM27.5519 17.9793C27.2111 17.5102 26.7102 17.2023 26.17 17.1129C26.0241 17.0888 25.8539 17.1448 25.7402 17.2421C25.6281 17.3379 25.5341 17.507 25.5243 17.6646C25.5142 17.8284 25.5465 18.0042 25.6488 18.133C25.7524 18.2636 25.8825 18.3465 26.0408 18.3729C26.0667 18.3771 26.0919 18.3844 26.1178 18.39C26.1939 18.4163 26.2675 18.4488 26.3393 18.4868C26.4215 18.5426 26.4984 18.6056 26.5691 18.6753C26.5924 18.7032 26.6171 18.73 26.6388 18.7597C26.7322 18.8881 26.882 18.9795 27.0308 18.9996C27.1732 19.0187 27.3505 18.973 27.4605 18.8702C27.5746 18.7638 27.666 18.6163 27.6764 18.4476C27.6869 18.2794 27.6508 18.1152 27.5519 17.9793Z" fill="#71472D"/>
<path d="M10.5901 12.0157C7.59424 12.0157 5.16553 9.37118 5.16553 6.10898C5.16553 2.84665 7.59424 0.202148 10.5901 0.202148C13.5861 0.202148 16.0148 2.84672 16.0148 6.10891C16.0148 9.37118 13.5861 12.0157 10.5901 12.0157Z" fill="#238D80"/>
<path d="M10.5901 12.0157C7.59424 12.0157 5.16553 9.37119 5.16553 6.10899C5.16553 5.56343 5.23344 5.03519 5.36055 4.53369C6.22969 5.18686 9.53837 6.10129 15.8198 4.53369C15.9498 5.04861 16.0153 5.57777 16.0148 6.10893C16.0148 9.37119 13.5861 12.0157 10.5901 12.0157Z" fill="black" fill-opacity="0.15"/>
<path d="M7.69645 21.6553C8.00795 18.4644 13.1147 15.7835 13.1147 15.7835C12.9921 16.3506 12.7242 16.8583 12.5259 17.1776C12.4255 17.3397 12.5253 17.559 12.7045 17.5729C17.5051 17.9483 23.6925 12.7495 23.6925 12.7495C24.9952 14.435 26.5096 16.7708 27.2787 17.5536C27.3882 17.665 27.5617 17.5744 27.5575 17.4113C27.2709 6.39149 16.6763 4.20282 9.50181 6.62498C2.93582 8.84169 -2.52479 17.4397 2.02888 23.7162C2.28036 22.914 3.23621 21.3579 5.04719 21.5504C5.34443 21.6192 6.1379 21.9629 6.93364 22.788C7.05259 22.9157 8.0312 23.2693 7.69645 21.6553Z" fill="#238D80"/>
<path opacity="0.15" d="M22.7129 11.4852C22.7129 11.4852 22.1451 10.8109 20.9067 10.9235C20.9067 10.9235 21.784 10.446 22.3514 10.5022C22.3514 10.5022 20.8035 9.35033 18.5331 10.0809C18.5331 10.0809 20.1326 8.95712 21.3971 9.09752C21.3971 9.09752 20.0555 8.50767 19.204 8.64814C19.204 8.64814 19.8749 7.80521 20.752 7.83333C20.752 7.83333 20.0552 6.59713 18.9716 6.20392C18.9716 6.20392 21.1388 6.82216 21.7064 7.27154C22.9705 7.80521 24.1316 9.37872 24.1316 9.37872C23.7447 9.15404 23.1253 9.21021 23.1253 9.21021C24.1316 9.82838 24.9057 10.98 24.9057 10.98C24.4156 10.6429 23.8221 10.7553 23.8221 10.7553C24.7767 11.7105 25.0862 12.9467 25.0862 12.9467C24.9573 12.5535 24.0284 12.0757 24.0284 12.0757C24.3896 12.722 24.4669 13.7612 24.4669 13.7612L23.6928 12.7498C23.6928 12.7498 22.119 14.0702 21.7061 14.2387C21.7061 14.2387 22.8929 13.0026 22.9703 12.4408C22.9703 12.4408 21.1899 12.9183 19.7709 13.1152C19.7715 13.1146 21.7582 11.5976 22.7129 11.4852Z" fill="black"/>
</svg>
